<?xml version="1.0" encoding="UTF-8" standalone="no"?>
<!-- Generator: Adobe Illustrator 16.0.0, SVG Export Plug-In . SVG Version: 6.00 Build 0)  -->

<svg
   xmlns:dc="http://purl.org/dc/elements/1.1/"
   xmlns:cc="http://creativecommons.org/ns#"
   xmlns:rdf="http://www.w3.org/1999/02/22-rdf-syntax-ns#"
   xmlns:svg="http://www.w3.org/2000/svg"
   xmlns="http://www.w3.org/2000/svg"
   xmlns:sodipodi="http://sodipodi.sourceforge.net/DTD/sodipodi-0.dtd"
   xmlns:inkscape="http://www.inkscape.org/namespaces/inkscape"
   version="1.1"
   id="Layer_1"
   x="0px"
   y="0px"
   width="1920px"
   height="1080px"
   viewBox="0 0 1920 1080"
   enable-background="new 0 0 1920 1080"
   xml:space="preserve"
   inkscape:version="0.91 r13725"
   sodipodi:docname="btn4on.svg"><metadata
     id="metadata25"><rdf:RDF><cc:Work
         rdf:about=""><dc:format>image/svg+xml</dc:format><dc:type
           rdf:resource="http://purl.org/dc/dcmitype/StillImage" /></cc:Work></rdf:RDF></metadata><defs
     id="defs23" /><sodipodi:namedview
     pagecolor="#ffffff"
     bordercolor="#666666"
     borderopacity="1"
     objecttolerance="10"
     gridtolerance="10"
     guidetolerance="10"
     inkscape:pageopacity="0"
     inkscape:pageshadow="2"
     inkscape:window-width="1920"
     inkscape:window-height="1018"
     id="namedview21"
     showgrid="false"
     inkscape:zoom="2.9916667"
     inkscape:cx="1112.264"
     inkscape:cy="557.94361"
     inkscape:window-x="-8"
     inkscape:window-y="-8"
     inkscape:window-maximized="1"
     inkscape:current-layer="Layer_1" /><g
     id="g3"
     inkscape:export-xdpi="76.830002"
     inkscape:export-ydpi="76.830002"><path
       fill="#A31202"
       d="M1029.422,552.43l-10.777-16.957c-0.654-1.006-1.585-2.63-2.009-3.325c0,1.006,0.04,4.752,0.04,6.259   v14.022h-3.942v-27.041h4.135l10.274,16.495c0.697,1.12,1.857,3.13,2.241,3.825c0-1.003-0.038-4.866-0.038-6.373v-13.948h3.938   v27.041H1029.422z"
       id="path5" /><path
       fill="#A31202"
       d="M1047.709,552.855c-5.099,0-8.92-4.213-8.92-10.548c0-6.642,3.937-10.584,9.037-10.584   c5.177,0,9.04,4.133,9.04,10.468C1056.866,548.914,1052.926,552.855,1047.709,552.855z M1047.672,535.51   c-3.015,0-4.869,2.665-4.869,6.681c0,4.445,2.051,6.879,5.064,6.879s4.982-3.053,4.982-6.763   C1052.85,538.175,1050.881,535.51,1047.672,535.51z"
       id="path7" /><path
       fill="#A31202"
       d="M1071.288,551.928c-0.968,0.54-2.32,0.928-3.904,0.928c-2.819,0-4.556-1.741-4.556-5.37v-11.704h-2.898   v-3.633h2.898v-5.794l3.9-2.086v7.88h5.021v3.633h-5.021v11.01c0,1.895,0.619,2.435,2.087,2.435c1.042,0,2.202-0.388,2.935-0.811   L1071.288,551.928z"
       id="path9" /><path
       fill="#A31202"
       d="M1077.321,552.43v-20.281h3.98v20.281H1077.321z M1080.606,529.446h-3.168l4.133-6.181h5.407   L1080.606,529.446z"
       id="path11" /><path
       fill="#A31202"
       d="M1100.16,537.982c-1.662-1.701-3.128-2.472-4.947-2.472c-2.896,0-4.749,2.589-4.749,6.723   c0,3.979,1.697,6.837,4.866,6.837c1.895,0,3.014-0.852,4.595-2.512l2.552,2.512c-1.581,2.008-3.594,3.785-7.264,3.785   c-4.943,0-8.768-4.17-8.768-10.506c0-6.723,3.94-10.626,8.885-10.626c2.973,0,5.295,1.198,7.187,3.438L1100.16,537.982z"
       id="path13" /><path
       fill="#A31202"
       d="M1109.791,529.521c-1.432,0-2.592-1.157-2.592-2.547c0-1.432,1.16-2.589,2.592-2.589   c1.39,0,2.548,1.158,2.548,2.589C1112.339,528.364,1111.181,529.521,1109.791,529.521z M1107.78,552.43v-20.281h3.98v20.281   H1107.78z"
       id="path15" /><path
       fill="#A31202"
       d="M1129.456,552.43v-2.009c-1.391,1.394-3.359,2.435-5.562,2.435c-3.284,0-7.029-1.854-7.029-6.838   c0-4.521,3.476-6.565,8.074-6.565c1.894,0,3.396,0.268,4.517,0.771v-1.507c0-2.201-1.354-3.438-3.825-3.438   c-2.082,0-3.705,0.388-5.29,1.274l-1.544-3.013c1.932-1.195,4.091-1.815,6.954-1.815c4.518,0,7.608,2.202,7.608,6.8v13.906   H1129.456z M1129.456,543.778c-1.083-0.542-2.473-0.89-4.634-0.89c-2.552,0-4.174,1.16-4.174,3.012c0,2.01,1.277,3.363,3.904,3.363   c2.122,0,3.979-1.314,4.903-2.591V543.778z"
       id="path17" /><path
       fill="#A31202"
       d="M1145.655,552.855c-2.742,0-5.718-1.082-7.763-2.59l1.813-3.013c1.893,1.314,4.019,2.011,5.912,2.011   c2.512,0,3.709-0.812,3.709-2.239c0-1.548-1.776-2.281-4.715-3.401c-4.363-1.698-5.946-3.168-5.946-6.375   c0-3.63,2.857-5.524,6.915-5.524c2.549,0,5.059,0.928,6.876,2.243l-1.739,3.05c-1.661-1.16-3.322-1.739-5.252-1.739   c-1.936,0-2.785,0.774-2.785,1.856c0,1.004,0.699,1.737,3.751,2.935c4.515,1.74,6.837,2.976,6.837,6.801   C1153.268,551.349,1149.636,552.855,1145.655,552.855z"
       id="path19" /></g><g
     id="g4153"
     transform="translate(31.754875,55.153203)"
     inkscape:export-xdpi="76.830002"
     inkscape:export-ydpi="76.830002"><path
       id="path4155"
       d="m 1029.422,552.43 -10.777,-16.957 c -0.654,-1.006 -1.585,-2.63 -2.009,-3.325 0,1.006 0.04,4.752 0.04,6.259 l 0,14.022 -3.942,0 0,-27.041 4.135,0 10.274,16.495 c 0.697,1.12 1.857,3.13 2.241,3.825 0,-1.003 -0.038,-4.866 -0.038,-6.373 l 0,-13.948 3.938,0 0,27.041 -3.862,0 z"
       inkscape:connector-curvature="0"
       style="fill:#000000;fill-opacity:1" /><path
       id="path4157"
       d="m 1047.709,552.855 c -5.099,0 -8.92,-4.213 -8.92,-10.548 0,-6.642 3.937,-10.584 9.037,-10.584 5.177,0 9.04,4.133 9.04,10.468 0,6.723 -3.94,10.664 -9.157,10.664 z m -0.037,-17.345 c -3.015,0 -4.869,2.665 -4.869,6.681 0,4.445 2.051,6.879 5.064,6.879 3.013,0 4.982,-3.053 4.982,-6.763 10e-4,-4.132 -1.968,-6.797 -5.177,-6.797 z"
       inkscape:connector-curvature="0"
       style="fill:#000000;fill-opacity:1" /><path
       id="path4159"
       d="m 1071.288,551.928 c -0.968,0.54 -2.32,0.928 -3.904,0.928 -2.819,0 -4.556,-1.741 -4.556,-5.37 l 0,-11.704 -2.898,0 0,-3.633 2.898,0 0,-5.794 3.9,-2.086 0,7.88 5.021,0 0,3.633 -5.021,0 0,11.01 c 0,1.895 0.619,2.435 2.087,2.435 1.042,0 2.202,-0.388 2.935,-0.811 l -0.462,3.512 z"
       inkscape:connector-curvature="0"
       style="fill:#000000;fill-opacity:1" /><path
       id="path4161"
       d="m 1077.321,552.43 0,-20.281 3.98,0 0,20.281 -3.98,0 z m 3.285,-22.984 -3.168,0 4.133,-6.181 5.407,0 -6.372,6.181 z"
       inkscape:connector-curvature="0"
       style="fill:#000000;fill-opacity:1" /><path
       id="path4163"
       d="m 1100.16,537.982 c -1.662,-1.701 -3.128,-2.472 -4.947,-2.472 -2.896,0 -4.749,2.589 -4.749,6.723 0,3.979 1.697,6.837 4.866,6.837 1.895,0 3.014,-0.852 4.595,-2.512 l 2.552,2.512 c -1.581,2.008 -3.594,3.785 -7.264,3.785 -4.943,0 -8.768,-4.17 -8.768,-10.506 0,-6.723 3.94,-10.626 8.885,-10.626 2.973,0 5.295,1.198 7.187,3.438 l -2.357,2.821 z"
       inkscape:connector-curvature="0"
       style="fill:#000000;fill-opacity:1" /><path
       id="path4165"
       d="m 1109.791,529.521 c -1.432,0 -2.592,-1.157 -2.592,-2.547 0,-1.432 1.16,-2.589 2.592,-2.589 1.39,0 2.548,1.158 2.548,2.589 0,1.39 -1.158,2.547 -2.548,2.547 z m -2.011,22.909 0,-20.281 3.98,0 0,20.281 -3.98,0 z"
       inkscape:connector-curvature="0"
       style="fill:#000000;fill-opacity:1" /><path
       id="path4167"
       d="m 1129.456,552.43 0,-2.009 c -1.391,1.394 -3.359,2.435 -5.562,2.435 -3.284,0 -7.029,-1.854 -7.029,-6.838 0,-4.521 3.476,-6.565 8.074,-6.565 1.894,0 3.396,0.268 4.517,0.771 l 0,-1.507 c 0,-2.201 -1.354,-3.438 -3.825,-3.438 -2.082,0 -3.705,0.388 -5.29,1.274 l -1.544,-3.013 c 1.932,-1.195 4.091,-1.815 6.954,-1.815 4.518,0 7.608,2.202 7.608,6.8 l 0,13.906 -3.903,0 z m 0,-8.652 c -1.083,-0.542 -2.473,-0.89 -4.634,-0.89 -2.552,0 -4.174,1.16 -4.174,3.012 0,2.01 1.277,3.363 3.904,3.363 2.122,0 3.979,-1.314 4.903,-2.591 l 0,-2.894 z"
       inkscape:connector-curvature="0"
       style="fill:#000000;fill-opacity:1" /><path
       id="path4169"
       d="m 1145.655,552.855 c -2.742,0 -5.718,-1.082 -7.763,-2.59 l 1.813,-3.013 c 1.893,1.314 4.019,2.011 5.912,2.011 2.512,0 3.709,-0.812 3.709,-2.239 0,-1.548 -1.776,-2.281 -4.715,-3.401 -4.363,-1.698 -5.946,-3.168 -5.946,-6.375 0,-3.63 2.857,-5.524 6.915,-5.524 2.549,0 5.059,0.928 6.876,2.243 l -1.739,3.05 c -1.661,-1.16 -3.322,-1.739 -5.252,-1.739 -1.936,0 -2.785,0.774 -2.785,1.856 0,1.004 0.699,1.737 3.751,2.935 4.515,1.74 6.837,2.976 6.837,6.801 0,4.479 -3.632,5.985 -7.613,5.985 z"
       inkscape:connector-curvature="0"
       style="fill:#000000;fill-opacity:1" /></g></svg>