<?xml version="1.0" encoding="utf-8"?>
<!-- Generator: Adobe Illustrator 16.0.0, SVG Export Plug-In . SVG Version: 6.00 Build 0)  -->
<!DOCTYPE svg PUBLIC "-//W3C//DTD SVG 1.1//EN" "http://www.w3.org/Graphics/SVG/1.1/DTD/svg11.dtd">
<svg version="1.1" id="Layer_1" xmlns="http://www.w3.org/2000/svg" xmlns:xlink="http://www.w3.org/1999/xlink" x="0px" y="0px"
	 width="1920px" height="1080px" viewBox="0 0 1920 1080" enable-background="new 0 0 1920 1080" xml:space="preserve">
<rect x="1051.537" y="613.918" fill="none" width="105.701" height="25.553"/>
<text transform="matrix(1 0 0 1 1066.7578 634.4414)"><tspan x="0" y="0" fill="#FFFFFF" font-family="'Interstate-Bold'" font-size="28.1521">Conta</tspan><tspan x="79.021" y="0" fill="#FFFFFF" font-family="'Interstate-Bold'" font-size="28.1521">-</tspan></text>
<polyline fill="none" stroke="#FFFFFF" stroke-width="2.8347" stroke-miterlimit="10" points="846.294,359 1062.931,359 
	1062.931,378.036 846.294,378.036 "/>
<rect x="1077.03" y="358.443" fill="none" width="145.6" height="23.988"/>
<text transform="matrix(1 0 0 1 1164.3555 378.9653)"><tspan x="0" y="0" fill="#FFFFFF" font-family="'Interstate-Bold'" font-size="28.1521">Pro</tspan><tspan x="46.816" y="0" fill="#FFFFFF" font-family="'Interstate-Bold'" font-size="28.1521">-</tspan></text>
<rect x="788.328" y="594.914" fill="none" width="145.6" height="23.988"/>
<text transform="matrix(1 0 0 1 875.6538 615.4365)"><tspan x="0" y="0" fill="#FFFFFF" font-family="'Interstate-Bold'" font-size="28.1521">Pro</tspan><tspan x="46.816" y="0" fill="#FFFFFF" font-family="'Interstate-Bold'" font-size="28.1521">-</tspan></text>
<rect x="980.148" y="760.294" fill="none" width="182.035" height="22.096"/>
<text transform="matrix(1 0 0 1 1066.6914 780.8164)" fill="#FFFFFF" font-family="'Interstate-Bold'" font-size="28.1521">A Rede </text>
<rect x="880.896" y="502.647" fill="none" width="182.035" height="22.096"/>
<text transform="matrix(1 0 0 1 967.4395 523.1694)" fill="#FFFFFF" font-family="'Interstate-Bold'" font-size="28.1521">A Rede </text>
<polyline fill="none" stroke="#FFFFFF" stroke-width="2.8347" stroke-miterlimit="10" points="650.159,502.708 866.796,502.708 
	866.796,521.743 650.159,521.743 "/>
<polyline fill="none" stroke="#FFFFFF" stroke-width="2.8347" stroke-miterlimit="10" points="491.034,732.59 707.671,732.59 
	707.671,751.625 491.034,751.625 "/>
<rect x="724.89" y="729.342" fill="none" width="105.701" height="25.553"/>
<text transform="matrix(1 0 0 1 740.1104 749.8652)"><tspan x="0" y="0" fill="#FFFFFF" font-family="'Interstate-Bold'" font-size="28.1521">Conta</tspan><tspan x="79.022" y="0" fill="#FFFFFF" font-family="'Interstate-Bold'" font-size="28.1521">-</tspan></text>
<polyline fill="none" stroke="#FFFFFF" stroke-width="2.8347" stroke-miterlimit="10" points="482.706,368.518 699.342,368.518 
	699.342,387.553 482.706,387.553 "/>
</svg>
