<?xml version="1.0" encoding="utf-8"?>
<!-- Generator: Adobe Illustrator 16.0.0, SVG Export Plug-In . SVG Version: 6.00 Build 0)  -->
<!DOCTYPE svg PUBLIC "-//W3C//DTD SVG 1.1//EN" "http://www.w3.org/Graphics/SVG/1.1/DTD/svg11.dtd">
<svg version="1.1" id="Layer_1" xmlns="http://www.w3.org/2000/svg" xmlns:xlink="http://www.w3.org/1999/xlink" x="0px" y="0px"
	 width="1920px" height="1080px" viewBox="0 0 1920 1080" enable-background="new 0 0 1920 1080" xml:space="preserve">
<g>
	<path fill="#A31202" d="M641.709,550.506l-2.359-6.639h-11.197l-2.32,6.639h-4.359l10.078-27.995h4.439l10.199,27.995H641.709z
		 M635.83,533.669c-0.68-2-1.799-5.239-2.119-6.439c-0.32,1.2-1.32,4.399-2.039,6.479l-2.24,6.398h8.639L635.83,533.669z"/>
	<path fill="#A31202" d="M677.63,539.067l5.719,11.438h-4.84l-5.559-11.078h-6.319v11.078h-4.119v-27.995h12.278
		c4.879,0,8.998,2.6,8.998,8.358C683.788,535.349,681.429,538.108,677.63,539.067z M674.79,526.47h-8.159v8.999h8.159
		c2.799,0,4.76-1.44,4.76-4.479C679.55,528.069,677.63,526.47,674.79,526.47z"/>
	<path fill="#A31202" d="M705.589,541.468h-13.877c0.439,4.039,2.719,5.759,5.278,5.759c1.76,0,3.16-0.64,4.56-1.68l2.439,2.64
		c-1.84,1.76-4.039,2.759-7.238,2.759c-4.92,0-9.079-3.959-9.079-10.918c0-7.118,3.759-10.958,9.198-10.958
		c5.96,0,8.839,4.839,8.839,10.519C705.709,540.348,705.629,541.027,705.589,541.468z M696.591,532.789
		c-2.76,0-4.439,1.92-4.799,5.279h9.758C701.35,535.188,699.99,532.789,696.591,532.789z"/>
	<path fill="#A31202" d="M723.469,550.506v-2c-1.52,1.4-3.28,2.439-5.479,2.439c-4.519,0-8.078-3.279-8.078-11.277
		c0-7.199,3.92-10.599,8.279-10.599c2.119,0,4.118,1.12,5.278,2.399v-7.998l4.08-2.12v29.155H723.469z M723.508,535.628
		c-0.92-1.239-2.839-2.759-4.919-2.759c-2.959,0-4.559,2.239-4.559,6.679c0,5.279,1.68,7.599,4.719,7.599
		c1.961,0,3.681-1.32,4.759-2.68V535.628z"/>
	<path fill="#A31202" d="M750.548,541.468h-13.877c0.439,4.039,2.719,5.759,5.278,5.759c1.76,0,3.16-0.64,4.56-1.68l2.439,2.64
		c-1.84,1.76-4.039,2.759-7.238,2.759c-4.92,0-9.079-3.959-9.079-10.918c0-7.118,3.76-10.958,9.199-10.958
		c5.959,0,8.838,4.839,8.838,10.519C750.668,540.348,750.588,541.027,750.548,541.468z M741.55,532.789
		c-2.76,0-4.439,1.92-4.799,5.279h9.758C746.309,535.188,744.949,532.789,741.55,532.789z"/>
	<path fill="#A31202" d="M788.106,550.506v-14.798c0-1.68,0.04-4.119,0.08-4.919c-0.32,0.8-1.12,2.8-1.8,4.399l-6.799,15.757
		l-6.719-15.757c-0.68-1.6-1.479-3.6-1.8-4.399c0.04,0.8,0.08,3.239,0.08,4.919v14.798h-3.96v-27.995h4.319l6.279,14.917
		c0.68,1.6,1.56,3.64,1.92,4.8c0.399-1.16,1.199-3.16,1.88-4.8l6.158-14.917h4.479v27.995H788.106z"/>
	<path fill="#A31202" d="M801.19,526.79c-1.48,0-2.68-1.2-2.68-2.64c0-1.479,1.199-2.68,2.68-2.68c1.439,0,2.639,1.2,2.639,2.68
		C803.829,525.59,802.63,526.79,801.19,526.79z M799.11,550.506V529.51h4.119v20.996H799.11z"/>
	<path fill="#A31202" d="M822.268,550.506v-11.878c0-4.239-1.6-5.759-4.319-5.759c-2.759,0-4.319,1.959-4.319,5.358v12.278h-4.119
		V529.51h4.119v1.999c1.04-1.52,3.12-2.439,5.279-2.439c4.879,0,7.479,3.199,7.479,9.398v12.038H822.268z"/>
	<path fill="#A31202" d="M844.348,550.506v-2.08c-1.439,1.44-3.479,2.52-5.759,2.52c-3.399,0-7.279-1.919-7.279-7.078
		c0-4.68,3.6-6.799,8.359-6.799c1.959,0,3.519,0.279,4.679,0.8v-1.56c0-2.28-1.399-3.56-3.959-3.56c-2.16,0-3.84,0.399-5.479,1.319
		l-1.6-3.119c2-1.24,4.239-1.88,7.199-1.88c4.679,0,7.878,2.279,7.878,7.039v14.397H844.348z M844.348,541.547
		c-1.12-0.56-2.56-0.919-4.799-0.919c-2.64,0-4.319,1.199-4.319,3.119c0,2.079,1.319,3.479,4.039,3.479
		c2.199,0,4.119-1.36,5.079-2.68V541.547z"/>
	<path fill="#A31202" d="M861.108,550.945c-2.839,0-5.919-1.119-8.038-2.679l1.879-3.12c1.96,1.36,4.16,2.08,6.119,2.08
		c2.6,0,3.84-0.84,3.84-2.319c0-1.601-1.84-2.36-4.88-3.52c-4.519-1.76-6.158-3.279-6.158-6.6c0-3.759,2.959-5.719,7.158-5.719
		c2.64,0,5.239,0.96,7.119,2.319l-1.8,3.16c-1.72-1.2-3.439-1.8-5.439-1.8c-1.999,0-2.879,0.8-2.879,1.92
		c0,1.039,0.72,1.799,3.879,3.039c4.68,1.8,7.079,3.079,7.079,7.039C868.987,549.386,865.228,550.945,861.108,550.945z"/>
</g>
<g>
	<path d="M927.375,540.225h-7.318v10.438h-4.119v-27.995h11.717c5.16,0,9,2.959,9,8.759
		C936.654,537.186,932.814,540.225,927.375,540.225z M927.574,526.627h-7.518v9.639h7.518c3.201,0,4.801-1.84,4.801-4.839
		C932.375,528.347,930.494,526.627,927.574,526.627z"/>
	<path d="M952.855,534.026c-0.881-0.48-1.801-0.761-3.16-0.761c-2.6,0-4.119,1.84-4.119,5.399v11.998h-4.119v-20.996h4.119v1.999
		c0.961-1.399,2.721-2.439,4.799-2.439c1.68,0,2.721,0.32,3.561,0.88L952.855,534.026z"/>
	<path d="M965.415,551.103c-5.278,0-9.237-4.358-9.237-10.918c0-6.879,4.078-10.958,9.358-10.958c5.359,0,9.357,4.279,9.357,10.838
		C974.894,547.023,970.815,551.103,965.415,551.103z M965.376,533.146c-3.119,0-5.04,2.759-5.04,6.918c0,4.6,2.12,7.119,5.239,7.119
		s5.16-3.159,5.16-6.999C970.735,535.905,968.694,533.146,965.376,533.146z"/>
	<path d="M986.776,558.382l-1.4-3.119c5.918-0.28,7.199-1.88,7.199-6.239v-0.36c-1.52,1.4-3.24,2.439-5.439,2.439
		c-4.479,0-8.078-3.279-8.078-11.277c0-7.199,3.959-10.599,8.277-10.599c2.121,0,4.119,1.12,5.24,2.399v-1.959h4.119v18.996
		C996.694,555.063,994.374,558.142,986.776,558.382z M992.655,535.785c-0.92-1.239-2.84-2.759-4.92-2.759
		c-2.959,0-4.559,2.239-4.559,6.679c0,5.279,1.68,7.599,4.719,7.599c1.959,0,3.68-1.32,4.76-2.68V535.785z"/>
	<path d="M1014.175,534.026c-0.881-0.48-1.801-0.761-3.16-0.761c-2.6,0-4.119,1.84-4.119,5.399v11.998h-4.119v-20.996h4.119v1.999
		c0.961-1.399,2.721-2.439,4.799-2.439c1.68,0,2.721,0.32,3.561,0.88L1014.175,534.026z"/>
	<path d="M1030.136,550.663v-2.08c-1.441,1.44-3.48,2.52-5.76,2.52c-3.4,0-7.279-1.919-7.279-7.078c0-4.68,3.6-6.799,8.359-6.799
		c1.959,0,3.52,0.279,4.68,0.8v-1.56c0-2.28-1.4-3.56-3.961-3.56c-2.158,0-3.838,0.399-5.479,1.319l-1.6-3.119
		c2-1.24,4.24-1.88,7.199-1.88c4.68,0,7.879,2.279,7.879,7.039v14.397H1030.136z M1030.136,541.704
		c-1.121-0.56-2.561-0.919-4.801-0.919c-2.639,0-4.318,1.199-4.318,3.119c0,2.079,1.32,3.479,4.039,3.479
		c2.199,0,4.119-1.36,5.08-2.68V541.704z"/>
	<path d="M1064.492,550.663v-11.878c0-4.239-1.319-5.759-4.04-5.759c-2.758,0-4.039,1.959-4.039,5.358v12.278h-4.119v-11.878
		c0-4.239-1.32-5.759-4.039-5.759c-2.76,0-4.039,1.959-4.039,5.358v12.278h-4.119v-20.996h4.119v1.999
		c1.039-1.52,2.84-2.439,4.998-2.439c2.84,0,4.641,1.08,5.76,3.08c1.52-1.88,3.16-3.08,6.439-3.08c4.878,0,7.198,3.199,7.198,9.398
		v12.038H1064.492z"/>
	<path d="M1086.574,550.663v-2.08c-1.439,1.44-3.479,2.52-5.76,2.52c-3.398,0-7.277-1.919-7.277-7.078c0-4.68,3.6-6.799,8.357-6.799
		c1.961,0,3.52,0.279,4.68,0.8v-1.56c0-2.28-1.4-3.56-3.959-3.56c-2.16,0-3.84,0.399-5.479,1.319l-1.6-3.119
		c1.998-1.24,4.238-1.88,7.197-1.88c4.68,0,7.879,2.279,7.879,7.039v14.397H1086.574z M1086.574,541.704
		c-1.119-0.56-2.559-0.919-4.799-0.919c-2.641,0-4.32,1.199-4.32,3.119c0,2.079,1.32,3.479,4.041,3.479
		c2.199,0,4.119-1.36,5.078-2.68V541.704z"/>
	<path d="M1103.334,551.103c-2.838,0-5.918-1.119-8.037-2.679l1.879-3.12c1.959,1.36,4.16,2.08,6.119,2.08
		c2.6,0,3.84-0.84,3.84-2.319c0-1.601-1.84-2.36-4.881-3.52c-4.518-1.76-6.158-3.279-6.158-6.6c0-3.759,2.959-5.719,7.158-5.719
		c2.641,0,5.24,0.96,7.119,2.319l-1.799,3.16c-1.721-1.2-3.439-1.8-5.439-1.8s-2.879,0.8-2.879,1.92
		c0,1.039,0.719,1.799,3.879,3.039c4.68,1.8,7.078,3.079,7.078,7.039C1111.213,549.543,1107.453,551.103,1103.334,551.103z"/>
</g>
<g>
	<path d="M1170,551.306c-7.238,0-11.838-5.959-11.838-14.438s4.6-14.438,11.838-14.438c4.559,0,7.6,1.84,9.518,5.239l-3.719,2.319
		c-1.439-2.279-2.92-3.359-5.799-3.359c-4.879,0-7.52,3.96-7.52,10.238c0,6.279,2.641,10.238,7.52,10.238
		c2.92,0,4.719-1.199,6.158-3.479l3.48,2.32C1177.639,549.387,1174.24,551.306,1170,551.306z"/>
	<path d="M1192.521,551.306c-5.279,0-9.238-4.358-9.238-10.918c0-6.879,4.078-10.958,9.357-10.958c5.359,0,9.359,4.279,9.359,10.838
		C1202,547.227,1197.92,551.306,1192.521,551.306z M1192.48,533.35c-3.119,0-5.039,2.759-5.039,6.918c0,4.6,2.119,7.119,5.24,7.119
		c3.119,0,5.158-3.159,5.158-6.999C1197.84,536.108,1195.801,533.35,1192.48,533.35z"/>
	<path d="M1219.84,550.866v-11.878c0-4.239-1.6-5.759-4.318-5.759c-2.76,0-4.32,1.959-4.32,5.358v12.278h-4.119V529.87h4.119v1.999
		c1.041-1.52,3.119-2.439,5.279-2.439c4.879,0,7.479,3.199,7.479,9.398v12.038H1219.84z"/>
	<path d="M1239.721,550.347c-1,0.56-2.398,0.959-4.039,0.959c-2.92,0-4.719-1.799-4.719-5.559v-12.118h-3v-3.759h3v-5.999
		l4.039-2.16v8.159h5.199v3.759h-5.199v11.398c0,1.96,0.641,2.52,2.16,2.52c1.08,0,2.279-0.4,3.039-0.84L1239.721,550.347z"/>
	<path d="M1257.24,550.866v-2.08c-1.439,1.44-3.479,2.52-5.758,2.52c-3.4,0-7.279-1.919-7.279-7.078c0-4.68,3.6-6.799,8.359-6.799
		c1.959,0,3.518,0.279,4.678,0.8v-1.56c0-2.28-1.398-3.56-3.959-3.56c-2.16,0-3.84,0.399-5.479,1.319l-1.6-3.119
		c2-1.24,4.238-1.88,7.199-1.88c4.678,0,7.877,2.279,7.877,7.039v14.397H1257.24z M1257.24,541.907
		c-1.119-0.56-2.559-0.919-4.799-0.919c-2.639,0-4.318,1.199-4.318,3.119c0,2.079,1.318,3.479,4.039,3.479
		c2.199,0,4.119-1.36,5.078-2.68V541.907z"/>
	<path d="M1277.24,550.347c-1,0.56-2.398,0.959-4.039,0.959c-2.92,0-4.719-1.799-4.719-5.559v-12.118h-3v-3.759h3v-5.999l4.039-2.16
		v8.159h5.199v3.759h-5.199v11.398c0,1.96,0.641,2.52,2.16,2.52c1.08,0,2.279-0.4,3.039-0.84L1277.24,550.347z"/>
	<path d="M1290.762,551.306c-5.279,0-9.238-4.358-9.238-10.918c0-6.879,4.078-10.958,9.357-10.958c5.359,0,9.359,4.279,9.359,10.838
		C1300.24,547.227,1296.16,551.306,1290.762,551.306z M1290.721,533.35c-3.119,0-5.039,2.759-5.039,6.918
		c0,4.6,2.119,7.119,5.24,7.119c3.119,0,5.158-3.159,5.158-6.999C1296.08,536.108,1294.041,533.35,1290.721,533.35z"/>
</g>
<g>
	<path d="M643.709,613.435l-2.359-6.639h-11.197l-2.32,6.639h-4.359l10.078-27.995h4.439l10.199,27.995H643.709z M637.83,596.598
		c-0.68-2-1.799-5.239-2.119-6.439c-0.32,1.2-1.32,4.399-2.039,6.479l-2.24,6.398h8.639L637.83,596.598z"/>
	<path d="M679.63,601.996l5.719,11.438h-4.84l-5.559-11.078h-6.319v11.078h-4.119v-27.995h12.278c4.879,0,8.998,2.6,8.998,8.358
		C685.788,598.277,683.429,601.037,679.63,601.996z M676.79,589.398h-8.159v8.999h8.159c2.799,0,4.76-1.44,4.76-4.479
		C681.55,590.998,679.63,589.398,676.79,589.398z"/>
	<path d="M707.589,604.396h-13.877c0.439,4.039,2.719,5.759,5.278,5.759c1.76,0,3.16-0.64,4.56-1.68l2.439,2.64
		c-1.84,1.76-4.039,2.759-7.238,2.759c-4.92,0-9.079-3.959-9.079-10.918c0-7.118,3.759-10.958,9.198-10.958
		c5.96,0,8.839,4.839,8.839,10.519C707.709,603.276,707.629,603.956,707.589,604.396z M698.591,595.718
		c-2.76,0-4.439,1.92-4.799,5.279h9.758C703.35,598.117,701.99,595.718,698.591,595.718z"/>
	<path d="M725.469,613.435v-2c-1.52,1.4-3.28,2.439-5.479,2.439c-4.519,0-8.078-3.279-8.078-11.277
		c0-7.199,3.92-10.599,8.279-10.599c2.119,0,4.118,1.12,5.278,2.399v-7.998l4.08-2.12v29.155H725.469z M725.508,598.557
		c-0.92-1.239-2.839-2.759-4.919-2.759c-2.959,0-4.559,2.239-4.559,6.679c0,5.279,1.68,7.599,4.719,7.599
		c1.961,0,3.681-1.32,4.759-2.68V598.557z"/>
	<path d="M752.548,604.396h-13.877c0.439,4.039,2.719,5.759,5.278,5.759c1.76,0,3.16-0.64,4.56-1.68l2.439,2.64
		c-1.84,1.76-4.039,2.759-7.238,2.759c-4.92,0-9.079-3.959-9.079-10.918c0-7.118,3.76-10.958,9.199-10.958
		c5.959,0,8.838,4.839,8.838,10.519C752.668,603.276,752.588,603.956,752.548,604.396z M743.55,595.718
		c-2.76,0-4.439,1.92-4.799,5.279h9.758C748.309,598.117,746.949,595.718,743.55,595.718z"/>
	<path d="M790.106,613.435v-14.798c0-1.68,0.04-4.119,0.08-4.919c-0.32,0.8-1.12,2.8-1.8,4.399l-6.799,15.757l-6.719-15.757
		c-0.68-1.6-1.479-3.6-1.8-4.399c0.04,0.8,0.08,3.239,0.08,4.919v14.798h-3.96v-27.995h4.319l6.279,14.917
		c0.68,1.6,1.56,3.64,1.92,4.8c0.399-1.16,1.199-3.16,1.88-4.8l6.158-14.917h4.479v27.995H790.106z"/>
	<path d="M803.19,589.719c-1.48,0-2.68-1.2-2.68-2.64c0-1.479,1.199-2.68,2.68-2.68c1.439,0,2.639,1.2,2.639,2.68
		C805.829,588.519,804.63,589.719,803.19,589.719z M801.11,613.435v-20.996h4.119v20.996H801.11z"/>
	<path d="M824.268,613.435v-11.878c0-4.239-1.6-5.759-4.319-5.759c-2.759,0-4.319,1.959-4.319,5.358v12.278h-4.119v-20.996h4.119
		v1.999c1.04-1.52,3.12-2.439,5.279-2.439c4.879,0,7.479,3.199,7.479,9.398v12.038H824.268z"/>
	<path d="M846.348,613.435v-2.08c-1.439,1.44-3.479,2.52-5.759,2.52c-3.399,0-7.279-1.919-7.279-7.078c0-4.68,3.6-6.799,8.359-6.799
		c1.959,0,3.519,0.279,4.679,0.8v-1.56c0-2.28-1.399-3.56-3.959-3.56c-2.16,0-3.84,0.399-5.479,1.319l-1.6-3.119
		c2-1.24,4.239-1.88,7.199-1.88c4.679,0,7.878,2.279,7.878,7.039v14.397H846.348z M846.348,604.476
		c-1.12-0.56-2.56-0.919-4.799-0.919c-2.64,0-4.319,1.199-4.319,3.119c0,2.079,1.319,3.479,4.039,3.479
		c2.199,0,4.119-1.36,5.079-2.68V604.476z"/>
	<path d="M863.108,613.874c-2.839,0-5.919-1.119-8.038-2.679l1.879-3.12c1.96,1.36,4.16,2.08,6.119,2.08c2.6,0,3.84-0.84,3.84-2.319
		c0-1.601-1.84-2.36-4.88-3.52c-4.519-1.76-6.158-3.279-6.158-6.6c0-3.759,2.959-5.719,7.158-5.719c2.64,0,5.239,0.96,7.119,2.319
		l-1.8,3.16c-1.72-1.2-3.439-1.8-5.439-1.8c-1.999,0-2.879,0.8-2.879,1.92c0,1.039,0.72,1.799,3.879,3.039
		c4.68,1.8,7.079,3.079,7.079,7.039C870.987,612.314,867.228,613.874,863.108,613.874z"/>
</g>
<g>
	<path fill="#A31202" d="M929.375,603.153h-7.318v10.438h-4.119v-27.995h11.717c5.16,0,9,2.959,9,8.759
		C938.654,600.114,934.814,603.153,929.375,603.153z M929.574,589.556h-7.518v9.639h7.518c3.201,0,4.801-1.84,4.801-4.839
		C934.375,591.275,932.494,589.556,929.574,589.556z"/>
	<path fill="#A31202" d="M954.855,596.955c-0.881-0.48-1.801-0.761-3.16-0.761c-2.6,0-4.119,1.84-4.119,5.399v11.998h-4.119v-20.996
		h4.119v1.999c0.961-1.399,2.721-2.439,4.799-2.439c1.68,0,2.721,0.32,3.561,0.88L954.855,596.955z"/>
	<path fill="#A31202" d="M967.415,614.031c-5.278,0-9.237-4.358-9.237-10.918c0-6.879,4.078-10.958,9.358-10.958
		c5.359,0,9.357,4.279,9.357,10.838C976.894,609.952,972.815,614.031,967.415,614.031z M967.376,596.075
		c-3.119,0-5.04,2.759-5.04,6.918c0,4.6,2.12,7.119,5.239,7.119s5.16-3.159,5.16-6.999
		C972.735,598.834,970.694,596.075,967.376,596.075z"/>
	<path fill="#A31202" d="M988.776,621.311l-1.4-3.119c5.918-0.28,7.199-1.88,7.199-6.239v-0.36c-1.52,1.4-3.24,2.439-5.439,2.439
		c-4.479,0-8.078-3.279-8.078-11.277c0-7.199,3.959-10.599,8.277-10.599c2.121,0,4.119,1.12,5.24,2.399v-1.959h4.119v18.996
		C998.694,617.991,996.374,621.07,988.776,621.311z M994.655,598.714c-0.92-1.239-2.84-2.759-4.92-2.759
		c-2.959,0-4.559,2.239-4.559,6.679c0,5.279,1.68,7.599,4.719,7.599c1.959,0,3.68-1.32,4.76-2.68V598.714z"/>
	<path fill="#A31202" d="M1016.175,596.955c-0.881-0.48-1.801-0.761-3.16-0.761c-2.6,0-4.119,1.84-4.119,5.399v11.998h-4.119
		v-20.996h4.119v1.999c0.961-1.399,2.721-2.439,4.799-2.439c1.68,0,2.721,0.32,3.561,0.88L1016.175,596.955z"/>
	<path fill="#A31202" d="M1032.136,613.592v-2.08c-1.441,1.44-3.48,2.52-5.76,2.52c-3.4,0-7.279-1.919-7.279-7.078
		c0-4.68,3.6-6.799,8.359-6.799c1.959,0,3.52,0.279,4.68,0.8v-1.56c0-2.28-1.4-3.56-3.961-3.56c-2.158,0-3.838,0.399-5.479,1.319
		l-1.6-3.119c2-1.24,4.24-1.88,7.199-1.88c4.68,0,7.879,2.279,7.879,7.039v14.397H1032.136z M1032.136,604.633
		c-1.121-0.56-2.561-0.919-4.801-0.919c-2.639,0-4.318,1.199-4.318,3.119c0,2.079,1.32,3.479,4.039,3.479
		c2.199,0,4.119-1.36,5.08-2.68V604.633z"/>
	<path fill="#A31202" d="M1066.492,613.592v-11.878c0-4.239-1.319-5.759-4.04-5.759c-2.758,0-4.039,1.959-4.039,5.358v12.278h-4.119
		v-11.878c0-4.239-1.32-5.759-4.039-5.759c-2.76,0-4.039,1.959-4.039,5.358v12.278h-4.119v-20.996h4.119v1.999
		c1.039-1.52,2.84-2.439,4.998-2.439c2.84,0,4.641,1.08,5.76,3.08c1.52-1.88,3.16-3.08,6.439-3.08c4.878,0,7.198,3.199,7.198,9.398
		v12.038H1066.492z"/>
	<path fill="#A31202" d="M1088.574,613.592v-2.08c-1.439,1.44-3.479,2.52-5.76,2.52c-3.398,0-7.277-1.919-7.277-7.078
		c0-4.68,3.6-6.799,8.357-6.799c1.961,0,3.52,0.279,4.68,0.8v-1.56c0-2.28-1.4-3.56-3.959-3.56c-2.16,0-3.84,0.399-5.479,1.319
		l-1.6-3.119c1.998-1.24,4.238-1.88,7.197-1.88c4.68,0,7.879,2.279,7.879,7.039v14.397H1088.574z M1088.574,604.633
		c-1.119-0.56-2.559-0.919-4.799-0.919c-2.641,0-4.32,1.199-4.32,3.119c0,2.079,1.32,3.479,4.041,3.479
		c2.199,0,4.119-1.36,5.078-2.68V604.633z"/>
	<path fill="#A31202" d="M1105.334,614.031c-2.838,0-5.918-1.119-8.037-2.679l1.879-3.12c1.959,1.36,4.16,2.08,6.119,2.08
		c2.6,0,3.84-0.84,3.84-2.319c0-1.601-1.84-2.36-4.881-3.52c-4.518-1.76-6.158-3.279-6.158-6.6c0-3.759,2.959-5.719,7.158-5.719
		c2.641,0,5.24,0.96,7.119,2.319l-1.799,3.16c-1.721-1.2-3.439-1.8-5.439-1.8s-2.879,0.8-2.879,1.92
		c0,1.039,0.719,1.799,3.879,3.039c4.68,1.8,7.078,3.079,7.078,7.039C1113.213,612.472,1109.453,614.031,1105.334,614.031z"/>
</g>
<g>
	<path d="M1172,614.234c-7.238,0-11.838-5.959-11.838-14.438s4.6-14.438,11.838-14.438c4.559,0,7.6,1.84,9.518,5.239l-3.719,2.319
		c-1.439-2.279-2.92-3.359-5.799-3.359c-4.879,0-7.52,3.96-7.52,10.238c0,6.279,2.641,10.238,7.52,10.238
		c2.92,0,4.719-1.199,6.158-3.479l3.48,2.32C1179.639,612.315,1176.24,614.234,1172,614.234z"/>
	<path d="M1194.521,614.234c-5.279,0-9.238-4.358-9.238-10.918c0-6.879,4.078-10.958,9.357-10.958c5.359,0,9.359,4.279,9.359,10.838
		C1204,610.155,1199.92,614.234,1194.521,614.234z M1194.48,596.278c-3.119,0-5.039,2.759-5.039,6.918c0,4.6,2.119,7.119,5.24,7.119
		c3.119,0,5.158-3.159,5.158-6.999C1199.84,599.037,1197.801,596.278,1194.48,596.278z"/>
	<path d="M1221.84,613.795v-11.878c0-4.239-1.6-5.759-4.318-5.759c-2.76,0-4.32,1.959-4.32,5.358v12.278h-4.119v-20.996h4.119v1.999
		c1.041-1.52,3.119-2.439,5.279-2.439c4.879,0,7.479,3.199,7.479,9.398v12.038H1221.84z"/>
	<path d="M1241.721,613.275c-1,0.56-2.398,0.959-4.039,0.959c-2.92,0-4.719-1.799-4.719-5.559v-12.118h-3v-3.759h3V586.8l4.039-2.16
		v8.159h5.199v3.759h-5.199v11.398c0,1.96,0.641,2.52,2.16,2.52c1.08,0,2.279-0.4,3.039-0.84L1241.721,613.275z"/>
	<path d="M1259.24,613.795v-2.08c-1.439,1.44-3.479,2.52-5.758,2.52c-3.4,0-7.279-1.919-7.279-7.078c0-4.68,3.6-6.799,8.359-6.799
		c1.959,0,3.518,0.279,4.678,0.8v-1.56c0-2.28-1.398-3.56-3.959-3.56c-2.16,0-3.84,0.399-5.479,1.319l-1.6-3.119
		c2-1.24,4.238-1.88,7.199-1.88c4.678,0,7.877,2.279,7.877,7.039v14.397H1259.24z M1259.24,604.836
		c-1.119-0.56-2.559-0.919-4.799-0.919c-2.639,0-4.318,1.199-4.318,3.119c0,2.079,1.318,3.479,4.039,3.479
		c2.199,0,4.119-1.36,5.078-2.68V604.836z"/>
	<path d="M1279.24,613.275c-1,0.56-2.398,0.959-4.039,0.959c-2.92,0-4.719-1.799-4.719-5.559v-12.118h-3v-3.759h3V586.8l4.039-2.16
		v8.159h5.199v3.759h-5.199v11.398c0,1.96,0.641,2.52,2.16,2.52c1.08,0,2.279-0.4,3.039-0.84L1279.24,613.275z"/>
	<path d="M1292.762,614.234c-5.279,0-9.238-4.358-9.238-10.918c0-6.879,4.078-10.958,9.357-10.958c5.359,0,9.359,4.279,9.359,10.838
		C1302.24,610.155,1298.16,614.234,1292.762,614.234z M1292.721,596.278c-3.119,0-5.039,2.759-5.039,6.918
		c0,4.6,2.119,7.119,5.24,7.119c3.119,0,5.158-3.159,5.158-6.999C1298.08,599.037,1296.041,596.278,1292.721,596.278z"/>
</g>
<g>
	<path d="M643.709,677.954l-2.359-6.639h-11.197l-2.32,6.639h-4.359l10.078-27.995h4.439l10.199,27.995H643.709z M637.83,661.117
		c-0.68-2-1.799-5.239-2.119-6.439c-0.32,1.2-1.32,4.399-2.039,6.479l-2.24,6.398h8.639L637.83,661.117z"/>
	<path d="M679.63,666.516l5.719,11.438h-4.84l-5.559-11.078h-6.319v11.078h-4.119v-27.995h12.278c4.879,0,8.998,2.6,8.998,8.358
		C685.788,662.797,683.429,665.557,679.63,666.516z M676.79,653.918h-8.159v8.999h8.159c2.799,0,4.76-1.44,4.76-4.479
		C681.55,655.518,679.63,653.918,676.79,653.918z"/>
	<path d="M707.589,668.916h-13.877c0.439,4.039,2.719,5.759,5.278,5.759c1.76,0,3.16-0.64,4.56-1.68l2.439,2.64
		c-1.84,1.76-4.039,2.759-7.238,2.759c-4.92,0-9.079-3.959-9.079-10.918c0-7.118,3.759-10.958,9.198-10.958
		c5.96,0,8.839,4.839,8.839,10.519C707.709,667.796,707.629,668.476,707.589,668.916z M698.591,660.237
		c-2.76,0-4.439,1.92-4.799,5.279h9.758C703.35,662.637,701.99,660.237,698.591,660.237z"/>
	<path d="M725.469,677.954v-2c-1.52,1.4-3.28,2.439-5.479,2.439c-4.519,0-8.078-3.279-8.078-11.277
		c0-7.199,3.92-10.599,8.279-10.599c2.119,0,4.118,1.12,5.278,2.399v-7.998l4.08-2.12v29.155H725.469z M725.508,663.076
		c-0.92-1.239-2.839-2.759-4.919-2.759c-2.959,0-4.559,2.239-4.559,6.679c0,5.279,1.68,7.599,4.719,7.599
		c1.961,0,3.681-1.32,4.759-2.68V663.076z"/>
	<path d="M752.548,668.916h-13.877c0.439,4.039,2.719,5.759,5.278,5.759c1.76,0,3.16-0.64,4.56-1.68l2.439,2.64
		c-1.84,1.76-4.039,2.759-7.238,2.759c-4.92,0-9.079-3.959-9.079-10.918c0-7.118,3.76-10.958,9.199-10.958
		c5.959,0,8.838,4.839,8.838,10.519C752.668,667.796,752.588,668.476,752.548,668.916z M743.55,660.237
		c-2.76,0-4.439,1.92-4.799,5.279h9.758C748.309,662.637,746.949,660.237,743.55,660.237z"/>
	<path d="M790.106,677.954v-14.798c0-1.68,0.04-4.119,0.08-4.919c-0.32,0.8-1.12,2.8-1.8,4.399l-6.799,15.757l-6.719-15.757
		c-0.68-1.6-1.479-3.6-1.8-4.399c0.04,0.8,0.08,3.239,0.08,4.919v14.798h-3.96v-27.995h4.319l6.279,14.917
		c0.68,1.6,1.56,3.64,1.92,4.8c0.399-1.16,1.199-3.16,1.88-4.8l6.158-14.917h4.479v27.995H790.106z"/>
	<path d="M803.19,654.238c-1.48,0-2.68-1.2-2.68-2.64c0-1.479,1.199-2.68,2.68-2.68c1.439,0,2.639,1.2,2.639,2.68
		C805.829,653.038,804.63,654.238,803.19,654.238z M801.11,677.954v-20.996h4.119v20.996H801.11z"/>
	<path d="M824.268,677.954v-11.878c0-4.239-1.6-5.759-4.319-5.759c-2.759,0-4.319,1.959-4.319,5.358v12.278h-4.119v-20.996h4.119
		v1.999c1.04-1.52,3.12-2.439,5.279-2.439c4.879,0,7.479,3.199,7.479,9.398v12.038H824.268z"/>
	<path d="M846.348,677.954v-2.08c-1.439,1.44-3.479,2.52-5.759,2.52c-3.399,0-7.279-1.919-7.279-7.078c0-4.68,3.6-6.799,8.359-6.799
		c1.959,0,3.519,0.279,4.679,0.8v-1.56c0-2.28-1.399-3.56-3.959-3.56c-2.16,0-3.84,0.399-5.479,1.319l-1.6-3.119
		c2-1.24,4.239-1.88,7.199-1.88c4.679,0,7.878,2.279,7.878,7.039v14.397H846.348z M846.348,668.995
		c-1.12-0.56-2.56-0.919-4.799-0.919c-2.64,0-4.319,1.199-4.319,3.119c0,2.079,1.319,3.479,4.039,3.479
		c2.199,0,4.119-1.36,5.079-2.68V668.995z"/>
	<path d="M863.108,678.394c-2.839,0-5.919-1.119-8.038-2.679l1.879-3.12c1.96,1.36,4.16,2.08,6.119,2.08c2.6,0,3.84-0.84,3.84-2.319
		c0-1.601-1.84-2.36-4.88-3.52c-4.519-1.76-6.158-3.279-6.158-6.6c0-3.759,2.959-5.719,7.158-5.719c2.64,0,5.239,0.96,7.119,2.319
		l-1.8,3.16c-1.72-1.2-3.439-1.8-5.439-1.8c-1.999,0-2.879,0.8-2.879,1.92c0,1.039,0.72,1.799,3.879,3.039
		c4.68,1.8,7.079,3.079,7.079,7.039C870.987,676.834,867.228,678.394,863.108,678.394z"/>
</g>
<g>
	<path d="M929.375,667.673h-7.318v10.438h-4.119v-27.995h11.717c5.16,0,9,2.959,9,8.759
		C938.654,664.634,934.814,667.673,929.375,667.673z M929.574,654.075h-7.518v9.639h7.518c3.201,0,4.801-1.84,4.801-4.839
		C934.375,655.795,932.494,654.075,929.574,654.075z"/>
	<path d="M954.855,661.475c-0.881-0.48-1.801-0.761-3.16-0.761c-2.6,0-4.119,1.84-4.119,5.399v11.998h-4.119v-20.996h4.119v1.999
		c0.961-1.399,2.721-2.439,4.799-2.439c1.68,0,2.721,0.32,3.561,0.88L954.855,661.475z"/>
	<path d="M967.415,678.551c-5.278,0-9.237-4.358-9.237-10.918c0-6.879,4.078-10.958,9.358-10.958c5.359,0,9.357,4.279,9.357,10.838
		C976.894,674.472,972.815,678.551,967.415,678.551z M967.376,660.595c-3.119,0-5.04,2.759-5.04,6.918c0,4.6,2.12,7.119,5.239,7.119
		s5.16-3.159,5.16-6.999C972.735,663.354,970.694,660.595,967.376,660.595z"/>
	<path d="M988.776,685.83l-1.4-3.119c5.918-0.28,7.199-1.88,7.199-6.239v-0.36c-1.52,1.4-3.24,2.439-5.439,2.439
		c-4.479,0-8.078-3.279-8.078-11.277c0-7.199,3.959-10.599,8.277-10.599c2.121,0,4.119,1.12,5.24,2.399v-1.959h4.119v18.996
		C998.694,682.511,996.374,685.59,988.776,685.83z M994.655,663.233c-0.92-1.239-2.84-2.759-4.92-2.759
		c-2.959,0-4.559,2.239-4.559,6.679c0,5.279,1.68,7.599,4.719,7.599c1.959,0,3.68-1.32,4.76-2.68V663.233z"/>
	<path d="M1016.175,661.475c-0.881-0.48-1.801-0.761-3.16-0.761c-2.6,0-4.119,1.84-4.119,5.399v11.998h-4.119v-20.996h4.119v1.999
		c0.961-1.399,2.721-2.439,4.799-2.439c1.68,0,2.721,0.32,3.561,0.88L1016.175,661.475z"/>
	<path d="M1032.136,678.111v-2.08c-1.441,1.44-3.48,2.52-5.76,2.52c-3.4,0-7.279-1.919-7.279-7.078c0-4.68,3.6-6.799,8.359-6.799
		c1.959,0,3.52,0.279,4.68,0.8v-1.56c0-2.28-1.4-3.56-3.961-3.56c-2.158,0-3.838,0.399-5.479,1.319l-1.6-3.119
		c2-1.24,4.24-1.88,7.199-1.88c4.68,0,7.879,2.279,7.879,7.039v14.397H1032.136z M1032.136,669.152
		c-1.121-0.56-2.561-0.919-4.801-0.919c-2.639,0-4.318,1.199-4.318,3.119c0,2.079,1.32,3.479,4.039,3.479
		c2.199,0,4.119-1.36,5.08-2.68V669.152z"/>
	<path d="M1066.492,678.111v-11.878c0-4.239-1.319-5.759-4.04-5.759c-2.758,0-4.039,1.959-4.039,5.358v12.278h-4.119v-11.878
		c0-4.239-1.32-5.759-4.039-5.759c-2.76,0-4.039,1.959-4.039,5.358v12.278h-4.119v-20.996h4.119v1.999
		c1.039-1.52,2.84-2.439,4.998-2.439c2.84,0,4.641,1.08,5.76,3.08c1.52-1.88,3.16-3.08,6.439-3.08c4.878,0,7.198,3.199,7.198,9.398
		v12.038H1066.492z"/>
	<path d="M1088.574,678.111v-2.08c-1.439,1.44-3.479,2.52-5.76,2.52c-3.398,0-7.277-1.919-7.277-7.078c0-4.68,3.6-6.799,8.357-6.799
		c1.961,0,3.52,0.279,4.68,0.8v-1.56c0-2.28-1.4-3.56-3.959-3.56c-2.16,0-3.84,0.399-5.479,1.319l-1.6-3.119
		c1.998-1.24,4.238-1.88,7.197-1.88c4.68,0,7.879,2.279,7.879,7.039v14.397H1088.574z M1088.574,669.152
		c-1.119-0.56-2.559-0.919-4.799-0.919c-2.641,0-4.32,1.199-4.32,3.119c0,2.079,1.32,3.479,4.041,3.479
		c2.199,0,4.119-1.36,5.078-2.68V669.152z"/>
	<path d="M1105.334,678.551c-2.838,0-5.918-1.119-8.037-2.679l1.879-3.12c1.959,1.36,4.16,2.08,6.119,2.08
		c2.6,0,3.84-0.84,3.84-2.319c0-1.601-1.84-2.36-4.881-3.52c-4.518-1.76-6.158-3.279-6.158-6.6c0-3.759,2.959-5.719,7.158-5.719
		c2.641,0,5.24,0.96,7.119,2.319l-1.799,3.16c-1.721-1.2-3.439-1.8-5.439-1.8s-2.879,0.8-2.879,1.92
		c0,1.039,0.719,1.799,3.879,3.039c4.68,1.8,7.078,3.079,7.078,7.039C1113.213,676.991,1109.453,678.551,1105.334,678.551z"/>
</g>
<g>
	<path fill="#A31202" d="M1172,678.754c-7.238,0-11.838-5.959-11.838-14.438s4.6-14.438,11.838-14.438c4.559,0,7.6,1.84,9.518,5.239
		l-3.719,2.319c-1.439-2.279-2.92-3.359-5.799-3.359c-4.879,0-7.52,3.96-7.52,10.238c0,6.279,2.641,10.238,7.52,10.238
		c2.92,0,4.719-1.199,6.158-3.479l3.48,2.32C1179.639,676.835,1176.24,678.754,1172,678.754z"/>
	<path fill="#A31202" d="M1194.521,678.754c-5.279,0-9.238-4.358-9.238-10.918c0-6.879,4.078-10.958,9.357-10.958
		c5.359,0,9.359,4.279,9.359,10.838C1204,674.675,1199.92,678.754,1194.521,678.754z M1194.48,660.798
		c-3.119,0-5.039,2.759-5.039,6.918c0,4.6,2.119,7.119,5.24,7.119c3.119,0,5.158-3.159,5.158-6.999
		C1199.84,663.557,1197.801,660.798,1194.48,660.798z"/>
	<path fill="#A31202" d="M1221.84,678.314v-11.878c0-4.239-1.6-5.759-4.318-5.759c-2.76,0-4.32,1.959-4.32,5.358v12.278h-4.119
		v-20.996h4.119v1.999c1.041-1.52,3.119-2.439,5.279-2.439c4.879,0,7.479,3.199,7.479,9.398v12.038H1221.84z"/>
	<path fill="#A31202" d="M1241.721,677.795c-1,0.56-2.398,0.959-4.039,0.959c-2.92,0-4.719-1.799-4.719-5.559v-12.118h-3v-3.759h3
		v-5.999l4.039-2.16v8.159h5.199v3.759h-5.199v11.398c0,1.96,0.641,2.52,2.16,2.52c1.08,0,2.279-0.4,3.039-0.84L1241.721,677.795z"
		/>
	<path fill="#A31202" d="M1259.24,678.314v-2.08c-1.439,1.44-3.479,2.52-5.758,2.52c-3.4,0-7.279-1.919-7.279-7.078
		c0-4.68,3.6-6.799,8.359-6.799c1.959,0,3.518,0.279,4.678,0.8v-1.56c0-2.28-1.398-3.56-3.959-3.56c-2.16,0-3.84,0.399-5.479,1.319
		l-1.6-3.119c2-1.24,4.238-1.88,7.199-1.88c4.678,0,7.877,2.279,7.877,7.039v14.397H1259.24z M1259.24,669.355
		c-1.119-0.56-2.559-0.919-4.799-0.919c-2.639,0-4.318,1.199-4.318,3.119c0,2.079,1.318,3.479,4.039,3.479
		c2.199,0,4.119-1.36,5.078-2.68V669.355z"/>
	<path fill="#A31202" d="M1279.24,677.795c-1,0.56-2.398,0.959-4.039,0.959c-2.92,0-4.719-1.799-4.719-5.559v-12.118h-3v-3.759h3
		v-5.999l4.039-2.16v8.159h5.199v3.759h-5.199v11.398c0,1.96,0.641,2.52,2.16,2.52c1.08,0,2.279-0.4,3.039-0.84L1279.24,677.795z"/>
	<path fill="#A31202" d="M1292.762,678.754c-5.279,0-9.238-4.358-9.238-10.918c0-6.879,4.078-10.958,9.357-10.958
		c5.359,0,9.359,4.279,9.359,10.838C1302.24,674.675,1298.16,678.754,1292.762,678.754z M1292.721,660.798
		c-3.119,0-5.039,2.759-5.039,6.918c0,4.6,2.119,7.119,5.24,7.119c3.119,0,5.158-3.159,5.158-6.999
		C1298.08,663.557,1296.041,660.798,1292.721,660.798z"/>
</g>
<g>
	<rect x="705.928" y="785.85" fill="#A31202" width="43.242" height="35.277"/>
	<g>
		<g>
			<path fill="#A31202" d="M717.742,834.705c-1.727,0-3.217-0.742-4.215-1.912l1.268-1.232c0.799,0.859,1.965,1.402,3.08,1.402
				c1.66,0,2.457-0.576,2.457-1.725c0-0.914-0.693-1.371-2.676-1.965c-2.504-0.746-3.705-1.369-3.705-3.486
				c0-2.047,1.727-3.301,3.908-3.301c1.607,0,2.826,0.594,3.877,1.609l-1.252,1.27c-0.746-0.762-1.592-1.135-2.76-1.135
				c-1.387,0-1.98,0.678-1.98,1.473c0,0.83,0.543,1.234,2.59,1.846c2.336,0.711,3.789,1.455,3.789,3.568
				C722.123,833.252,720.77,834.705,717.742,834.705z"/>
			<path fill="#A31202" d="M729.455,834.52v-0.879c-0.611,0.609-1.473,1.064-2.438,1.064c-1.439,0-3.08-0.811-3.08-2.994
				c0-1.98,1.521-2.875,3.537-2.875c0.83,0,1.486,0.117,1.98,0.334v-0.656c0-0.965-0.594-1.508-1.678-1.508
				c-0.914,0-1.623,0.168-2.318,0.561l-0.678-1.32c0.85-0.525,1.795-0.797,3.047-0.797c1.982,0,3.334,0.963,3.334,2.979v6.092
				H729.455z M729.455,830.729c-0.475-0.238-1.082-0.389-2.031-0.389c-1.117,0-1.83,0.51-1.83,1.32c0,0.879,0.561,1.471,1.713,1.471
				c0.928,0,1.74-0.572,2.148-1.133V830.729z"/>
			<path fill="#A31202" d="M734.631,824.486c-0.623,0-1.133-0.51-1.133-1.119c0-0.627,0.51-1.133,1.133-1.133
				c0.611,0,1.119,0.506,1.119,1.133C735.75,823.977,735.242,824.486,734.631,824.486z M733.754,834.52v-8.885h1.742v8.885H733.754z
				"/>
			<path fill="#A31202" d="M742.975,827.479c-0.369-0.201-0.76-0.32-1.336-0.32c-1.1,0-1.744,0.779-1.744,2.285v5.076h-1.742v-8.885
				h1.742v0.846c0.406-0.59,1.152-1.031,2.031-1.031c0.711,0,1.152,0.137,1.506,0.371L742.975,827.479z"/>
		</g>
	</g>
	<g>
		<path fill="#FFFFFF" stroke="#FFFFFF" stroke-miterlimit="10" d="M731.52,811.555l-1.82-3.137
			c-0.578-0.988-1.477-2.672-1.777-3.271c-0.275,0.6-1.176,2.236-1.773,3.271l-1.799,3.137h-2.834l5.002-8.32l-4.68-7.811h2.883
			l1.473,2.602c0.553,0.992,1.475,2.695,1.775,3.297c0.299-0.602,1.176-2.258,1.775-3.297l1.496-2.602h2.834l-4.676,7.789
			l4.998,8.342H731.52z"/>
	</g>
</g>
<g>
	<rect x="863.029" y="821.127" fill="#A31202" width="43.242" height="35.276"/>
	<g>
		<path fill="#A31202" d="M869.093,869.271h-1.736l-3.803-10.953h1.781l2.287,6.979c0.203,0.64,0.52,1.611,0.611,2.002
			c0.096-0.391,0.406-1.378,0.609-2.018l2.252-6.964h1.754L869.093,869.271z"/>
		<path fill="#A31202" d="M876.824,869.442c-2.064,0-3.615-1.705-3.615-4.271c0-2.691,1.598-4.287,3.662-4.287
			c2.096,0,3.662,1.676,3.662,4.24C880.533,867.847,878.937,869.442,876.824,869.442z M876.81,862.419
			c-1.223,0-1.975,1.078-1.975,2.705c0,1.801,0.832,2.785,2.051,2.785c1.221,0,2.02-1.236,2.02-2.738
			C878.906,863.497,878.107,862.419,876.81,862.419z"/>
		<path fill="#A31202" d="M882.599,869.271V858.71l1.613-0.845v11.406H882.599z"/>
		<path fill="#A31202" d="M890.595,869.067c-0.393,0.22-0.939,0.375-1.58,0.375c-1.143,0-1.85-0.702-1.85-2.174v-4.74h-1.17v-1.472
			h1.17v-2.347l1.584-0.845v3.191h2.033v1.472h-2.033v4.458c0,0.767,0.25,0.987,0.844,0.987c0.422,0,0.891-0.158,1.189-0.329
			L890.595,869.067z"/>
		<path fill="#A31202" d="M897.449,869.271v-0.813c-0.564,0.563-1.361,0.984-2.254,0.984c-1.328,0-2.846-0.751-2.846-2.77
			c0-1.829,1.408-2.66,3.268-2.66c0.768,0,1.379,0.111,1.832,0.313v-0.608c0-0.892-0.549-1.395-1.551-1.395
			c-0.846,0-1.502,0.156-2.141,0.516l-0.627-1.22c0.783-0.484,1.66-0.735,2.813-0.735c1.834,0,3.086,0.893,3.086,2.756v5.632
			H897.449z M897.449,865.767c-0.439-0.221-1-0.36-1.879-0.36c-1.031,0-1.689,0.469-1.689,1.22c0,0.814,0.516,1.363,1.582,1.363
			c0.861,0,1.611-0.533,1.986-1.049V865.767z"/>
		<path fill="#A31202" d="M905.804,862.762c-0.342-0.187-0.703-0.298-1.236-0.298c-1.016,0-1.611,0.723-1.611,2.113v4.694h-1.611
			v-8.215h1.611v0.782c0.375-0.547,1.064-0.955,1.879-0.955c0.658,0,1.064,0.126,1.389,0.344L905.804,862.762z"/>
	</g>
	<g>
		<path fill="none" stroke="#FFFFFF" stroke-width="3" stroke-miterlimit="10" d="M884.214,831.623c4.713,0,8.535,3.821,8.535,8.534
			c0,4.715-3.822,8.535-8.535,8.535c-4.717,0-8.535-3.82-8.535-8.535"/>
		<polygon fill="#FFFFFF" stroke="#FFFFFF" stroke-width="2" stroke-miterlimit="10" points="884.214,829.036 879.376,831.623 
			884.214,834.212 		"/>
	</g>
</g>
<g>
	<rect x="987.395" y="806.831" fill="#A31202" width="43.242" height="35.275"/>
	<g>
		<path fill="#FFFFFF" d="M1015.727,824.388c0-3.795-3.004-6.873-6.711-6.873c-0.52,0-1.027,0.061-1.514,0.174
			c-2.977,0.703-5.199,3.436-5.199,6.699c0,3.797,3.008,6.869,6.713,6.869C1012.723,831.257,1015.727,828.185,1015.727,824.388z"/>
		
			<ellipse fill="none" stroke="#FFFFFF" stroke-width="2" stroke-miterlimit="10" cx="1009.015" cy="824.388" rx="10.229" ry="10.475"/>
	</g>
	<g>
		<path fill="#A31202" d="M1004.994,856.417c-3.088,0-5.049-2.543-5.049-6.156c0-3.615,1.961-6.156,5.049-6.156
			c3.104,0,5.064,2.541,5.064,6.156C1010.059,853.874,1008.098,856.417,1004.994,856.417z M1004.994,845.896
			c-2.082,0-3.225,1.688-3.225,4.365c0,2.676,1.143,4.365,3.225,4.365c2.098,0,3.238-1.689,3.238-4.365
			C1008.232,847.583,1007.092,845.896,1004.994,845.896z"/>
		<path fill="#A31202" d="M1017.443,856.228l-1.979-4.449l-1.363,1.807v2.643h-1.756v-11.51l1.756-0.92v5.645
			c0,0.545-0.016,1.467-0.016,1.91c0.236-0.357,0.699-1.041,0.988-1.467l1.857-2.609h1.996l-2.27,3.002l2.697,5.949H1017.443z"/>
	</g>
</g>
</svg>
