<?xml version="1.0" encoding="utf-8"?>
<!-- Generator: Adobe Illustrator 16.0.0, SVG Export Plug-In . SVG Version: 6.00 Build 0)  -->
<!DOCTYPE svg PUBLIC "-//W3C//DTD SVG 1.1//EN" "http://www.w3.org/Graphics/SVG/1.1/DTD/svg11.dtd">
<svg version="1.1" id="Layer_1" xmlns="http://www.w3.org/2000/svg" xmlns:xlink="http://www.w3.org/1999/xlink" x="0px" y="0px"
	 width="1920px" height="1080px" viewBox="0 0 1920 1080" enable-background="new 0 0 1920 1080" xml:space="preserve">
<rect x="193.023" y="112.922" fill="#43D33C" width="1534.998" height="860"/>
<rect y="-0.006" fill="#43D33C" width="1919.998" height="1080"/>
<g>
	<rect x="1633.813" y="751.615" fill="none" stroke="#FFFFFF" stroke-miterlimit="10" width="45" height="36.104"/>
	<g>
		<g>
			<path fill="none" stroke="#FFFFFF" stroke-miterlimit="10" d="M1646.107,801.615c-1.797,0-3.346-0.76-4.385-1.956l1.318-1.263
				c0.83,0.88,2.045,1.436,3.205,1.436c1.729,0,2.557-0.589,2.557-1.765c0-0.936-0.723-1.403-2.783-2.011
				c-2.605-0.763-3.857-1.401-3.857-3.567c0-2.095,1.797-3.378,4.068-3.378c1.672,0,2.941,0.608,4.033,1.647l-1.301,1.299
				c-0.777-0.78-1.656-1.163-2.873-1.163c-1.443,0-2.061,0.694-2.061,1.508c0,0.849,0.564,1.263,2.693,1.888
				c2.432,0.729,3.943,1.49,3.943,3.654C1650.666,800.127,1649.26,801.615,1646.107,801.615z"/>
			<path fill="none" stroke="#FFFFFF" stroke-miterlimit="10" d="M1658.297,801.426v-0.9c-0.637,0.623-1.533,1.089-2.537,1.089
				c-1.498,0-3.205-0.83-3.205-3.064c0-2.027,1.584-2.943,3.682-2.943c0.863,0,1.547,0.121,2.061,0.343v-0.673
				c0-0.988-0.617-1.543-1.746-1.543c-0.951,0-1.689,0.173-2.412,0.574l-0.705-1.351c0.883-0.537,1.867-0.815,3.17-0.815
				c2.063,0,3.471,0.985,3.471,3.049v6.234H1658.297z M1658.297,797.546c-0.494-0.243-1.127-0.398-2.113-0.398
				c-1.164,0-1.904,0.521-1.904,1.352c0,0.9,0.582,1.506,1.781,1.506c0.967,0,1.811-0.587,2.236-1.161V797.546z"/>
			<path fill="none" stroke="#FFFFFF" stroke-miterlimit="10" d="M1663.684,791.156c-0.65,0-1.18-0.521-1.18-1.144
				c0-0.642,0.529-1.16,1.18-1.16c0.635,0,1.164,0.519,1.164,1.16C1664.848,790.635,1664.318,791.156,1663.684,791.156z
				 M1662.77,801.426v-9.094h1.814v9.094H1662.77z"/>
			<path fill="none" stroke="#FFFFFF" stroke-miterlimit="10" d="M1672.367,794.22c-0.387-0.207-0.791-0.328-1.391-0.328
				c-1.145,0-1.816,0.796-1.816,2.338v5.195h-1.813v-9.094h1.813v0.866c0.424-0.604,1.199-1.056,2.115-1.056
				c0.74,0,1.197,0.139,1.566,0.38L1672.367,794.22z"/>
		</g>
	</g>
	<g>
		<path fill="none" stroke="#FFFFFF" stroke-miterlimit="10" d="M1660.445,777.922l-1.895-3.209
			c-0.602-1.013-1.537-2.735-1.85-3.349c-0.285,0.614-1.225,2.289-1.844,3.349l-1.875,3.209h-2.947l5.203-8.514l-4.867-7.995h3
			l1.531,2.664c0.574,1.014,1.535,2.759,1.848,3.373c0.313-0.614,1.223-2.311,1.848-3.373l1.559-2.664h2.947l-4.865,7.973
			l5.201,8.537H1660.445z"/>
	</g>
</g>
<rect x="320" y="180" fill="#3D59D1" width="1280" height="720"/>
<rect y="732.013" fill="#75726D" width="1919.998" height="350"/>
<rect x="307.203" y="732.013" fill="#3B3D3B" width="1535" height="240"/>
<rect x="1677.842" y="949.802" fill="#CC2198" width="50" height="22"/>
<rect x="193.203" y="949.802" fill="#CC2198" width="50" height="22"/>
<rect x="193.203" y="732.013" fill="#F40B32" width="50" height="33"/>
<rect x="1678.203" y="732.013" fill="#F40B32" width="50" height="33"/>
<rect x="243.203" y="764.592" fill="#C1C9C1" width="1435" height="185"/>
<rect x="1667.199" y="821.969" fill="#B27D62" width="10" height="150"/>
<rect x="243.203" y="821.802" fill="#B27D62" width="10" height="150"/>
<rect x="528.203" y="821.802" fill="#B27D62" width="10" height="150"/>
<rect x="253.203" y="821.802" fill="#BA3E31" width="275" height="150"/>
<g>
	<rect x="773.203" y="764.592" fill="#CCCC32" width="145" height="40"/>
</g>
<rect x="918.201" y="764.809" fill="#7FB57F" width="550.002" height="40"/>
<g>
	<rect x="533.203" y="764.592" fill="#CCCC32" width="200" height="40"/>
</g>
<g>
	<rect x="243.203" y="764.592" fill="#CCCC32" width="250" height="40"/>
</g>
<g>
	<rect x="733.203" y="764.592" fill="#DD8C17" width="40" height="40"/>
</g>
<g>
	<rect x="493.203" y="764.592" fill="#DD8C17" width="40" height="40"/>
</g>
<rect x="1633.203" y="755.185" fill="#79A4E2" width="45" height="50"/>
<rect x="1578.203" y="755.185" fill="#79A4E2" width="45" height="50"/>
<rect x="1468.203" y="755.185" fill="#79A4E2" width="45" height="50"/>
<rect x="1523.203" y="755.185" fill="#79A4E2" width="45" height="50"/>
<rect x="1513.203" y="755.185" fill="#187261" width="10" height="50"/>
<rect x="1568.203" y="755.185" fill="#187261" width="10" height="50"/>
<rect x="1623.203" y="755.185" fill="#187261" width="10" height="50"/>
<rect x="1688.203" y="841.827" fill="#03FFCF" width="40" height="30"/>
<rect x="192.203" y="841.827" fill="#03FFCF" width="40" height="30"/>
<rect x="243.201" y="804.992" width="1434.998" height="17"/>
<rect x="-1873.946" y="100.92" fill="#43D33C" width="1534.998" height="860"/>
<rect x="-2066.97" y="-12.008" fill="#43D33C" width="1919.998" height="1080"/>
<g>
	<rect x="-433.157" y="739.614" fill="none" stroke="#FFFFFF" stroke-miterlimit="10" width="45" height="36.104"/>
	<g>
		<g>
			<path fill="none" stroke="#FFFFFF" stroke-miterlimit="10" d="M-420.862,789.614c-1.797,0-3.346-0.76-4.385-1.956l1.318-1.263
				c0.83,0.88,2.045,1.436,3.205,1.436c1.729,0,2.557-0.589,2.557-1.765c0-0.936-0.723-1.403-2.783-2.011
				c-2.605-0.763-3.857-1.401-3.857-3.567c0-2.095,1.797-3.378,4.068-3.378c1.672,0,2.941,0.608,4.033,1.647l-1.301,1.299
				c-0.777-0.78-1.656-1.163-2.873-1.163c-1.443,0-2.061,0.694-2.061,1.508c0,0.849,0.564,1.263,2.693,1.888
				c2.432,0.729,3.943,1.49,3.943,3.654C-416.304,788.126-417.71,789.614-420.862,789.614z"/>
			<path fill="none" stroke="#FFFFFF" stroke-miterlimit="10" d="M-408.673,789.425v-0.9c-0.637,0.623-1.533,1.089-2.537,1.089
				c-1.498,0-3.205-0.83-3.205-3.064c0-2.027,1.584-2.943,3.682-2.943c0.863,0,1.547,0.121,2.061,0.343v-0.673
				c0-0.988-0.617-1.543-1.746-1.543c-0.951,0-1.689,0.173-2.412,0.574l-0.705-1.351c0.883-0.537,1.867-0.815,3.17-0.815
				c2.063,0,3.471,0.985,3.471,3.049v6.234H-408.673z M-408.673,785.544c-0.494-0.243-1.127-0.398-2.113-0.398
				c-1.164,0-1.904,0.521-1.904,1.352c0,0.9,0.582,1.506,1.781,1.506c0.967,0,1.811-0.587,2.236-1.161V785.544z"/>
			<path fill="none" stroke="#FFFFFF" stroke-miterlimit="10" d="M-403.286,779.155c-0.65,0-1.18-0.521-1.18-1.144
				c0-0.642,0.529-1.16,1.18-1.16c0.635,0,1.164,0.519,1.164,1.16C-402.122,778.634-402.651,779.155-403.286,779.155z
				 M-404.2,789.425v-9.094h1.814v9.094H-404.2z"/>
			<path fill="none" stroke="#FFFFFF" stroke-miterlimit="10" d="M-394.603,782.219c-0.387-0.207-0.791-0.328-1.391-0.328
				c-1.145,0-1.816,0.796-1.816,2.338v5.195h-1.813v-9.094h1.813v0.866c0.424-0.604,1.199-1.056,2.115-1.056
				c0.74,0,1.197,0.139,1.566,0.38L-394.603,782.219z"/>
		</g>
	</g>
	<g>
		<path fill="none" stroke="#FFFFFF" stroke-miterlimit="10" d="M-406.524,765.92l-1.895-3.209c-0.602-1.013-1.537-2.735-1.85-3.349
			c-0.285,0.614-1.225,2.289-1.844,3.349l-1.875,3.209h-2.947l5.203-8.514l-4.867-7.995h3l1.531,2.664
			c0.574,1.014,1.535,2.759,1.848,3.373c0.313-0.614,1.223-2.311,1.848-3.373l1.559-2.664h2.947l-4.865,7.973l5.201,8.537H-406.524z
			"/>
	</g>
</g>
<rect x="-1746.97" y="167.999" fill="#3D59D1" width="1280" height="720"/>
<rect x="-2066.97" y="720.011" fill="#75726D" width="1919.998" height="350"/>
<rect x="-1873.767" y="720.011" fill="#3B3D3B" width="1535" height="240"/>
<rect x="-389.128" y="937.801" fill="#CC2198" width="50" height="22"/>
<rect x="-1873.767" y="937.801" fill="#CC2198" width="50" height="22"/>
<rect x="-1873.767" y="720.012" fill="#F40B32" width="50" height="33"/>
<rect x="-388.767" y="720.012" fill="#F40B32" width="50" height="33"/>
<rect x="-1823.767" y="752.59" fill="#C1C9C1" width="1435" height="185"/>
<rect x="-399.771" y="809.968" fill="#B27D62" width="10" height="150"/>
<rect x="-684.528" y="809.801" fill="#B27D62" width="10" height="150"/>
<rect x="-969.528" y="809.801" fill="#B27D62" width="10" height="150"/>
<rect x="-1253.767" y="810.801" fill="#B27D62" width="10" height="150"/>
<rect x="-1823.767" y="809.801" fill="#B27D62" width="10" height="150"/>
<rect x="-1538.767" y="809.801" fill="#B27D62" width="10" height="150"/>
<rect x="-674.528" y="809.801" fill="#BA3E31" width="275" height="150"/>
<rect x="-959.528" y="809.801" fill="#BA3E31" width="275" height="150"/>
<rect x="-1243.624" y="809.801" fill="#BA3E31" width="274.998" height="150"/>
<rect x="-1528.767" y="809.801" fill="#BA3E31" width="275" height="150"/>
<rect x="-1813.767" y="809.801" fill="#BA3E31" width="275" height="150"/>
<g>
	<rect x="-1293.767" y="752.59" fill="#CCCC32" width="145" height="40"/>
</g>
<rect x="-1148.769" y="752.807" fill="#7FB57F" width="550.002" height="40"/>
<g>
	<rect x="-1533.767" y="752.59" fill="#CCCC32" width="200" height="40"/>
</g>
<g>
	<rect x="-1823.767" y="752.59" fill="#CCCC32" width="250" height="40"/>
</g>
<g>
	<rect x="-1333.767" y="752.59" fill="#DD8C17" width="40" height="40"/>
</g>
<g>
	<rect x="-1573.767" y="752.59" fill="#DD8C17" width="40" height="40"/>
</g>
<rect x="-433.767" y="743.184" fill="#79A4E2" width="45" height="50"/>
<rect x="-488.767" y="743.184" fill="#79A4E2" width="45" height="50"/>
<rect x="-598.767" y="743.184" fill="#79A4E2" width="45" height="50"/>
<rect x="-543.767" y="743.184" fill="#79A4E2" width="45" height="50"/>
<rect x="-553.767" y="743.184" fill="#187261" width="10" height="50"/>
<rect x="-498.767" y="743.184" fill="#187261" width="10" height="50"/>
<rect x="-443.767" y="743.184" fill="#187261" width="10" height="50"/>
<rect x="-378.767" y="829.826" fill="#03FFCF" width="40" height="30"/>
<rect x="-1874.767" y="829.826" fill="#03FFCF" width="40" height="30"/>
<rect x="-1823.769" y="792.99" width="1434.998" height="17"/>
<rect x="-4038.129" y="100.92" fill="#43D33C" width="1534.998" height="860"/>
<rect x="-4231.152" y="-12.008" fill="#43D33C" width="1919.998" height="1080"/>
<g>
	<rect x="-2597.34" y="739.614" fill="none" stroke="#FFFFFF" stroke-miterlimit="10" width="45" height="36.104"/>
	<g>
		<g>
			<path fill="none" stroke="#FFFFFF" stroke-miterlimit="10" d="M-2585.045,789.614c-1.797,0-3.346-0.76-4.385-1.956l1.318-1.263
				c0.83,0.88,2.045,1.436,3.205,1.436c1.729,0,2.557-0.589,2.557-1.765c0-0.936-0.723-1.403-2.783-2.011
				c-2.605-0.763-3.857-1.401-3.857-3.567c0-2.095,1.797-3.378,4.068-3.378c1.672,0,2.941,0.608,4.033,1.647l-1.301,1.299
				c-0.777-0.78-1.656-1.163-2.873-1.163c-1.443,0-2.061,0.694-2.061,1.508c0,0.849,0.564,1.263,2.693,1.888
				c2.432,0.729,3.943,1.49,3.943,3.654C-2580.486,788.126-2581.893,789.614-2585.045,789.614z"/>
			<path fill="none" stroke="#FFFFFF" stroke-miterlimit="10" d="M-2572.855,789.425v-0.9c-0.637,0.623-1.533,1.089-2.537,1.089
				c-1.498,0-3.205-0.83-3.205-3.064c0-2.027,1.584-2.943,3.682-2.943c0.863,0,1.547,0.121,2.061,0.343v-0.673
				c0-0.988-0.617-1.543-1.746-1.543c-0.951,0-1.689,0.173-2.412,0.574l-0.705-1.351c0.883-0.537,1.867-0.815,3.17-0.815
				c2.063,0,3.471,0.985,3.471,3.049v6.234H-2572.855z M-2572.855,785.544c-0.494-0.243-1.127-0.398-2.113-0.398
				c-1.164,0-1.904,0.521-1.904,1.352c0,0.9,0.582,1.506,1.781,1.506c0.967,0,1.811-0.587,2.236-1.161V785.544z"/>
			<path fill="none" stroke="#FFFFFF" stroke-miterlimit="10" d="M-2567.469,779.155c-0.65,0-1.18-0.521-1.18-1.144
				c0-0.642,0.529-1.16,1.18-1.16c0.635,0,1.164,0.519,1.164,1.16C-2566.305,778.634-2566.834,779.155-2567.469,779.155z
				 M-2568.383,789.425v-9.094h1.814v9.094H-2568.383z"/>
			<path fill="none" stroke="#FFFFFF" stroke-miterlimit="10" d="M-2558.785,782.219c-0.387-0.207-0.791-0.328-1.391-0.328
				c-1.145,0-1.816,0.796-1.816,2.338v5.195h-1.813v-9.094h1.813v0.866c0.424-0.604,1.199-1.056,2.115-1.056
				c0.74,0,1.197,0.139,1.566,0.38L-2558.785,782.219z"/>
		</g>
	</g>
	<g>
		<path fill="none" stroke="#FFFFFF" stroke-miterlimit="10" d="M-2570.707,765.92l-1.895-3.209
			c-0.602-1.013-1.537-2.735-1.85-3.349c-0.285,0.614-1.225,2.289-1.844,3.349l-1.875,3.209h-2.947l5.203-8.514l-4.867-7.995h3
			l1.531,2.664c0.574,1.014,1.535,2.759,1.848,3.373c0.313-0.614,1.223-2.311,1.848-3.373l1.559-2.664h2.947l-4.865,7.973
			l5.201,8.537H-2570.707z"/>
	</g>
</g>
<rect x="-3911.152" y="167.999" fill="#3D59D1" width="1280" height="720"/>
<rect x="-4231.152" y="720.011" fill="#75726D" width="1919.998" height="350"/>
<rect x="-4037.949" y="720.011" fill="#3B3D3B" width="1535" height="240"/>
<rect x="-2553.311" y="937.801" fill="#CC2198" width="50" height="22"/>
<rect x="-4037.949" y="937.801" fill="#CC2198" width="50" height="22"/>
<rect x="-4037.949" y="720.012" fill="#F40B32" width="50" height="33"/>
<rect x="-2552.949" y="720.012" fill="#F40B32" width="50" height="33"/>
<rect x="-3987.949" y="752.59" fill="#C1C9C1" width="1435" height="185"/>
<rect x="-2562.953" y="809.968" fill="#B27D62" width="10" height="150"/>
<rect x="-3987.949" y="809.801" fill="#B27D62" width="10" height="150"/>
<g>
	<rect x="-3457.949" y="752.59" fill="#CCCC32" width="145" height="40"/>
</g>
<rect x="-3312.951" y="752.807" fill="#7FB57F" width="550.002" height="40"/>
<g>
	<rect x="-3697.949" y="752.59" fill="#CCCC32" width="200" height="40"/>
</g>
<g>
	<rect x="-3987.949" y="752.59" fill="#CCCC32" width="250" height="40"/>
</g>
<g>
	<rect x="-3497.949" y="752.59" fill="#DD8C17" width="40" height="40"/>
</g>
<g>
	<rect x="-3737.949" y="752.59" fill="#DD8C17" width="40" height="40"/>
</g>
<rect x="-2597.949" y="743.184" fill="#79A4E2" width="45" height="50"/>
<rect x="-2652.949" y="743.184" fill="#79A4E2" width="45" height="50"/>
<rect x="-2762.949" y="743.184" fill="#79A4E2" width="45" height="50"/>
<rect x="-2707.949" y="743.184" fill="#79A4E2" width="45" height="50"/>
<rect x="-2717.949" y="743.184" fill="#187261" width="10" height="50"/>
<rect x="-2662.949" y="743.184" fill="#187261" width="10" height="50"/>
<rect x="-2607.949" y="743.184" fill="#187261" width="10" height="50"/>
<rect x="-2542.949" y="829.826" fill="#03FFCF" width="40" height="30"/>
<rect x="-4038.949" y="829.826" fill="#03FFCF" width="40" height="30"/>
<rect x="-3987.951" y="793.99" width="1434.998" height="17"/>
<rect x="-6258.352" y="100.92" fill="#43D33C" width="1535" height="860"/>
<rect x="-6451.375" y="-12.008" fill="#43D33C" width="1920" height="1080"/>
<g>
	<rect x="-4817.561" y="739.614" fill="none" stroke="#FFFFFF" stroke-miterlimit="10" width="45" height="36.104"/>
	<g>
		<g>
			<path fill="none" stroke="#FFFFFF" stroke-miterlimit="10" d="M-4805.266,789.614c-1.797,0-3.347-0.76-4.386-1.956l1.319-1.263
				c0.83,0.88,2.044,1.436,3.205,1.436c1.728,0,2.557-0.589,2.557-1.765c0-0.936-0.723-1.403-2.784-2.011
				c-2.605-0.763-3.857-1.401-3.857-3.567c0-2.095,1.798-3.378,4.069-3.378c1.672,0,2.94,0.608,4.033,1.647l-1.302,1.299
				c-0.777-0.78-1.656-1.163-2.873-1.163c-1.443,0-2.061,0.694-2.061,1.508c0,0.849,0.564,1.263,2.694,1.888
				c2.431,0.729,3.943,1.49,3.943,3.654C-4800.707,788.126-4802.114,789.614-4805.266,789.614z"/>
			<path fill="none" stroke="#FFFFFF" stroke-miterlimit="10" d="M-4793.076,789.425v-0.9c-0.637,0.623-1.534,1.089-2.537,1.089
				c-1.498,0-3.206-0.83-3.206-3.064c0-2.027,1.584-2.943,3.682-2.943c0.863,0,1.548,0.121,2.062,0.343v-0.673
				c0-0.988-0.617-1.543-1.747-1.543c-0.95,0-1.689,0.173-2.412,0.574l-0.705-1.351c0.884-0.537,1.868-0.815,3.171-0.815
				c2.063,0,3.47,0.985,3.47,3.049v6.234H-4793.076z M-4793.076,785.544c-0.495-0.243-1.127-0.398-2.114-0.398
				c-1.163,0-1.903,0.521-1.903,1.352c0,0.9,0.581,1.506,1.78,1.506c0.967,0,1.812-0.587,2.237-1.161V785.544z"/>
			<path fill="none" stroke="#FFFFFF" stroke-miterlimit="10" d="M-4787.689,779.155c-0.65,0-1.18-0.521-1.18-1.144
				c0-0.642,0.529-1.16,1.18-1.16c0.635,0,1.163,0.519,1.163,1.16C-4786.526,778.634-4787.055,779.155-4787.689,779.155z
				 M-4788.604,789.425v-9.094h1.813v9.094H-4788.604z"/>
			<path fill="none" stroke="#FFFFFF" stroke-miterlimit="10" d="M-4779.007,782.219c-0.386-0.207-0.791-0.328-1.391-0.328
				c-1.145,0-1.815,0.796-1.815,2.338v5.195h-1.813v-9.094h1.813v0.866c0.424-0.604,1.198-1.056,2.114-1.056
				c0.74,0,1.198,0.139,1.566,0.38L-4779.007,782.219z"/>
		</g>
	</g>
	<g>
		<path fill="none" stroke="#FFFFFF" stroke-miterlimit="10" d="M-4790.929,765.92l-1.894-3.209
			c-0.603-1.013-1.537-2.735-1.851-3.349c-0.285,0.614-1.224,2.289-1.844,3.349l-1.874,3.209h-2.947l5.203-8.514l-4.868-7.995h3
			l1.532,2.664c0.574,1.014,1.534,2.759,1.848,3.373c0.312-0.614,1.223-2.311,1.847-3.373l1.559-2.664h2.948l-4.866,7.973
			l5.202,8.537H-4790.929z"/>
	</g>
</g>
<rect x="-6131.376" y="167.999" fill="#3D59D1" width="1280.001" height="720"/>
<rect x="-6451.375" y="720.011" fill="#75726D" width="1920" height="350"/>
<rect x="-6258.171" y="720.011" fill="#3B3D3B" width="1535" height="240"/>
<rect x="-4773.532" y="937.801" fill="#CC2198" width="50" height="22"/>
<rect x="-6258.171" y="937.801" fill="#CC2198" width="50" height="22"/>
<rect x="-6258.171" y="720.012" fill="#F40B32" width="50" height="33"/>
<rect x="-4773.171" y="720.012" fill="#F40B32" width="50" height="33"/>
<rect x="-6208.171" y="752.59" fill="#C1C9C1" width="1435" height="185"/>
<rect x="-8345.934" y="100.92" fill="#43D33C" width="1535" height="860"/>
<rect x="-8538.958" y="-12.008" fill="#43D33C" width="1920" height="1080"/>
<g>
	<rect x="-6905.143" y="739.614" fill="none" stroke="#FFFFFF" stroke-miterlimit="10" width="45" height="36.104"/>
	<g>
		<g>
			<path fill="none" stroke="#FFFFFF" stroke-miterlimit="10" d="M-6892.848,789.614c-1.797,0-3.347-0.76-4.386-1.956l1.319-1.263
				c0.83,0.88,2.044,1.436,3.205,1.436c1.728,0,2.557-0.589,2.557-1.765c0-0.936-0.723-1.403-2.784-2.011
				c-2.605-0.763-3.857-1.401-3.857-3.567c0-2.095,1.798-3.378,4.069-3.378c1.672,0,2.94,0.608,4.033,1.647l-1.302,1.299
				c-0.777-0.78-1.656-1.163-2.873-1.163c-1.443,0-2.061,0.694-2.061,1.508c0,0.849,0.564,1.263,2.694,1.888
				c2.431,0.729,3.943,1.49,3.943,3.654C-6888.29,788.126-6889.697,789.614-6892.848,789.614z"/>
			<path fill="none" stroke="#FFFFFF" stroke-miterlimit="10" d="M-6880.659,789.425v-0.9c-0.637,0.623-1.534,1.089-2.537,1.089
				c-1.498,0-3.206-0.83-3.206-3.064c0-2.027,1.584-2.943,3.682-2.943c0.863,0,1.548,0.121,2.062,0.343v-0.673
				c0-0.988-0.617-1.543-1.747-1.543c-0.95,0-1.689,0.173-2.412,0.574l-0.705-1.351c0.884-0.537,1.868-0.815,3.171-0.815
				c2.063,0,3.47,0.985,3.47,3.049v6.234H-6880.659z M-6880.659,785.544c-0.496-0.243-1.127-0.398-2.114-0.398
				c-1.163,0-1.903,0.521-1.903,1.352c0,0.9,0.581,1.506,1.78,1.506c0.967,0,1.812-0.587,2.237-1.161V785.544z"/>
			<path fill="none" stroke="#FFFFFF" stroke-miterlimit="10" d="M-6875.272,779.155c-0.65,0-1.18-0.521-1.18-1.144
				c0-0.642,0.529-1.16,1.18-1.16c0.635,0,1.163,0.519,1.163,1.16C-6874.109,778.634-6874.637,779.155-6875.272,779.155z
				 M-6876.186,789.425v-9.094h1.813v9.094H-6876.186z"/>
			<path fill="none" stroke="#FFFFFF" stroke-miterlimit="10" d="M-6866.589,782.219c-0.386-0.207-0.791-0.328-1.391-0.328
				c-1.145,0-1.815,0.796-1.815,2.338v5.195h-1.813v-9.094h1.813v0.866c0.424-0.604,1.198-1.056,2.114-1.056
				c0.74,0,1.198,0.139,1.566,0.38L-6866.589,782.219z"/>
		</g>
	</g>
	<g>
		<path fill="none" stroke="#FFFFFF" stroke-miterlimit="10" d="M-6878.511,765.92l-1.894-3.209
			c-0.602-1.013-1.537-2.735-1.85-3.349c-0.285,0.614-1.224,2.289-1.844,3.349l-1.874,3.209h-2.947l5.203-8.514l-4.868-7.995h3
			l1.532,2.664c0.574,1.014,1.534,2.759,1.848,3.373c0.312-0.614,1.223-2.311,1.847-3.373l1.559-2.664h2.948l-4.866,7.973
			l5.202,8.537H-6878.511z"/>
	</g>
</g>
<rect x="-8218.958" y="167.999" fill="#3D59D1" width="1280.001" height="720"/>
<rect x="-8538.957" y="720.011" fill="#75726D" width="1920" height="350"/>
<rect x="-8345.754" y="720.011" fill="#3B3D3B" width="1535" height="240"/>
<rect x="-6861.115" y="937.801" fill="#CC2198" width="50" height="22"/>
<rect x="-8345.754" y="937.801" fill="#CC2198" width="50" height="22"/>
<rect x="-8345.754" y="720.012" fill="#F40B32" width="50" height="33"/>
<rect x="-6861.115" y="720.012" fill="#F40B32" width="50" height="33"/>
<rect x="-8294.619" y="752.59" fill="#C1C9C1" width="1435" height="185"/>
<rect x="-2.187" y="1080.52" fill="#FFFFFF" width="1925.782" height="821.969"/>
<rect x="47.08" y="1392.798" fill="#BA3E31" width="50" height="50"/>
<rect x="47.08" y="1300.798" fill="#B27D62" width="50" height="50"/>
<rect x="960.705" y="1306.798" fill="none" width="731.125" height="50"/>
<rect x="960.705" y="1392.798" fill="none" width="732.994" height="50"/>
<rect x="115.08" y="1396.131" fill="none" width="715" height="50"/>
<text transform="matrix(1 0 0 1 115.0801 1438.7305)" font-family="'MyriadPro-Regular'" font-size="60">Imagens 275x150 </text>
<rect x="47.08" y="1165.02" fill="none" width="782" height="50"/>
<text transform="matrix(1 0 0 1 47.0801 1214.7192)" font-family="'MyriadPro-Regular'" font-size="70">Texto e Imagem </text>
<rect x="114.08" y="1300.798" fill="none" width="933.322" height="50"/>
<text transform="matrix(1 0 0 1 114.0801 1343.3975)" font-family="'MyriadPro-Regular'" font-size="60">Espaçamento conteúdo  10x150</text>
<rect x="-2070.015" y="1066.999" fill="#FFFFFF" width="1925.782" height="427.5"/>
<rect x="-2019.748" y="1380.27" fill="#BA3E31" width="50" height="50"/>
<rect x="-2019.748" y="1288.27" fill="#B27D62" width="50" height="50"/>
<rect x="-1106.123" y="1294.27" fill="none" width="731.125" height="50"/>
<rect x="-1106.123" y="1380.27" fill="none" width="732.994" height="50"/>
<text transform="matrix(1 0 0 1 -1106.123 1422.8696)" font-family="'MyriadPro-Regular'" font-size="60">    </text>
<rect x="-1952.748" y="1380.27" fill="none" width="715" height="50"/>
<text transform="matrix(1 0 0 1 -1952.748 1422.8696)" font-family="'MyriadPro-Regular'" font-size="60">Imagens 275x150 </text>
<rect x="-2019.748" y="1152.492" fill="none" width="782" height="50"/>
<text transform="matrix(1 0 0 1 -2019.748 1202.1914)" font-family="'MyriadPro-Regular'" font-size="70">Imagens</text>
<rect x="-1952.748" y="1294.27" fill="none" width="933.322" height="50"/>
<text transform="matrix(1 0 0 1 -1952.748 1336.8696)" font-family="'MyriadPro-Regular'" font-size="60">Espaçamento conteúdo  10x150</text>
<rect x="-4232.198" y="1067.992" fill="#FFFFFF" width="1925.782" height="708.278"/>
<rect x="47.08" y="1485.742" fill="#F4CC06" width="50" height="50"/>
<rect x="960.705" y="1485.742" fill="none" width="732.996" height="50"/>
<text transform="matrix(1 0 0 1 960.7051 1528.3418)" font-family="'MyriadPro-Regular'" font-size="60">                  </text>
<rect x="114.08" y="1817.742" fill="none" width="715" height="50"/>
<text transform="matrix(1 0 0 1 114.0801 1860.3418)"><tspan x="0" y="0" font-family="'MyriadPro-Regular'" font-size="60">Espa</tspan><tspan x="116.338" y="0" font-family="'MyriadPro-Regular'" font-size="60">ç</tspan><tspan x="143.157" y="0" font-family="'MyriadPro-Regular'" font-size="60">amento entre linhas</tspan></text>
<rect x="114.08" y="1739.742" fill="none" width="715" height="50"/>
<text transform="matrix(1 0 0 1 114.0801 1782.3418)" font-family="'MyriadPro-Regular'" font-size="60">Carctéres</text>
<rect x="114.08" y="1653.742" fill="none" width="715" height="50"/>
<text transform="matrix(1 0 0 1 114.0801 1696.3418)" font-family="'MyriadPro-Regular'" font-size="60">Tamanho</text>
<rect x="114.08" y="1567.742" fill="none" width="715" height="50"/>
<text transform="matrix(1 0 0 1 114.0801 1610.3418)" font-family="'MyriadPro-Regular'" font-size="60">Fonte</text>
<rect x="114.08" y="1485.742" fill="none" width="715" height="50"/>
<text transform="matrix(1 0 0 1 114.0801 1528.3418)" font-family="'MyriadPro-Regular'" font-size="60">Caixa de Texto 1130x128</text>
<rect x="-4182.932" y="1380.27" fill="#F4CC06" width="50" height="50"/>
<rect x="-4182.932" y="1288.27" fill="#B27D62" width="50" height="50"/>
<rect x="-3269.307" y="1294.27" fill="none" width="731.125" height="50"/>
<text transform="matrix(1 0 0 1 -3269.3066 1336.8696)" font-family="'MyriadPro-Regular'" font-size="60">    </text>
<rect x="-3269.307" y="1380.27" fill="none" width="732.995" height="50"/>
<text transform="matrix(1 0 0 1 -3269.3066 1422.8696)" font-family="'MyriadPro-Regular'" font-size="60"> </text>
<rect x="-4115.932" y="1701.27" fill="none" width="715" height="50"/>
<text transform="matrix(1 0 0 1 -4115.9316 1743.8696)"><tspan x="0" y="0" font-family="'MyriadPro-Regular'" font-size="60">Espa</tspan><tspan x="116.338" y="0" font-family="'MyriadPro-Regular'" font-size="60">ç</tspan><tspan x="143.157" y="0" font-family="'MyriadPro-Regular'" font-size="60">amento entre linhas</tspan></text>
<rect x="-4115.932" y="1634.27" fill="none" width="715" height="50"/>
<text transform="matrix(1 0 0 1 -4115.9316 1676.8696)" font-family="'MyriadPro-Regular'" font-size="60">Caractéres</text>
<rect x="-4115.932" y="1548.27" fill="none" width="715" height="50"/>
<text transform="matrix(1 0 0 1 -4115.9316 1590.8696)" font-family="'MyriadPro-Regular'" font-size="60">Tamanho</text>
<rect x="-4115.932" y="1462.27" fill="none" width="715" height="50"/>
<text transform="matrix(1 0 0 1 -4115.9316 1504.8696)" font-family="'MyriadPro-Regular'" font-size="60">Fonte</text>
<rect x="-4115.932" y="1380.27" fill="none" width="715" height="50"/>
<text transform="matrix(1 0 0 1 -4115.9316 1422.8696)" font-family="'MyriadPro-Regular'" font-size="60">Caixa de Texto 1415x128</text>
<rect x="-4182.932" y="1152.492" fill="none" width="782" height="50"/>
<text transform="matrix(1 0 0 1 -4182.9316 1202.1914)" font-family="'MyriadPro-Regular'" font-size="70">Conteúdo Texto</text>
<rect x="-4115.932" y="1294.27" fill="none" width="846.625" height="50"/>
<text transform="matrix(1 0 0 1 -4115.9316 1336.8696)" font-family="'MyriadPro-Regular'" font-size="60">Espaçamento conteúdos 10x150</text>
<rect x="-6453.562" y="1067.992" fill="#FFFFFF" width="1925.782" height="1139.5"/>
<rect x="-6404.296" y="1288.27" fill="#CCCC32" width="50" height="50"/>
<rect x="-5490.671" y="1380.27" fill="none" width="732.995" height="50"/>
<rect x="-5490.671" y="1462.27" fill="none" width="732.995" height="50"/>
<rect x="-5490.671" y="1548.27" fill="none" width="732.995" height="50"/>
<rect x="-5490.671" y="1634.27" fill="none" width="732.995" height="50"/>
<rect x="-5490.671" y="1902.489" fill="none" width="732.995" height="50"/>
<rect x="-5490.671" y="2066.632" fill="none" width="732.995" height="50"/>
<text transform="matrix(1 0 0 1 -5490.6709 2109.2314)" font-family="'MyriadPro-Regular'" font-size="60"> </text>
<rect x="-6404.296" y="2060.632" width="50" height="50"/>
<rect x="-6337.296" y="2066.632" fill="none" width="804.125" height="50"/>
<text transform="matrix(1 0 0 1 -6337.2959 2109.2314)" font-family="'MyriadPro-Regular'" font-size="60">Espaçamento título e conteúdo</text>
<rect x="-5490.671" y="1992.489" fill="none" width="732.995" height="50"/>
<rect x="-6404.296" y="1896.489" fill="#7FB57F" width="50" height="50"/>
<rect x="-6337.296" y="1902.489" fill="none" width="312.94" height="50"/>
<text transform="matrix(1 0 0 1 -6337.2959 1945.0889)" font-family="'MyriadPro-Regular'" font-size="60">Espaço livre  </text>
<rect x="-6404.296" y="1986.489" fill="#03FFCF" width="50" height="50"/>
<rect x="-6337.296" y="1992.489" fill="none" width="732.995" height="50"/>
<text transform="matrix(1 0 0 1 -6337.2959 2035.0889)" font-family="'MyriadPro-Regular'" font-size="60">Setas  40x30</text>
<rect x="-5490.671" y="1726.27" fill="none" width="732.995" height="50"/>
<rect x="-5490.671" y="1816.27" fill="none" width="732.995" height="50"/>
<rect x="-6337.296" y="1294.27" fill="none" width="715" height="50"/>
<text transform="matrix(1 0 0 1 -6337.2959 1336.8696)" font-family="'MyriadPro-Regular'" font-size="60">Títulos  *x40 </text>
<rect x="-6404.296" y="1152.492" fill="none" width="782" height="50"/>
<text transform="matrix(1 0 0 1 -6404.2959 1202.1914)" font-family="'MyriadPro-Regular'" font-size="70">Diagramação do Menu</text>
<rect x="-6337.296" y="1380.27" fill="none" width="732.995" height="50"/>
<text transform="matrix(1 0 0 1 -6337.2959 1422.8696)" font-family="'MyriadPro-Regular'" font-size="60">A Rede Minas 250x40</text>
<rect x="-6337.296" y="1462.27" fill="none" width="732.995" height="50"/>
<text transform="matrix(1 0 0 1 -6337.2959 1504.8696)" font-family="'MyriadPro-Regular'" font-size="60">Programas 200x40</text>
<rect x="-6337.296" y="1548.27" fill="none" width="732.995" height="50"/>
<text transform="matrix(1 0 0 1 -6337.2959 1590.8696)" font-family="'MyriadPro-Regular'" font-size="60">Contato 145x40</text>
<rect x="-6404.296" y="1628.27" fill="#DD8C17" width="50" height="50"/>
<rect x="-6337.296" y="1634.27" fill="none" width="732.995" height="50"/>
<text transform="matrix(1 0 0 1 -6337.2959 1676.8696)" font-family="'MyriadPro-Regular'" font-size="60">Espaçamento título 40x40 </text>
<rect x="-6404.296" y="1720.27" fill="#79A4E2" width="50" height="50"/>
<rect x="-6337.296" y="1726.27" fill="none" width="732.995" height="50"/>
<text transform="matrix(1 0 0 1 -6337.2959 1768.8696)" font-family="'MyriadPro-Regular'" font-size="60">Botões 45x50</text>
<rect x="-6404.296" y="1810.27" fill="#187261" width="50" height="50"/>
<rect x="-6337.296" y="1816.27" fill="none" width="732.995" height="50"/>
<text transform="matrix(1 0 0 1 -6337.2959 1858.8696)" font-family="'MyriadPro-Regular'" font-size="60">Espaçamento Botões 10x50</text>
<rect x="-8538.958" y="1067.992" fill="#FFFFFF" width="1925.782" height="867.5"/>
<rect x="-8489.691" y="1288.27" fill="#43D33C" width="50" height="50"/>
<rect x="-7576.067" y="1294.27" fill="none" width="731.125" height="50"/>
<text transform="matrix(1 0 0 1 -7576.0669 1336.8696)" font-family="'MyriadPro-Regular'" font-size="60">100%    </text>
<rect x="-7576.067" y="1380.27" fill="none" width="732.995" height="50"/>
<text transform="matrix(1 0 0 1 -7576.0669 1422.8696)" font-family="'MyriadPro-Regular'" font-size="60">56.25%</text>
<rect x="-7576.067" y="1462.27" fill="none" width="732.995" height="50"/>
<text transform="matrix(1 0 0 1 -7576.0669 1504.8696)" font-family="'MyriadPro-Regular'" font-size="60">67.20%</text>
<rect x="-7576.067" y="1548.27" fill="none" width="732.995" height="50"/>
<text transform="matrix(1 0 0 1 -7576.0669 1590.8696)" font-family="'MyriadPro-Regular'" font-size="60">15.6351792%</text>
<rect x="-7576.067" y="1634.27" fill="none" width="732.995" height="50"/>
<text transform="matrix(1 0 0 1 -7576.0669 1676.8696)" font-family="'MyriadPro-Regular'" font-size="60">66%</text>
<rect x="-7576.067" y="1726.27" fill="none" width="732.995" height="50"/>
<text transform="matrix(1 0 0 1 -7576.0669 1768.8696)" font-family="'MyriadPro-Regular'" font-size="60">44%</text>
<rect x="-7576.067" y="1816.27" fill="none" width="732.995" height="50"/>
<text transform="matrix(1 0 0 1 -7576.0669 1858.8696)" font-family="'MyriadPro-Regular'" font-size="60">12.8919861%</text>
<rect x="-8422.691" y="1294.27" fill="none" width="731.125" height="50"/>
<text transform="matrix(1 0 0 1 -8422.6914 1336.8696)" font-family="'MyriadPro-Regular'" font-size="60">Full HD  1920x1080     </text>
<rect x="-8489.691" y="1152.492" fill="none" width="782" height="50"/>
<text transform="matrix(1 0 0 1 -8489.6914 1202.1914)" font-family="'MyriadPro-Regular'" font-size="70">Diagramação do Espaço</text>
<rect x="-8489.691" y="1374.27" fill="#3D59D1" width="50" height="50"/>
<rect x="-8422.691" y="1380.27" fill="none" width="732.995" height="50"/>
<text transform="matrix(1 0 0 1 -8422.6914 1422.8696)" font-family="'MyriadPro-Regular'" font-size="60">HD  1280x72</text>
<rect x="-8489.691" y="1456.27" fill="#75726D" width="50" height="50"/>
<rect x="-8422.691" y="1462.27" fill="none" width="732.995" height="50"/>
<text transform="matrix(1 0 0 1 -8422.6914 1504.8696)" font-family="'MyriadPro-Regular'" font-size="60">Background  1920x35 </text>
<rect x="-8489.691" y="1542.27" fill="#3B3D3B" width="50" height="50"/>
<rect x="-8422.691" y="1548.27" fill="none" width="732.995" height="50"/>
<text transform="matrix(1 0 0 1 -8422.6914 1590.8696)" font-family="'MyriadPro-Regular'" font-size="60">Limite  1535x240 </text>
<rect x="-8489.691" y="1628.27" fill="#F40B32" width="50" height="50"/>
<rect x="-8422.691" y="1634.27" fill="none" width="732.995" height="50"/>
<text transform="matrix(1 0 0 1 -8422.6914 1676.8696)" font-family="'MyriadPro-Regular'" font-size="60">Respiro Superior  50x33  </text>
<rect x="-8489.691" y="1720.27" fill="#CC2198" width="50" height="50"/>
<rect x="-8422.691" y="1726.27" fill="none" width="732.995" height="50"/>
<text transform="matrix(1 0 0 1 -8422.6914 1768.8696)" font-family="'MyriadPro-Regular'" font-size="60">Respiro Inferior   50x22</text>
<rect x="-8489.691" y="1810.27" fill="#C1C9C1" width="50" height="50"/>
<rect x="-8422.691" y="1816.27" fill="none" width="732.995" height="50"/>
<text transform="matrix(1 0 0 1 -8422.6914 1858.8696)" font-family="'MyriadPro-Regular'" font-size="60">Espaço Conteúdo  1435x185</text>
<g>
	<rect x="-5678.171" y="752.59" fill="#CCCC32" width="145" height="40"/>
</g>
<rect x="-5533.172" y="752.807" fill="#7FB57F" width="550.001" height="40"/>
<g>
	<rect x="-5918.171" y="752.59" fill="#CCCC32" width="200" height="40"/>
</g>
<g>
	<rect x="-6208.171" y="752.59" fill="#CCCC32" width="250" height="40"/>
</g>
<g>
	<rect x="-5718.171" y="752.59" fill="#DD8C17" width="40" height="40"/>
</g>
<g>
	<rect x="-5958.171" y="752.59" fill="#DD8C17" width="40" height="40"/>
</g>
<rect x="-4818.171" y="743.184" fill="#79A4E2" width="45" height="50"/>
<rect x="-4873.171" y="743.184" fill="#79A4E2" width="45" height="50"/>
<rect x="-4983.171" y="743.184" fill="#79A4E2" width="45" height="50"/>
<rect x="-4928.171" y="743.184" fill="#79A4E2" width="45" height="50"/>
<rect x="-4938.171" y="743.184" fill="#187261" width="10" height="50"/>
<rect x="-4883.171" y="743.184" fill="#187261" width="10" height="50"/>
<rect x="-4828.171" y="743.184" fill="#187261" width="10" height="50"/>
<rect x="-4763.171" y="829.826" fill="#03FFCF" width="40" height="30"/>
<rect x="-6259.171" y="829.826" fill="#03FFCF" width="40" height="30"/>
<text transform="matrix(1 0 0 1 -6024.3555 1946.4893)" font-family="'MyriadPro-Regular'" font-size="36">(novos titulos e botões)</text>
<text transform="matrix(1 0 0 1 -6024.3555 1332.27)" font-family="'MyriadPro-Regular'" font-size="36">(*depende do tamanho do título)</text>
<rect x="-6208.174" y="792.99" width="1435" height="17"/>
<rect x="537.201" y="820.801" fill="#F4CC06" width="1130" height="128"/>
<rect x="-3977.807" y="810.301" fill="#F4CC06" width="1415" height="128"/>
</svg>
