<?xml version="1.0" encoding="utf-8"?>
<!-- Generator: Adobe Illustrator 16.0.0, SVG Export Plug-In . SVG Version: 6.00 Build 0)  -->
<!DOCTYPE svg PUBLIC "-//W3C//DTD SVG 1.1//EN" "http://www.w3.org/Graphics/SVG/1.1/DTD/svg11.dtd">
<svg version="1.1" id="Layer_1" xmlns="http://www.w3.org/2000/svg" xmlns:xlink="http://www.w3.org/1999/xlink" x="0px" y="0px"
	 width="14400px" height="14400px" viewBox="0 0 14400 14400" enable-background="new 0 0 14400 14400" xml:space="preserve">
<g>
	<linearGradient id="SVGID_1_" gradientUnits="userSpaceOnUse" x1="6239.502" y1="7199.5" x2="6806.6133" y2="7199.5">
		<stop  offset="0" style="stop-color:#A31202"/>
		<stop  offset="0.1558" style="stop-color:#AC1D0E;stop-opacity:0.8442"/>
		<stop  offset="0.4392" style="stop-color:#C4392F;stop-opacity:0.5608"/>
		<stop  offset="0.8154" style="stop-color:#EA6663;stop-opacity:0.1846"/>
		<stop  offset="1" style="stop-color:#FF7F7F;stop-opacity:0"/>
	</linearGradient>
	<rect x="6239.502" y="6659.502" fill="url(#SVGID_1_)" width="567.111" height="1079.996"/>
	
		<linearGradient id="SVGID_2_" gradientUnits="userSpaceOnUse" x1="6461.5332" y1="7199.5" x2="7028.6426" y2="7199.5" gradientTransform="matrix(-1 0 0 1 14621.0313 0)">
		<stop  offset="0" style="stop-color:#A31202"/>
		<stop  offset="0.1558" style="stop-color:#AC1D0E;stop-opacity:0.8442"/>
		<stop  offset="0.4392" style="stop-color:#C4392F;stop-opacity:0.5608"/>
		<stop  offset="0.8154" style="stop-color:#EA6663;stop-opacity:0.1846"/>
		<stop  offset="1" style="stop-color:#FF7F7F;stop-opacity:0"/>
	</linearGradient>
	<rect x="7592.389" y="6659.502" fill="url(#SVGID_2_)" width="567.109" height="1079.996"/>
	<g>
		<g>
			<g>
				<g>
					<path fill="#FFFFFF" d="M6545.423,6798.084l-4.838-10.627c-0.239-0.491-0.492-1.07-0.73-1.637
						c0.026,0.988,0.038,2.04,0.038,2.661v8.513h-5.14v-22.881h4.926l4.713,10.229c0.389,0.834,0.805,1.85,1.12,2.67
						c0.314-0.834,0.73-1.84,1.107-2.665l4.549-10.233h5.039v22.881h-5.241v-8.513c0-0.621,0.025-1.673,0.04-2.661
						c-0.253,0.566-0.505,1.141-0.719,1.633L6545.423,6798.084L6545.423,6798.084z"/>
				</g>
				<g>
					<path fill="#FFFFFF" d="M6568.012,6796.994h-5.242v-22.881h5.242V6796.994L6568.012,6796.994z"/>
				</g>
				<g>
					<path fill="#FFFFFF" d="M6593.839,6796.994h-4.575l-8.301-12.342c-0.227-0.334-0.44-0.691-0.682-1.043c0,0.129,0,0.269,0,0.417
						c0.041,1.024,0.052,2.179,0.052,2.847v10.121h-5.191v-22.881h4.864l8.012,11.938c0.215,0.349,0.454,0.715,0.681,1.067
						c0-0.13,0-0.265,0-0.404c-0.025-1.033-0.04-2.179-0.04-2.865v-9.736h5.179V6796.994L6593.839,6796.994z"/>
				</g>
				<g>
					<path fill="#FFFFFF" d="M6629.958,6797.342c-3.807,0-7.145-1.572-8.909-4.182l-0.212-0.307l3.778-3.356l0.264,0.315
						c1.362,1.581,3.151,2.374,5.33,2.374c3.011,0,3.426-0.992,3.426-1.976c0-1.066-0.44-1.637-4.597-2.582
						c-3.653-0.844-7.219-2.086-7.219-6.982c0-4.057,3.414-6.885,8.29-6.885c3.301,0,6.021,1.187,8.339,3.598l0.29,0.301
						l-3.779,3.663l-0.29-0.297c-1.435-1.456-2.935-2.142-4.71-2.142c-1.738,0-2.735,0.574-2.735,1.566
						c0,1.002,0.505,1.392,4.119,2.244c2.873,0.673,7.699,1.795,7.699,7.205C6639.041,6794.699,6635.802,6797.342,6629.958,6797.342
						L6629.958,6797.342z"/>
				</g>
			</g>
			<g>
				<path fill="#FFFFFF" d="M6490.079,6780.382h-1.537v10.224h1.4c3.299,0,5.114-1.813,5.114-5.109
					C6495.056,6781.912,6493.557,6780.382,6490.079,6780.382z"/>
				<path fill="#FFFFFF" d="M6447.951,6780.382h-4.321v3.899h4.321c1.5,0,2.207-0.622,2.207-1.975
					C6450.158,6780.998,6449.451,6780.382,6447.951,6780.382z"/>
				<path fill="#FFFFFF" d="M6430.97,6767.381v36.266h216.65v-36.266H6430.97z M6449.854,6794.77l-3.188-6.422h-3.037v6.422h-4.256
					v-18.556h8.654c3.958,0,6.5,2.369,6.5,6.014c0,2.661-1.083,4.437-3.301,5.438l3.503,7.104H6449.854z M6476.11,6794.77h-13.469
					v-18.556h13.077v4.196h-8.818v2.392h5.127v4.164h-5.127v3.616h9.21V6794.77z M6489.942,6794.77h-5.67v-18.556h5.935
					c4.208,0,9.222,1.618,9.222,9.282C6499.429,6792.344,6494.326,6794.77,6489.942,6794.77z M6520.833,6794.77h-13.466v-18.556
					h13.088v4.196h-8.833v2.392h5.128v4.164h-5.128v3.616h9.211V6794.77z M6645.163,6801.204h-117.365v-31.38h117.365V6801.204z"/>
			</g>
		</g>
		<g>
			<path fill="#FFFFFF" d="M6618.752,6797.001h-5.745l-1.72-4.894h-7.454l-1.735,4.894h-5.617l8.754-22.933h4.841L6618.752,6797.001
				L6618.752,6797.001z M6605.34,6787.877h4.526c0,0-2.042-5.874-2.266-6.563C6607.374,6782.003,6605.34,6787.877,6605.34,6787.877z
				"/>
		</g>
	</g>
</g>
<g>
	<rect x="6603.903" y="8129.993" fill="none" width="182.035" height="22.096"/>
	<text transform="matrix(1 0 0 1 6690.4473 8150.5156)" fill="#FFFFFF" font-family="'Interstate-Bold'" font-size="28.1521">A Rede </text>
	<rect x="6677.483" y="8297.382" fill="none" width="108.455" height="27.789"/>
	<text transform="matrix(1 0 0 1 6678.8491 8317.9043)" fill="#FFFFFF" font-family="'Interstate-Bold'" font-size="28.1521">Contato</text>
	<rect x="6640.813" y="8213.69" fill="none" width="146.699" height="24.504"/>
	<text transform="matrix(1 0 0 1 6641.6016 8234.2129)" fill="#FFFFFF" font-family="'Interstate-Bold'" font-size="28.1521">Programas</text>
	<polyline fill="none" stroke="#FFFFFF" stroke-width="2.8347" stroke-miterlimit="10" points="6373.167,8130.054 
		6589.804,8130.054 6589.804,8149.089 6373.167,8149.089 	"/>
</g>
<g>
	<text transform="matrix(1 0 0 1 7901.0195 7815.8037)"><tspan x="0" y="0" fill="#FFFFFF" font-family="'Interstate-Black'" font-size="24">A </tspan><tspan x="26.208" y="0" fill="#FFFFFF" font-family="'Interstate-Black'" font-size="24">R</tspan><tspan x="42.791" y="0" fill="#FFFFFF" font-family="'Interstate-Black'" font-size="24">ede Minas de </tspan></text>
	<text transform="matrix(1 0 0 1 7850.0918 7844.6035)"><tspan x="0" y="0" fill="#FFFFFF" font-family="'Interstate-Black'" font-size="24" letter-spacing="-2">T</tspan><tspan x="13.32" y="0" fill="#FFFFFF" font-family="'Interstate-Black'" font-size="24">el</tspan><tspan x="33.624" y="0" fill="#FFFFFF" font-family="'Interstate-Black'" font-size="24">e</tspan><tspan x="46.104" y="0" fill="#FFFFFF" font-family="'Interstate-Black'" font-size="24">visão </tspan><tspan x="114.574" y="0" fill="#FFFFFF" font-family="'Interstate-Black'" font-size="24">f</tspan><tspan x="123.215" y="0" fill="#FFFFFF" font-family="'Interstate-Black'" font-size="24">oi fundada </tspan></text>
	<text transform="matrix(1 0 0 1 7828.6123 7873.4043)"><tspan x="0" y="0" fill="#FFFFFF" font-family="'Interstate-Black'" font-size="24">em d</tspan><tspan x="55.823" y="0" fill="#FFFFFF" font-family="'Interstate-Black'" font-size="24">e</tspan><tspan x="68.471" y="0" fill="#FFFFFF" font-family="'Interstate-Black'" font-size="24">z</tspan><tspan x="81.671" y="0" fill="#FFFFFF" font-family="'Interstate-Black'" font-size="24">emb</tspan><tspan x="129.573" y="0" fill="#FFFFFF" font-family="'Interstate-Black'" font-size="24">r</tspan><tspan x="139.966" y="0" fill="#FFFFFF" font-family="'Interstate-Black'" font-size="24">o de 1</tspan><tspan x="206.349" y="0" fill="#FFFFFF" font-family="'Interstate-Black'" font-size="24">9</tspan><tspan x="222.812" y="0" fill="#FFFFFF" font-family="'Interstate-Black'" font-size="24">8</tspan><tspan x="240.332" y="0" fill="#FFFFFF" font-family="'Interstate-Black'" font-size="24">4</tspan><tspan x="257.756" y="0" fill="#FFFFFF" font-family="'Interstate-Black'" font-size="24">, </tspan></text>
	<text transform="matrix(1 0 0 1 7816.9961 7902.2041)"><tspan x="0" y="0" fill="#FFFFFF" font-family="'Interstate-Black'" font-size="24">por </tspan><tspan x="46.055" y="0" fill="#FFFFFF" font-family="'Interstate-Black'" font-size="24" letter-spacing="-2">T</tspan><tspan x="59.615" y="0" fill="#FFFFFF" font-family="'Interstate-Black'" font-size="24">anc</tspan><tspan x="99.646" y="0" fill="#FFFFFF" font-family="'Interstate-Black'" font-size="24">r</tspan><tspan x="110.039" y="0" fill="#FFFFFF" font-family="'Interstate-Black'" font-size="24">edo N</tspan><tspan x="176.541" y="0" fill="#FFFFFF" font-family="'Interstate-Black'" font-size="24">e</tspan><tspan x="189.021" y="0" fill="#FFFFFF" font-family="'Interstate-Black'" font-size="24">v</tspan><tspan x="202.342" y="0" fill="#FFFFFF" font-family="'Interstate-Black'" font-size="24">e</tspan><tspan x="215.182" y="0" fill="#FFFFFF" font-family="'Interstate-Black'" font-size="24">s</tspan><tspan x="227.469" y="0" fill="#FFFFFF" font-family="'Interstate-Black'" font-size="24">, e é </tspan></text>
	<text transform="matrix(1 0 0 1 7823.3086 7931.0039)"><tspan x="0" y="0" fill="#FFFFFF" font-family="'Interstate-Black'" font-size="24">uma emi</tspan><tspan x="98.014" y="0" fill="#FFFFFF" font-family="'Interstate-Black'" font-size="24">s</tspan><tspan x="110.277" y="0" fill="#FFFFFF" font-family="'Interstate-Black'" font-size="24">s</tspan><tspan x="122.59" y="0" fill="#FFFFFF" font-family="'Interstate-Black'" font-size="24">o</tspan><tspan x="136.246" y="0" fill="#FFFFFF" font-family="'Interstate-Black'" font-size="24">r</tspan><tspan x="146.397" y="0" fill="#FFFFFF" font-family="'Interstate-Black'" font-size="24">a públi</tspan><tspan x="223.82" y="0" fill="#FFFFFF" font-family="'Interstate-Black'" font-size="24">c</tspan><tspan x="236.203" y="0" fill="#FFFFFF" font-family="'Interstate-Black'" font-size="24">a e </tspan></text>
	<text transform="matrix(1 0 0 1 7805.7402 7959.8037)"><tspan x="0" y="0" fill="#FFFFFF" font-family="'Interstate-Black'" font-size="24">edu</tspan><tspan x="40.943" y="0" fill="#FFFFFF" font-family="'Interstate-Black'" font-size="24">c</tspan><tspan x="53.327" y="0" fill="#FFFFFF" font-family="'Interstate-Black'" font-size="24">ati</tspan><tspan x="84.767" y="0" fill="#FFFFFF" font-family="'Interstate-Black'" font-size="24">v</tspan><tspan x="97.895" y="0" fill="#FFFFFF" font-family="'Interstate-Black'" font-size="24">a </tspan><tspan x="119.207" y="0" fill="#FFFFFF" font-family="'Interstate-Black'" font-size="24">c</tspan><tspan x="131.398" y="0" fill="#FFFFFF" font-family="'Interstate-Black'" font-size="24">om o obj</tspan><tspan x="230.3" y="0" fill="#FFFFFF" font-family="'Interstate-Black'" font-size="24">e</tspan><tspan x="243.164" y="0" fill="#FFFFFF" font-family="'Interstate-Black'" font-size="24">ti</tspan><tspan x="261.211" y="0" fill="#FFFFFF" font-family="'Interstate-Black'" font-size="24">v</tspan><tspan x="274.507" y="0" fill="#FFFFFF" font-family="'Interstate-Black'" font-size="24">o </tspan></text>
	<text transform="matrix(1 0 0 1 7887.7969 7988.6035)"><tspan x="0" y="0" fill="#FFFFFF" font-family="'Interstate-Black'" font-size="24">de p</tspan><tspan x="48.431" y="0" fill="#FFFFFF" font-family="'Interstate-Black'" font-size="24">o</tspan><tspan x="61.99" y="0" fill="#FFFFFF" font-family="'Interstate-Black'" font-size="24">t</tspan><tspan x="72.311" y="0" fill="#FFFFFF" font-family="'Interstate-Black'" font-size="24">enciali</tspan><tspan x="147.141" y="0" fill="#FFFFFF" font-family="'Interstate-Black'" font-size="24">z</tspan><tspan x="160.389" y="0" fill="#FFFFFF" font-family="'Interstate-Black'" font-size="24">ar o </tspan></text>
	<text transform="matrix(1 0 0 1 7824.1719 8017.4043)"><tspan x="0" y="0" fill="#FFFFFF" font-family="'Interstate-Black'" font-size="24">i</tspan><tspan x="7.248" y="0" fill="#FFFFFF" font-family="'Interstate-Black'" font-size="24">n</tspan><tspan x="21.313" y="0" fill="#FFFFFF" font-family="'Interstate-Black'" font-size="24">t</tspan><tspan x="31.607" y="0" fill="#FFFFFF" font-family="'Interstate-Black'" font-size="24">e</tspan><tspan x="44.664" y="0" fill="#FFFFFF" font-family="'Interstate-Black'" font-size="24">r</tspan><tspan x="55.056" y="0" fill="#FFFFFF" font-family="'Interstate-Black'" font-size="24">câmbio de </tspan><tspan x="179.301" y="0" fill="#FFFFFF" font-family="'Interstate-Black'" font-size="24">v</tspan><tspan x="192.405" y="0" fill="#FFFFFF" font-family="'Interstate-Black'" font-size="24">alo</tspan><tspan x="226.701" y="0" fill="#FFFFFF" font-family="'Interstate-Black'" font-size="24">r</tspan><tspan x="237.092" y="0" fill="#FFFFFF" font-family="'Interstate-Black'" font-size="24">e</tspan><tspan x="249.908" y="0" fill="#FFFFFF" font-family="'Interstate-Black'" font-size="24">s</tspan><tspan x="262.196" y="0" fill="#FFFFFF" font-family="'Interstate-Black'" font-size="24">, </tspan></text>
	<text transform="matrix(1 0 0 1 7818.2676 8046.2041)"><tspan x="0" y="0" fill="#FFFFFF" font-family="'Interstate-Black'" font-size="24">edu</tspan><tspan x="40.943" y="0" fill="#FFFFFF" font-family="'Interstate-Black'" font-size="24">c</tspan><tspan x="53.328" y="0" fill="#FFFFFF" font-family="'Interstate-Black'" font-size="24">ação e </tspan><tspan x="135.143" y="0" fill="#FFFFFF" font-family="'Interstate-Black'" font-size="24">c</tspan><tspan x="147.502" y="0" fill="#FFFFFF" font-family="'Interstate-Black'" font-size="24">ul</tspan><tspan x="168.91" y="0" fill="#FFFFFF" font-family="'Interstate-Black'" font-size="24">t</tspan><tspan x="179.518" y="0" fill="#FFFFFF" font-family="'Interstate-Black'" font-size="24">u</tspan><tspan x="193.678" y="0" fill="#FFFFFF" font-family="'Interstate-Black'" font-size="24">r</tspan><tspan x="203.854" y="0" fill="#FFFFFF" font-family="'Interstate-Black'" font-size="24">a </tspan><tspan x="225.165" y="0" fill="#FFFFFF" font-family="'Interstate-Black'" font-size="24">p</tspan><tspan x="238.725" y="0" fill="#FFFFFF" font-family="'Interstate-Black'" font-size="24">a</tspan><tspan x="252.117" y="0" fill="#FFFFFF" font-family="'Interstate-Black'" font-size="24">r</tspan><tspan x="262.269" y="0" fill="#FFFFFF" font-family="'Interstate-Black'" font-size="24">a </tspan></text>
	<text transform="matrix(1 0 0 1 7806.1484 8075.0039)"><tspan x="0" y="0" fill="#FFFFFF" font-family="'Interstate-Black'" font-size="24">a populaçã</tspan><tspan x="123.094" y="0" fill="#FFFFFF" font-family="'Interstate-Black'" font-size="24">o</tspan><tspan x="136.078" y="0" fill="#FFFFFF" font-family="'Interstate-Black'" font-size="24">, por meio da </tspan></text>
	<text transform="matrix(1 0 0 1 7804.7803 8103.8037)"><tspan x="0" y="0" fill="#FFFFFF" font-family="'Interstate-Black'" font-size="24">p</tspan><tspan x="13.728" y="0" fill="#FFFFFF" font-family="'Interstate-Black'" font-size="24">r</tspan><tspan x="24.12" y="0" fill="#FFFFFF" font-family="'Interstate-Black'" font-size="24">odução e </tspan><tspan x="134.085" y="0" fill="#FFFFFF" font-family="'Interstate-Black'" font-size="24">v</tspan><tspan x="147.382" y="0" fill="#FFFFFF" font-family="'Interstate-Black'" font-size="24">ei</tspan><tspan x="167.685" y="0" fill="#FFFFFF" font-family="'Interstate-Black'" font-size="24">c</tspan><tspan x="180.069" y="0" fill="#FFFFFF" font-family="'Interstate-Black'" font-size="24">ulação de </tspan></text>
	<text transform="matrix(1 0 0 1 7825.5156 8132.6035)"><tspan x="0" y="0" fill="#FFFFFF" font-family="'Interstate-Black'" font-size="24">p</tspan><tspan x="13.729" y="0" fill="#FFFFFF" font-family="'Interstate-Black'" font-size="24">r</tspan><tspan x="24.12" y="0" fill="#FFFFFF" font-family="'Interstate-Black'" font-size="24">og</tspan><tspan x="51.504" y="0" fill="#FFFFFF" font-family="'Interstate-Black'" font-size="24">r</tspan><tspan x="61.68" y="0" fill="#FFFFFF" font-family="'Interstate-Black'" font-size="24">amas de </tspan><tspan x="164.758" y="0" fill="#FFFFFF" font-family="'Interstate-Black'" font-size="24">t</tspan><tspan x="175.055" y="0" fill="#FFFFFF" font-family="'Interstate-Black'" font-size="24">el</tspan><tspan x="195.357" y="0" fill="#FFFFFF" font-family="'Interstate-Black'" font-size="24">e</tspan><tspan x="207.838" y="0" fill="#FFFFFF" font-family="'Interstate-Black'" font-size="24">visão </tspan></text>
	<text transform="matrix(1 0 0 1 7856.8125 8161.4043)"><tspan x="0" y="0" fill="#FFFFFF" font-family="'Interstate-Black'" font-size="24">de i</tspan><tspan x="41.951" y="0" fill="#FFFFFF" font-family="'Interstate-Black'" font-size="24">n</tspan><tspan x="55.99" y="0" fill="#FFFFFF" font-family="'Interstate-Black'" font-size="24">t</tspan><tspan x="66.311" y="0" fill="#FFFFFF" font-family="'Interstate-Black'" font-size="24">e</tspan><tspan x="79.366" y="0" fill="#FFFFFF" font-family="'Interstate-Black'" font-size="24">r</tspan><tspan x="89.758" y="0" fill="#FFFFFF" font-family="'Interstate-Black'" font-size="24">e</tspan><tspan x="102.598" y="0" fill="#FFFFFF" font-family="'Interstate-Black'" font-size="24">s</tspan><tspan x="114.861" y="0" fill="#FFFFFF" font-family="'Interstate-Black'" font-size="24">s</tspan><tspan x="127.197" y="0" fill="#FFFFFF" font-family="'Interstate-Black'" font-size="24">e públi</tspan><tspan x="204.283" y="0" fill="#FFFFFF" font-family="'Interstate-Black'" font-size="24">c</tspan><tspan x="216.476" y="0" fill="#FFFFFF" font-family="'Interstate-Black'" font-size="24">o</tspan><tspan x="229.604" y="0" fill="#FFFFFF" font-family="'Interstate-Black'" font-size="24">.</tspan></text>
</g>
<g>
	<text transform="matrix(1 0 0 1 7863.793 8246.5098)"><tspan x="0" y="0" fill="#FFFFFF" font-family="'Interstate-Black'" font-size="24">I</tspan><tspan x="8.639" y="0" fill="#FFFFFF" font-family="'Interstate-Black'" font-size="24">n</tspan><tspan x="22.92" y="0" fill="#FFFFFF" font-family="'Interstate-Black'" font-size="24">t</tspan><tspan x="33.455" y="0" fill="#FFFFFF" font-family="'Interstate-Black'" font-size="24">eg</tspan><tspan x="60.719" y="0" fill="#FFFFFF" font-family="'Interstate-Black'" font-size="24">r</tspan><tspan x="71.135" y="0" fill="#FFFFFF" font-family="'Interstate-Black'" font-size="24">a</tspan><tspan x="84.742" y="0" fill="#FFFFFF" font-family="'Interstate-Black'" font-size="24">d</tspan><tspan x="98.71" y="0" fill="#FFFFFF" font-family="'Interstate-Black'" font-size="24">a</tspan><tspan x="112.318" y="0" fill="#FFFFFF" font-family="'Interstate-Black'" font-size="24"> </tspan><tspan x="120.479" y="0" fill="#FFFFFF" font-family="'Interstate-Black'" font-size="24">à</tspan><tspan x="134.086" y="0" fill="#FFFFFF" font-family="'Interstate-Black'" font-size="24"> políti</tspan><tspan x="203.612" y="0" fill="#FFFFFF" font-family="'Interstate-Black'" font-size="24">c</tspan><tspan x="216.212" y="0" fill="#FFFFFF" font-family="'Interstate-Black'" font-size="24">a </tspan></text>
	<text transform="matrix(1 0 0 1 7877.2803 8275.502)"><tspan x="0" y="0" fill="#FFFFFF" font-family="'Interstate-Black'" font-size="24">c</tspan><tspan x="12.6" y="0" fill="#FFFFFF" font-family="'Interstate-Black'" font-size="24">u</tspan><tspan x="26.976" y="0" fill="#FFFFFF" font-family="'Interstate-Black'" font-size="24">l</tspan><tspan x="34.463" y="0" fill="#FFFFFF" font-family="'Interstate-Black'" font-size="24">t</tspan><tspan x="45.312" y="0" fill="#FFFFFF" font-family="'Interstate-Black'" font-size="24">u</tspan><tspan x="59.688" y="0" fill="#FFFFFF" font-family="'Interstate-Black'" font-size="24">r</tspan><tspan x="70.104" y="0" fill="#FFFFFF" font-family="'Interstate-Black'" font-size="24">a</tspan><tspan x="83.711" y="0" fill="#FFFFFF" font-family="'Interstate-Black'" font-size="24">l do E</tspan><tspan x="151.629" y="0" fill="#FFFFFF" font-family="'Interstate-Black'" font-size="24">s</tspan><tspan x="164.182" y="0" fill="#FFFFFF" font-family="'Interstate-Black'" font-size="24">t</tspan><tspan x="174.885" y="0" fill="#FFFFFF" font-family="'Interstate-Black'" font-size="24">ad</tspan><tspan x="202.485" y="0" fill="#FFFFFF" font-family="'Interstate-Black'" font-size="24">o </tspan></text>
	<text transform="matrix(1 0 0 1 7851.6484 8304.4941)"><tspan x="0" y="0" fill="#FFFFFF" font-family="'Interstate-Black'" font-size="24">de </tspan><tspan x="35.424" y="0" fill="#FFFFFF" font-family="'Interstate-Black'" font-size="24">M</tspan><tspan x="55.896" y="0" fill="#FFFFFF" font-family="'Interstate-Black'" font-size="24">in</tspan><tspan x="77.782" y="0" fill="#FFFFFF" font-family="'Interstate-Black'" font-size="24">a</tspan><tspan x="91.391" y="0" fill="#FFFFFF" font-family="'Interstate-Black'" font-size="24">s </tspan><tspan x="112.342" y="0" fill="#FFFFFF" font-family="'Interstate-Black'" font-size="24">G</tspan><tspan x="129.862" y="0" fill="#FFFFFF" font-family="'Interstate-Black'" font-size="24">e</tspan><tspan x="143.158" y="0" fill="#FFFFFF" font-family="'Interstate-Black'" font-size="24">r</tspan><tspan x="153.574" y="0" fill="#FFFFFF" font-family="'Interstate-Black'" font-size="24">a</tspan><tspan x="167.182" y="0" fill="#FFFFFF" font-family="'Interstate-Black'" font-size="24">i</tspan><tspan x="174.669" y="0" fill="#FFFFFF" font-family="'Interstate-Black'" font-size="24">s</tspan><tspan x="187.197" y="0" fill="#FFFFFF" font-family="'Interstate-Black'" font-size="24">,</tspan><tspan x="194.949" y="0" fill="#FFFFFF" font-family="'Interstate-Black'" font-size="24"> po</tspan><tspan x="230.973" y="0" fill="#FFFFFF" font-family="'Interstate-Black'" font-size="24">r </tspan></text>
	<text transform="matrix(1 0 0 1 7871.2559 8333.4863)"><tspan x="0" y="0" fill="#FFFFFF" font-family="'Interstate-Black'" font-size="24">meio d</tspan><tspan x="78.167" y="0" fill="#FFFFFF" font-family="'Interstate-Black'" font-size="24">a</tspan><tspan x="91.774" y="0" fill="#FFFFFF" font-family="'Interstate-Black'" font-size="24"> </tspan><tspan x="99.935" y="0" fill="#FFFFFF" font-family="'Interstate-Black'" font-size="24">S</tspan><tspan x="116.23" y="0" fill="#FFFFFF" font-family="'Interstate-Black'" font-size="24">ec</tspan><tspan x="142.246" y="0" fill="#FFFFFF" font-family="'Interstate-Black'" font-size="24">r</tspan><tspan x="152.901" y="0" fill="#FFFFFF" font-family="'Interstate-Black'" font-size="24">e</tspan><tspan x="166.005" y="0" fill="#FFFFFF" font-family="'Interstate-Black'" font-size="24">t</tspan><tspan x="176.709" y="0" fill="#FFFFFF" font-family="'Interstate-Black'" font-size="24">a</tspan><tspan x="190.341" y="0" fill="#FFFFFF" font-family="'Interstate-Black'" font-size="24">r</tspan><tspan x="201.31" y="0" fill="#FFFFFF" font-family="'Interstate-Black'" font-size="24">i</tspan><tspan x="208.797" y="0" fill="#FFFFFF" font-family="'Interstate-Black'" font-size="24">a </tspan></text>
	<text transform="matrix(1 0 0 1 7838.3047 8362.4785)"><tspan x="0" y="0" fill="#FFFFFF" font-family="'Interstate-Black'" font-size="24">de E</tspan><tspan x="51.67" y="0" fill="#FFFFFF" font-family="'Interstate-Black'" font-size="24">s</tspan><tspan x="64.223" y="0" fill="#FFFFFF" font-family="'Interstate-Black'" font-size="24">t</tspan><tspan x="74.927" y="0" fill="#FFFFFF" font-family="'Interstate-Black'" font-size="24">a</tspan><tspan x="88.534" y="0" fill="#FFFFFF" font-family="'Interstate-Black'" font-size="24">do de </tspan><tspan x="159.98" y="0" fill="#FFFFFF" font-family="'Interstate-Black'" font-size="24">C</tspan><tspan x="176.444" y="0" fill="#FFFFFF" font-family="'Interstate-Black'" font-size="24">u</tspan><tspan x="190.82" y="0" fill="#FFFFFF" font-family="'Interstate-Black'" font-size="24">l</tspan><tspan x="198.308" y="0" fill="#FFFFFF" font-family="'Interstate-Black'" font-size="24">t</tspan><tspan x="209.132" y="0" fill="#FFFFFF" font-family="'Interstate-Black'" font-size="24">u</tspan><tspan x="223.532" y="0" fill="#FFFFFF" font-family="'Interstate-Black'" font-size="24">r</tspan><tspan x="233.924" y="0" fill="#FFFFFF" font-family="'Interstate-Black'" font-size="24">a</tspan><tspan x="247.556" y="0" fill="#FFFFFF" font-family="'Interstate-Black'" font-size="24">, </tspan></text>
	<text transform="matrix(1 0 0 1 7862.4238 8391.4697)"><tspan x="0" y="0" fill="#FFFFFF" font-family="'Interstate-Black'" font-size="24">a</tspan><tspan x="13.608" y="0" fill="#FFFFFF" font-family="'Interstate-Black'" font-size="24"> </tspan><tspan x="21.768" y="0" fill="#FFFFFF" font-family="'Interstate-Black'" font-size="24">R</tspan><tspan x="38.592" y="0" fill="#FFFFFF" font-family="'Interstate-Black'" font-size="24">ede </tspan><tspan x="87.311" y="0" fill="#FFFFFF" font-family="'Interstate-Black'" font-size="24">M</tspan><tspan x="107.783" y="0" fill="#FFFFFF" font-family="'Interstate-Black'" font-size="24">i</tspan><tspan x="115.271" y="0" fill="#FFFFFF" font-family="'Interstate-Black'" font-size="24">n</tspan><tspan x="129.646" y="0" fill="#FFFFFF" font-family="'Interstate-Black'" font-size="24">a</tspan><tspan x="143.278" y="0" fill="#FFFFFF" font-family="'Interstate-Black'" font-size="24">s</tspan><tspan x="156.046" y="0" fill="#FFFFFF" font-family="'Interstate-Black'" font-size="24"> </tspan><tspan x="164.206" y="0" fill="#FFFFFF" font-family="'Interstate-Black'" font-size="24">t</tspan><tspan x="174.742" y="0" fill="#FFFFFF" font-family="'Interstate-Black'" font-size="24">em </tspan><tspan x="217.557" y="0" fill="#FFFFFF" font-family="'Interstate-Black'" font-size="24">a </tspan></text>
	<text transform="matrix(1 0 0 1 7843.873 8420.4619)"><tspan x="0" y="0" fill="#FFFFFF" font-family="'Interstate-Black'" font-size="24">mi</tspan><tspan x="28.848" y="0" fill="#FFFFFF" font-family="'Interstate-Black'" font-size="24">s</tspan><tspan x="41.351" y="0" fill="#FFFFFF" font-family="'Interstate-Black'" font-size="24">sã</tspan><tspan x="67.727" y="0" fill="#FFFFFF" font-family="'Interstate-Black'" font-size="24">o de e</tspan><tspan x="138.501" y="0" fill="#FFFFFF" font-family="'Interstate-Black'" font-size="24">n</tspan><tspan x="152.877" y="0" fill="#FFFFFF" font-family="'Interstate-Black'" font-size="24">riq</tspan><tspan x="185.324" y="0" fill="#FFFFFF" font-family="'Interstate-Black'" font-size="24">u</tspan><tspan x="199.7" y="0" fill="#FFFFFF" font-family="'Interstate-Black'" font-size="24">e</tspan><tspan x="212.996" y="0" fill="#FFFFFF" font-family="'Interstate-Black'" font-size="24">c</tspan><tspan x="225.452" y="0" fill="#FFFFFF" font-family="'Interstate-Black'" font-size="24">e</tspan><tspan x="238.747" y="0" fill="#FFFFFF" font-family="'Interstate-Black'" font-size="24">r </tspan></text>
	<text transform="matrix(1 0 0 1 7866.3848 8449.4541)"><tspan x="0" y="0" fill="#FFFFFF" font-family="'Interstate-Black'" font-size="24">a</tspan><tspan x="13.607" y="0" fill="#FFFFFF" font-family="'Interstate-Black'" font-size="24"> </tspan><tspan x="21.768" y="0" fill="#FFFFFF" font-family="'Interstate-Black'" font-size="24">v</tspan><tspan x="35.688" y="0" fill="#FFFFFF" font-family="'Interstate-Black'" font-size="24">id</tspan><tspan x="57.143" y="0" fill="#FFFFFF" font-family="'Interstate-Black'" font-size="24">a</tspan><tspan x="70.751" y="0" fill="#FFFFFF" font-family="'Interstate-Black'" font-size="24"> das p</tspan><tspan x="141.43" y="0" fill="#FFFFFF" font-family="'Interstate-Black'" font-size="24">e</tspan><tspan x="154.485" y="0" fill="#FFFFFF" font-family="'Interstate-Black'" font-size="24">s</tspan><tspan x="167.013" y="0" fill="#FFFFFF" font-family="'Interstate-Black'" font-size="24">s</tspan><tspan x="179.564" y="0" fill="#FFFFFF" font-family="'Interstate-Black'" font-size="24">o</tspan><tspan x="193.341" y="0" fill="#FFFFFF" font-family="'Interstate-Black'" font-size="24">a</tspan><tspan x="206.948" y="0" fill="#FFFFFF" font-family="'Interstate-Black'" font-size="24">s</tspan><tspan x="219.477" y="0" fill="#FFFFFF" font-family="'Interstate-Black'" font-size="24">, </tspan></text>
	<text transform="matrix(1 0 0 1 7841.8809 8478.4463)"><tspan x="0" y="0" fill="#FFFFFF" font-family="'Interstate-Black'" font-size="24">po</tspan><tspan x="27.863" y="0" fill="#FFFFFF" font-family="'Interstate-Black'" font-size="24">r</tspan><tspan x="38.831" y="0" fill="#FFFFFF" font-family="'Interstate-Black'" font-size="24"> meio de </tspan><tspan x="146.612" y="0" fill="#FFFFFF" font-family="'Interstate-Black'" font-size="24">s</tspan><tspan x="159.164" y="0" fill="#FFFFFF" font-family="'Interstate-Black'" font-size="24">e</tspan><tspan x="172.46" y="0" fill="#FFFFFF" font-family="'Interstate-Black'" font-size="24">r</tspan><tspan x="183.668" y="0" fill="#FFFFFF" font-family="'Interstate-Black'" font-size="24">v</tspan><tspan x="197.588" y="0" fill="#FFFFFF" font-family="'Interstate-Black'" font-size="24">iç</tspan><tspan x="217.795" y="0" fill="#FFFFFF" font-family="'Interstate-Black'" font-size="24">o</tspan><tspan x="231.451" y="0" fill="#FFFFFF" font-family="'Interstate-Black'" font-size="24">s</tspan><tspan x="243.955" y="0" fill="#FFFFFF" font-family="'Interstate-Black'" font-size="24">, </tspan></text>
	<text transform="matrix(1 0 0 1 7831.6797 8507.4385)"><tspan x="0" y="0" fill="#FFFFFF" font-family="'Interstate-Black'" font-size="24">p</tspan><tspan x="13.969" y="0" fill="#FFFFFF" font-family="'Interstate-Black'" font-size="24">r</tspan><tspan x="24.624" y="0" fill="#FFFFFF" font-family="'Interstate-Black'" font-size="24">od</tspan><tspan x="52.488" y="0" fill="#FFFFFF" font-family="'Interstate-Black'" font-size="24">u</tspan><tspan x="66.863" y="0" fill="#FFFFFF" font-family="'Interstate-Black'" font-size="24">çã</tspan><tspan x="93.215" y="0" fill="#FFFFFF" font-family="'Interstate-Black'" font-size="24">o</tspan><tspan x="106.463" y="0" fill="#FFFFFF" font-family="'Interstate-Black'" font-size="24">,</tspan><tspan x="114.215" y="0" fill="#FFFFFF" font-family="'Interstate-Black'" font-size="24"> di</tspan><tspan x="143.83" y="0" fill="#FFFFFF" font-family="'Interstate-Black'" font-size="24">s</tspan><tspan x="156.382" y="0" fill="#FFFFFF" font-family="'Interstate-Black'" font-size="24">t</tspan><tspan x="167.397" y="0" fill="#FFFFFF" font-family="'Interstate-Black'" font-size="24">rib</tspan><tspan x="199.845" y="0" fill="#FFFFFF" font-family="'Interstate-Black'" font-size="24">u</tspan><tspan x="214.221" y="0" fill="#FFFFFF" font-family="'Interstate-Black'" font-size="24">iç</tspan><tspan x="234.429" y="0" fill="#FFFFFF" font-family="'Interstate-Black'" font-size="24">ã</tspan><tspan x="248.036" y="0" fill="#FFFFFF" font-family="'Interstate-Black'" font-size="24">o </tspan></text>
	<text transform="matrix(1 0 0 1 7940.7842 8536.4297)"><tspan x="0" y="0" fill="#FFFFFF" font-family="'Interstate-Black'" font-size="24">e </tspan><tspan x="21.455" y="0" fill="#FFFFFF" font-family="'Interstate-Black'" font-size="24">e</tspan><tspan x="34.295" y="0" fill="#FFFFFF" font-family="'Interstate-Black'" font-size="24">xibiç</tspan><tspan x="89.974" y="0" fill="#FFFFFF" font-family="'Interstate-Black'" font-size="24">ã</tspan><tspan x="103.582" y="0" fill="#FFFFFF" font-family="'Interstate-Black'" font-size="24">o d</tspan><tspan x="139.604" y="0" fill="#FFFFFF" font-family="'Interstate-Black'" font-size="24">e </tspan></text>
	<text transform="matrix(1 0 0 1 7820.8086 8565.4219)"><tspan x="0" y="0" fill="#FFFFFF" font-family="'Interstate-Black'" font-size="24">c</tspan><tspan x="12.455" y="0" fill="#FFFFFF" font-family="'Interstate-Black'" font-size="24">o</tspan><tspan x="26.352" y="0" fill="#FFFFFF" font-family="'Interstate-Black'" font-size="24">n</tspan><tspan x="40.631" y="0" fill="#FFFFFF" font-family="'Interstate-Black'" font-size="24">t</tspan><tspan x="51.167" y="0" fill="#FFFFFF" font-family="'Interstate-Black'" font-size="24">eúd</tspan><tspan x="92.831" y="0" fill="#FFFFFF" font-family="'Interstate-Black'" font-size="24">o</tspan><tspan x="106.486" y="0" fill="#FFFFFF" font-family="'Interstate-Black'" font-size="24">s</tspan><tspan x="119.254" y="0" fill="#FFFFFF" font-family="'Interstate-Black'" font-size="24"> audi</tspan><tspan x="176.901" y="0" fill="#FFFFFF" font-family="'Interstate-Black'" font-size="24">o</tspan><tspan x="190.365" y="0" fill="#FFFFFF" font-family="'Interstate-Black'" font-size="24">v</tspan><tspan x="204.285" y="0" fill="#FFFFFF" font-family="'Interstate-Black'" font-size="24">i</tspan><tspan x="211.772" y="0" fill="#FFFFFF" font-family="'Interstate-Black'" font-size="24">sua</tspan><tspan x="252.524" y="0" fill="#FFFFFF" font-family="'Interstate-Black'" font-size="24">i</tspan><tspan x="260.012" y="0" fill="#FFFFFF" font-family="'Interstate-Black'" font-size="24">s </tspan></text>
	<text transform="matrix(1 0 0 1 7825.2002 8594.4141)"><tspan x="0" y="0" fill="#FFFFFF" font-family="'Interstate-Black'" font-size="24">i</tspan><tspan x="7.487" y="0" fill="#FFFFFF" font-family="'Interstate-Black'" font-size="24">n</tspan><tspan x="21.552" y="0" fill="#FFFFFF" font-family="'Interstate-Black'" font-size="24">f</tspan><tspan x="30.456" y="0" fill="#FFFFFF" font-family="'Interstate-Black'" font-size="24">o</tspan><tspan x="44.351" y="0" fill="#FFFFFF" font-family="'Interstate-Black'" font-size="24">r</tspan><tspan x="55.319" y="0" fill="#FFFFFF" font-family="'Interstate-Black'" font-size="24">ma</tspan><tspan x="90.311" y="0" fill="#FFFFFF" font-family="'Interstate-Black'" font-size="24">t</tspan><tspan x="101.327" y="0" fill="#FFFFFF" font-family="'Interstate-Black'" font-size="24">i</tspan><tspan x="108.814" y="0" fill="#FFFFFF" font-family="'Interstate-Black'" font-size="24">v</tspan><tspan x="122.351" y="0" fill="#FFFFFF" font-family="'Interstate-Black'" font-size="24">o</tspan><tspan x="136.006" y="0" fill="#FFFFFF" font-family="'Interstate-Black'" font-size="24">s</tspan><tspan x="148.534" y="0" fill="#FFFFFF" font-family="'Interstate-Black'" font-size="24">,</tspan><tspan x="156.286" y="0" fill="#FFFFFF" font-family="'Interstate-Black'" font-size="24"> </tspan><tspan x="164.445" y="0" fill="#FFFFFF" font-family="'Interstate-Black'" font-size="24">c</tspan><tspan x="177.045" y="0" fill="#FFFFFF" font-family="'Interstate-Black'" font-size="24">u</tspan><tspan x="191.421" y="0" fill="#FFFFFF" font-family="'Interstate-Black'" font-size="24">l</tspan><tspan x="198.909" y="0" fill="#FFFFFF" font-family="'Interstate-Black'" font-size="24">t</tspan><tspan x="209.732" y="0" fill="#FFFFFF" font-family="'Interstate-Black'" font-size="24">u</tspan><tspan x="224.108" y="0" fill="#FFFFFF" font-family="'Interstate-Black'" font-size="24">r</tspan><tspan x="234.524" y="0" fill="#FFFFFF" font-family="'Interstate-Black'" font-size="24">a</tspan><tspan x="248.133" y="0" fill="#FFFFFF" font-family="'Interstate-Black'" font-size="24">i</tspan><tspan x="255.62" y="0" fill="#FFFFFF" font-family="'Interstate-Black'" font-size="24">s </tspan></text>
	<text transform="matrix(1 0 0 1 7938.3359 8623.4063)"><tspan x="0" y="0" fill="#FFFFFF" font-family="'Interstate-Black'" font-size="24">e edu</tspan><tspan x="63.119" y="0" fill="#FFFFFF" font-family="'Interstate-Black'" font-size="24">c</tspan><tspan x="75.719" y="0" fill="#FFFFFF" font-family="'Interstate-Black'" font-size="24">at</tspan><tspan x="100.343" y="0" fill="#FFFFFF" font-family="'Interstate-Black'" font-size="24">i</tspan><tspan x="107.83" y="0" fill="#FFFFFF" font-family="'Interstate-Black'" font-size="24">v</tspan><tspan x="121.391" y="0" fill="#FFFFFF" font-family="'Interstate-Black'" font-size="24">o</tspan><tspan x="135.046" y="0" fill="#FFFFFF" font-family="'Interstate-Black'" font-size="24">s</tspan><tspan x="147.574" y="0" fill="#FFFFFF" font-family="'Interstate-Black'" font-size="24">.</tspan></text>
</g>
<g>
	<rect x="6566.519" y="8992.012" fill="none" width="182.582" height="20.626"/>
	<text transform="matrix(1 0 0 1 6566.7891 9012.5332)" fill="#FFFFFF" font-family="'Interstate-Bold'" font-size="28.1521">A Rede Minas</text>
	<rect x="6640.636" y="9159.402" fill="none" width="105.917" height="26.176"/>
	<text transform="matrix(1 0 0 1 6656.0732 9179.9238)"><tspan x="0" y="0" fill="#FFFFFF" font-family="'Interstate-Bold'" font-size="28.1521">Conta</tspan><tspan x="79.022" y="0" fill="#FFFFFF" font-family="'Interstate-Bold'" font-size="28.1521">-</tspan></text>
	<rect x="6604.428" y="9075.709" fill="none" width="145.6" height="23.988"/>
	<text transform="matrix(1 0 0 1 6691.7534 9096.2305)"><tspan x="0" y="0" fill="#FFFFFF" font-family="'Interstate-Bold'" font-size="28.1521">Pro</tspan><tspan x="46.816" y="0" fill="#FFFFFF" font-family="'Interstate-Bold'" font-size="28.1521">-</tspan></text>
	<polyline fill="none" stroke="#FFFFFF" stroke-width="2.8347" stroke-miterlimit="10" points="6335.1,9075.77 6590.338,9075.77 
		6590.338,9094.805 6335.1,9094.805 	"/>
</g>
<rect x="7819.9" y="8779.972" fill="none" width="244" height="617.646"/>
<text transform="matrix(1 0 0 1 7822.3008 8796.5029)"><tspan x="0" y="0" fill="#FFFFFF" font-family="'Interstate-Bold'" font-size="22.6772">Programas produzidos </tspan><tspan x="61.636" y="27.213" fill="#FFFFFF" font-family="'Interstate-Bold'" font-size="22.6772">pela Rede Minas:</tspan><tspan x="58.62" y="136.063" fill="#FFFFFF" font-family="'Interstate-Bold'" font-size="22.6772">Brasil das Gerais</tspan><tspan x="107.761" y="163.275" fill="#FFFFFF" font-family="'Interstate-Bold'" font-size="22.6772">Alto Falante</tspan><tspan x="154.883" y="190.488" fill="#FFFFFF" font-family="'Interstate-Bold'" font-size="22.6772">Agenda,</tspan><tspan x="137.535" y="217.701" fill="#FFFFFF" font-family="'Interstate-Bold'" font-size="22.6772">Harmonia</tspan><tspan x="35.602" y="244.913" fill="#FFFFFF" font-family="'Interstate-Bold'" font-size="22.6772">Imagem da Palavra</tspan><tspan x="64.084" y="272.126" fill="#FFFFFF" font-family="'Interstate-Bold'" font-size="22.6772">Palavra Cruzada</tspan><tspan x="102.386" y="299.339" fill="#FFFFFF" font-family="'Interstate-Bold'" font-size="22.6772">Jornal Minas</tspan><tspan x="91.501" y="326.552" fill="#FFFFFF" font-family="'Interstate-Bold'" font-size="22.6772">Opinião Minas</tspan><tspan x="99.937" y="353.764" fill="#FFFFFF" font-family="'Interstate-Bold'" font-size="22.6772">Bem Cultural</tspan><tspan x="121.798" y="380.977" fill="#FFFFFF" font-family="'Interstate-Bold'" font-size="22.6772">Hypershow</tspan><tspan x="81.522" y="408.189" fill="#FFFFFF" font-family="'Interstate-Bold'" font-size="22.6772">Dango Balango</tspan><tspan x="85.062" y="435.402" fill="#FFFFFF" font-family="'Interstate-Bold'" font-size="22.6772">Breve História</tspan><tspan x="74.969" y="462.614" fill="#FFFFFF" font-family="'Interstate-Bold'" font-size="22.6772">Meio-de-Campo</tspan><tspan x="122.069" y="489.827" fill="#FFFFFF" font-family="'Interstate-Bold'" font-size="22.6772">Mulhere-se</tspan><tspan x="153.273" y="517.04" fill="#FFFFFF" font-family="'Interstate-Bold'" font-size="22.6772">Noturno</tspan><tspan x="121.979" y="544.252" fill="#FFFFFF" font-family="'Interstate-Bold'" font-size="22.6772">Arrumação</tspan><tspan x="164.135" y="571.465" fill="#FFFFFF" font-family="'Interstate-Bold'" font-size="22.6772">Sou 60</tspan><tspan x="134.542" y="598.678" fill="#FFFFFF" font-family="'Interstate-Bold'" font-size="22.6772">Coletânea</tspan></text>
<g>
	<rect x="6566.615" y="9582.682" fill="none" width="181.579" height="26.941"/>
	<text transform="matrix(1 0 0 1 6652.7036 9603.2051)" fill="#FFFFFF" font-family="'Interstate-Bold'" font-size="28.1521">A Rede </text>
	<rect x="6640.733" y="9750.07" fill="none" width="105.701" height="25.553"/>
	<text transform="matrix(1 0 0 1 6655.9541 9770.5938)"><tspan x="0" y="0" fill="#FFFFFF" font-family="'Interstate-Bold'" font-size="28.1521">Conta</tspan><tspan x="79.022" y="0" fill="#FFFFFF" font-family="'Interstate-Bold'" font-size="28.1521">-</tspan></text>
	<rect x="6603.349" y="9666.379" fill="none" width="145.299" height="23.244"/>
	<text transform="matrix(1 0 0 1 6690.3735 9686.9023)"><tspan x="0" y="0" fill="#FFFFFF" font-family="'Interstate-Bold'" font-size="28.1521">Pro</tspan><tspan x="46.816" y="0" fill="#FFFFFF" font-family="'Interstate-Bold'" font-size="28.1521">-</tspan></text>
	<polyline fill="none" stroke="#FFFFFF" stroke-width="2.8347" stroke-miterlimit="10" points="6335.196,9750.191 
		6626.036,9750.191 6626.036,9769.227 6335.196,9769.227 	"/>
</g>
<g>
	<text transform="matrix(1 0 0 1 7950.1172 9716.3584)"><tspan x="0" y="0" fill="#FFFFFF" font-family="'Interstate-Black'" font-size="23">às </tspan><tspan x="32.452" y="0" fill="#FFFFFF" font-family="'Interstate-Black'" font-size="23">2</tspan><tspan x="48.368" y="0" fill="#FFFFFF" font-family="'Interstate-Black'" font-size="23">1h.</tspan></text>
	<g>
		<text transform="matrix(1 0 0 1 7816.1191 9550.7588)"><tspan x="0" y="0" fill="#FFFFFF" font-family="'Interstate-Black'" font-size="23">S</tspan><tspan x="15.409" y="0" fill="#FFFFFF" font-family="'Interstate-Black'" font-size="23">e</tspan><tspan x="27.76" y="0" fill="#FFFFFF" font-family="'Interstate-Black'" font-size="23">t</tspan><tspan x="37.65" y="0" fill="#FFFFFF" font-family="'Interstate-Black'" font-size="23">or </tspan><tspan x="68.631" y="0" fill="#FFFFFF" font-family="'Interstate-Black'" font-size="23">R</tspan><tspan x="84.523" y="0" fill="#FFFFFF" font-family="'Interstate-Black'" font-size="23">e</tspan><tspan x="96.828" y="0" fill="#FFFFFF" font-family="'Interstate-Black'" font-size="23">sponsá</tspan><tspan x="173.531" y="0" fill="#FFFFFF" font-family="'Interstate-Black'" font-size="23">v</tspan><tspan x="186.273" y="0" fill="#FFFFFF" font-family="'Interstate-Black'" font-size="23">el: </tspan></text>
		<text transform="matrix(1 0 0 1 7853.4248 9578.3584)"><tspan x="0" y="0" fill="#FFFFFF" font-family="'Interstate-Black'" font-size="23">A</tspan><tspan x="16.836" y="0" fill="#FFFFFF" font-family="'Interstate-Black'" font-size="23">t</tspan><tspan x="26.702" y="0" fill="#FFFFFF" font-family="'Interstate-Black'" font-size="23">endime</tspan><tspan x="105.638" y="0" fill="#FFFFFF" font-family="'Interstate-Black'" font-size="23">n</tspan><tspan x="119.093" y="0" fill="#FFFFFF" font-family="'Interstate-Black'" font-size="23">t</tspan><tspan x="128.982" y="0" fill="#FFFFFF" font-family="'Interstate-Black'" font-size="23">o ao </tspan></text>
		<text transform="matrix(1 0 0 1 7875.4121 9605.959)"><tspan x="0" y="0" fill="#FFFFFF" font-family="'Interstate-Black'" font-size="23" letter-spacing="-2">T</tspan><tspan x="12.766" y="0" fill="#FFFFFF" font-family="'Interstate-Black'" font-size="23">el</tspan><tspan x="32.223" y="0" fill="#FFFFFF" font-family="'Interstate-Black'" font-size="23">e</tspan><tspan x="44.527" y="0" fill="#FFFFFF" font-family="'Interstate-Black'" font-size="23">spec</tspan><tspan x="94.184" y="0" fill="#FFFFFF" font-family="'Interstate-Black'" font-size="23">t</tspan><tspan x="104.212" y="0" fill="#FFFFFF" font-family="'Interstate-Black'" font-size="23">ador</tspan></text>
		<text transform="matrix(1 0 0 1 7754.916 9661.1582)"><tspan x="0" y="0" fill="#FFFFFF" font-family="'Interstate-Black'" font-size="23">Horário de </tspan><tspan x="124.795" y="0" fill="#FFFFFF" font-family="'Interstate-Black'" font-size="23">A</tspan><tspan x="141.607" y="0" fill="#FFFFFF" font-family="'Interstate-Black'" font-size="23">t</tspan><tspan x="151.498" y="0" fill="#FFFFFF" font-family="'Interstate-Black'" font-size="23">endime</tspan><tspan x="230.433" y="0" fill="#FFFFFF" font-family="'Interstate-Black'" font-size="23">n</tspan><tspan x="243.888" y="0" fill="#FFFFFF" font-family="'Interstate-Black'" font-size="23">t</tspan><tspan x="253.777" y="0" fill="#FFFFFF" font-family="'Interstate-Black'" font-size="23">o: </tspan></text>
		<text transform="matrix(1 0 0 1 7756.8711 9688.7588)"><tspan x="0" y="0" fill="#FFFFFF" font-family="'Interstate-Black'" font-size="23">S</tspan><tspan x="15.409" y="0" fill="#FFFFFF" font-family="'Interstate-Black'" font-size="23">egunda a </tspan><tspan x="122.22" y="0" fill="#FFFFFF" font-family="'Interstate-Black'" font-size="23">s</tspan><tspan x="134.019" y="0" fill="#FFFFFF" font-family="'Interstate-Black'" font-size="23">e</tspan><tspan x="146.094" y="0" fill="#FFFFFF" font-family="'Interstate-Black'" font-size="23">x</tspan><tspan x="159.295" y="0" fill="#FFFFFF" font-family="'Interstate-Black'" font-size="23">t</tspan><tspan x="169.301" y="0" fill="#FFFFFF" font-family="'Interstate-Black'" font-size="23">a, das 9h </tspan></text>
		<text transform="matrix(1 0 0 1 7818.8789 9771.5586)"><tspan x="0" y="0" fill="#FFFFFF" font-family="'Interstate-Black'" font-size="23">(</tspan><tspan x="9.889" y="0" fill="#FFFFFF" font-family="'Interstate-Black'" font-size="23">3</tspan><tspan x="25.438" y="0" fill="#FFFFFF" font-family="'Interstate-Black'" font-size="23">1) </tspan><tspan x="52.6" y="0" fill="#FFFFFF" font-family="'Interstate-Black'" font-size="23">3</tspan><tspan x="67.549" y="0" fill="#FFFFFF" font-family="'Interstate-Black'" font-size="23">2</tspan><tspan x="83.074" y="0" fill="#FFFFFF" font-family="'Interstate-Black'" font-size="23">5</tspan><tspan x="99.428" y="0" fill="#FFFFFF" font-family="'Interstate-Black'" font-size="23">4</tspan><tspan x="116.125" y="0" fill="#FFFFFF" font-family="'Interstate-Black'" font-size="23" letter-spacing="-1">-</tspan><tspan x="125.946" y="0" fill="#FFFFFF" font-family="'Interstate-Black'" font-size="23">3</tspan><tspan x="141.426" y="0" fill="#FFFFFF" font-family="'Interstate-Black'" font-size="23">000 / </tspan></text>
		<text transform="matrix(1 0 0 1 7750.9824 9799.1582)"><tspan x="0" y="0" fill="#FFFFFF" font-family="'Interstate-Black'" font-size="23">a</tspan><tspan x="12.834" y="0" fill="#FFFFFF" font-family="'Interstate-Black'" font-size="23">t</tspan><tspan x="22.701" y="0" fill="#FFFFFF" font-family="'Interstate-Black'" font-size="23">endime</tspan><tspan x="101.636" y="0" fill="#FFFFFF" font-family="'Interstate-Black'" font-size="23">n</tspan><tspan x="115.113" y="0" fill="#FFFFFF" font-family="'Interstate-Black'" font-size="23">t</tspan><tspan x="124.98" y="0" fill="#FFFFFF" font-family="'Interstate-Black'" font-size="23">o@</tspan><tspan x="157.295" y="0" fill="#FFFFFF" font-family="'Interstate-Black'" font-size="23">r</tspan><tspan x="167.254" y="0" fill="#FFFFFF" font-family="'Interstate-Black'" font-size="23">edemina</tspan><tspan x="259.023" y="0" fill="#FFFFFF" font-family="'Interstate-Black'" font-size="23">s</tspan><tspan x="270.775" y="0" fill="#FFFFFF" font-family="'Interstate-Black'" font-size="23">.</tspan></text>
		<g>
			<defs>
				<rect id="SVGID_3_" x="7731.23" y="9525.992" width="333.573" height="306.32"/>
			</defs>
			<clipPath id="SVGID_4_">
				<use xlink:href="#SVGID_3_"  overflow="visible"/>
			</clipPath>
			<g clip-path="url(#SVGID_4_)">
				<text transform="matrix(1 0 0 1 7921.0664 9826.7588)"><tspan x="0" y="0" fill="#FFFFFF" font-family="'Interstate-Black'" font-size="23">mg</tspan><tspan x="33.396" y="0" fill="#FFFFFF" font-family="'Interstate-Black'" font-size="23">.</tspan><tspan x="40.342" y="0" fill="#FFFFFF" font-family="'Interstate-Black'" font-size="23">g</tspan><tspan x="53.497" y="0" fill="#FFFFFF" font-family="'Interstate-Black'" font-size="23">o</tspan><tspan x="66.17" y="0" fill="#FFFFFF" font-family="'Interstate-Black'" font-size="23" letter-spacing="-2">v</tspan><tspan x="77.256" y="0" fill="#FFFFFF" font-family="'Interstate-Black'" font-size="23">.br</tspan></text>
			</g>
		</g>
	</g>
</g>
</svg>
