<?xml version="1.0" encoding="utf-8"?>
<!-- Generator: Adobe Illustrator 16.0.0, SVG Export Plug-In . SVG Version: 6.00 Build 0)  -->
<!DOCTYPE svg PUBLIC "-//W3C//DTD SVG 1.1//EN" "http://www.w3.org/Graphics/SVG/1.1/DTD/svg11.dtd">
<svg version="1.1" id="Layer_1" xmlns="http://www.w3.org/2000/svg" xmlns:xlink="http://www.w3.org/1999/xlink" x="0px" y="0px"
	 width="1920px" height="1080px" viewBox="0 0 1920 1080" enable-background="new 0 0 1920 1080" xml:space="preserve">
<g>
	<g>
		<g>
			<g>
				<path fill="#FFFFFF" d="M990.004,601.543l-23.686-52.029c-1.17-2.404-2.408-5.24-3.578-8.012
					c0.127,4.838,0.186,9.986,0.186,13.027v41.678h-25.165V484.184h24.118l23.076,50.078c1.904,4.084,3.939,9.057,5.48,13.072
					c1.541-4.082,3.574-9.008,5.422-13.047l22.271-50.104h24.672v112.023h-25.658v-41.678c0-3.041,0.121-8.189,0.193-13.027
					c-1.238,2.771-2.475,5.584-3.521,7.994L990.004,601.543L990.004,601.543z"/>
			</g>
			<g>
				<path fill="#FFFFFF" d="M1100.596,596.207h-25.662V484.184h25.662V596.207L1100.596,596.207z"/>
			</g>
			<g>
				<path fill="#FFFFFF" d="M1227.045,596.207h-22.396l-40.645-60.424c-1.111-1.635-2.152-3.385-3.336-5.107
					c0,0.631,0,1.316,0,2.043c0.197,5.016,0.252,10.666,0.252,13.938v49.551h-25.414V484.184h23.816l39.225,58.451
					c1.055,1.707,2.223,3.5,3.334,5.225c0-0.635,0-1.295,0-1.979c-0.123-5.059-0.193-10.668-0.193-14.027v-47.67h25.357V596.207
					L1227.045,596.207z"/>
			</g>
			<g>
				<path fill="#FFFFFF" d="M1403.885,597.91c-18.639,0-34.982-7.697-43.619-20.473l-1.041-1.502l18.498-16.434l1.291,1.545
					c6.668,7.74,15.428,11.623,26.096,11.623c14.744,0,16.773-4.857,16.773-9.672c0-5.221-2.156-8.014-22.506-12.643
					c-17.883-4.131-35.342-10.213-35.342-34.186c0-19.861,16.715-33.707,40.586-33.707c16.162,0,29.475,5.809,40.826,17.613
					l1.42,1.473l-18.504,17.936l-1.418-1.455c-7.025-7.129-14.369-10.484-23.061-10.484c-8.512,0-13.393,2.811-13.393,7.67
					c0,4.904,2.475,6.813,20.166,10.986c14.064,3.295,37.693,8.787,37.693,35.275C1448.352,584.973,1432.498,597.91,1403.885,597.91
					L1403.885,597.91z"/>
			</g>
		</g>
		<g>
			<path fill="#FFFFFF" d="M719.039,514.875h-7.525v50.055h6.855c16.151,0,25.037-8.879,25.037-25.016
				C743.406,522.367,736.064,514.875,719.039,514.875z"/>
			<path fill="#FFFFFF" d="M512.781,514.875h-21.157v19.092h21.157c7.342,0,10.804-3.047,10.804-9.668
				C523.585,517.891,520.123,514.875,512.781,514.875z"/>
			<path fill="#FFFFFF" d="M429.643,451.223v177.555h1060.715V451.223H429.643z M522.1,585.316l-15.608-31.441h-14.867v31.441
				h-20.839v-90.848h42.369c19.376,0,31.826,11.6,31.826,29.441c0,13.029-5.303,21.723-16.163,26.627l17.15,34.779H522.1z
				 M650.646,585.316h-65.942v-90.848h64.025v20.545h-43.175v11.709h25.104v20.387h-25.104v17.705h45.092V585.316z M718.369,585.316
				h-27.762v-90.848h29.056c20.603,0,45.151,7.922,45.151,45.445C764.814,573.439,739.832,585.316,718.369,585.316z
				 M869.606,585.316h-65.931v-90.848h64.078v20.545h-43.243v11.709h25.107v20.387h-25.107v17.705h45.096V585.316z M1478.326,616.82
				H903.709V463.184h574.617V616.82z"/>
		</g>
	</g>
	<g>
		<path fill="#FFFFFF" d="M1349.02,596.242h-28.129l-8.422-23.959h-36.492l-8.494,23.959h-27.502l42.859-112.279h23.701
			L1349.02,596.242L1349.02,596.242z M1283.355,551.57h22.162c0,0-9.998-28.76-11.096-32.135
			C1293.313,522.811,1283.355,551.57,1283.355,551.57z"/>
	</g>
</g>
</svg>
