<?xml version="1.0" encoding="utf-8"?>
<!-- Generator: Adobe Illustrator 16.0.0, SVG Export Plug-In . SVG Version: 6.00 Build 0)  -->
<!DOCTYPE svg PUBLIC "-//W3C//DTD SVG 1.1//EN" "http://www.w3.org/Graphics/SVG/1.1/DTD/svg11.dtd">
<svg version="1.1" id="Layer_1" xmlns="http://www.w3.org/2000/svg" xmlns:xlink="http://www.w3.org/1999/xlink" x="0px" y="0px"
	 width="1920px" height="1080px" viewBox="0 0 1920 1080" enable-background="new 0 0 1920 1080" xml:space="preserve">
<g>
	<g>
		<g>
			<g>
				<path fill="#FFFFFF" d="M990.504,358.708l-23.686-52.029c-1.17-2.404-2.408-5.24-3.578-8.012
					c0.127,4.838,0.186,9.986,0.186,13.027v41.678h-25.165V241.348h24.118l23.076,50.078c1.904,4.084,3.939,9.057,5.48,13.072
					c1.541-4.082,3.574-9.008,5.422-13.047l22.271-50.104h24.672v112.023h-25.658v-41.678c0-3.041,0.121-8.189,0.193-13.027
					c-1.238,2.771-2.475,5.584-3.521,7.994L990.504,358.708L990.504,358.708z"/>
			</g>
			<g>
				<path fill="#FFFFFF" d="M1101.096,353.372h-25.662V241.348h25.662V353.372L1101.096,353.372z"/>
			</g>
			<g>
				<path fill="#FFFFFF" d="M1227.545,353.372h-22.396l-40.645-60.424c-1.111-1.635-2.152-3.385-3.336-5.107
					c0,0.631,0,1.316,0,2.043c0.197,5.016,0.252,10.666,0.252,13.938v49.551h-25.414V241.348h23.816l39.225,58.451
					c1.055,1.707,2.223,3.5,3.334,5.225c0-0.635,0-1.295,0-1.979c-0.123-5.059-0.193-10.668-0.193-14.027v-47.67h25.357V353.372
					L1227.545,353.372z"/>
			</g>
			<g>
				<path fill="#FFFFFF" d="M1404.385,355.075c-18.639,0-34.982-7.697-43.619-20.473l-1.041-1.502l18.498-16.434l1.291,1.545
					c6.668,7.74,15.428,11.623,26.096,11.623c14.744,0,16.773-4.857,16.773-9.672c0-5.221-2.156-8.014-22.506-12.643
					c-17.883-4.131-35.342-10.213-35.342-34.186c0-19.861,16.715-33.707,40.586-33.707c16.162,0,29.475,5.809,40.826,17.613
					l1.42,1.473l-18.504,17.936l-1.418-1.455c-7.025-7.129-14.369-10.484-23.061-10.484c-8.512,0-13.393,2.811-13.393,7.67
					c0,4.904,2.475,6.813,20.166,10.986c14.064,3.295,37.693,8.787,37.693,35.275
					C1448.852,342.137,1432.998,355.075,1404.385,355.075L1404.385,355.075z"/>
			</g>
		</g>
		<g>
			<path fill="#FFFFFF" d="M719.539,272.04h-7.525v50.055h6.855c16.151,0,25.037-8.879,25.037-25.016
				C743.906,279.532,736.564,272.04,719.539,272.04z"/>
			<path fill="#FFFFFF" d="M513.281,272.04h-21.157v19.092h21.157c7.342,0,10.804-3.047,10.804-9.668
				C524.085,275.055,520.623,272.04,513.281,272.04z"/>
			<path fill="#FFFFFF" d="M430.143,208.387v177.555h1060.715V208.387H430.143z M522.6,342.481l-15.608-31.441h-14.867v31.441
				h-20.839v-90.848h42.369c19.376,0,31.826,11.6,31.826,29.441c0,13.029-5.303,21.723-16.163,26.627l17.15,34.779H522.6z
				 M651.146,342.481h-65.942v-90.848h64.025v20.545h-43.175v11.709h25.104v20.387h-25.104v17.705h45.092V342.481z M718.869,342.481
				h-27.762v-90.848h29.056c20.603,0,45.151,7.922,45.151,45.445C765.314,330.604,740.332,342.481,718.869,342.481z
				 M870.106,342.481h-65.931v-90.848h64.078v20.545h-43.243v11.709h25.107v20.387h-25.107v17.705h45.096V342.481z
				 M1478.826,373.985H904.209V220.348h574.617V373.985z"/>
		</g>
	</g>
	<g>
		<path fill="#FFFFFF" d="M1349.52,353.407h-28.129l-8.422-23.959h-36.492l-8.494,23.959h-27.502l42.859-112.279h23.701
			L1349.52,353.407L1349.52,353.407z M1283.855,308.735h22.162c0,0-9.998-28.76-11.096-32.135
			C1293.813,279.975,1283.855,308.735,1283.855,308.735z"/>
	</g>
</g>
<g>
	<path fill="#FFFFFF" d="M899.389,493.911c2.19-1.22,3.986-2.908,5.386-5.063c1.4-2.154,2.424-4.686,3.07-7.594
		c0.646-2.908,0.969-6.049,0.969-9.426c0-3.374-0.323-6.517-0.969-9.425c-0.646-2.908-1.67-5.439-3.07-7.594
		c-1.4-2.154-3.196-3.841-5.386-5.063c-2.191-1.221-4.793-1.832-7.81-1.832c-3.016,0-5.62,0.611-7.809,1.832
		c-2.191,1.222-3.986,2.908-5.386,5.063c-1.4,2.154-2.424,4.686-3.07,7.594c-0.646,2.908-0.969,6.051-0.969,9.425
		c0,3.377,0.323,6.518,0.969,9.426c0.646,2.908,1.67,5.439,3.07,7.594c1.4,2.154,3.194,3.843,5.386,5.063
		c2.189,1.222,4.793,1.831,7.809,1.831C894.595,495.742,897.197,495.132,899.389,493.911z"/>
	<path fill="#FFFFFF" d="M801.956,471.128c-0.435-1.185-1.065-2.262-1.896-3.231c-0.831-0.969-1.859-1.74-3.086-2.315
		c-1.229-0.574-2.673-0.862-4.333-0.862c-2.745,0-4.911,0.97-6.5,2.909c-1.589,1.938-2.528,4.346-2.815,7.217h19.497
		C802.677,473.552,802.388,472.314,801.956,471.128z"/>
	<path fill="#FFFFFF" d="M915.427,597.156c-0.831-0.969-1.859-1.74-3.086-2.314c-1.229-0.574-2.673-0.863-4.333-0.863
		c-2.745,0-4.911,0.971-6.5,2.91c-1.589,1.938-2.528,4.346-2.815,7.217h19.497c-0.145-1.293-0.434-2.531-0.867-3.717
		C916.888,599.203,916.257,598.127,915.427,597.156z"/>
	<path fill="#FFFFFF" d="M521.417,580.354c-1.976-1.543-4.65-2.316-8.025-2.316h-17.342v19.389h17.558
		c7.18,0,10.772-3.266,10.772-9.801C524.379,584.322,523.391,581.898,521.417,580.354z"/>
	<path fill="#FFFFFF" d="M1008.67,612.723c-2.8,0-4.938,0.611-6.409,1.83c-1.473,1.223-2.208,2.98-2.208,5.279
		c0,2.01,0.646,3.77,1.939,5.277c1.292,1.508,3.518,2.262,6.678,2.262c2.44,0,4.578-0.52,6.409-1.561
		c1.832-1.041,3.141-2.244,3.932-3.609v-7.109c-1.292-0.789-2.676-1.381-4.146-1.777
		C1013.392,612.92,1011.326,612.723,1008.67,612.723z"/>
	<path fill="#FFFFFF" d="M568.543,612.723c-2.801,0-4.938,0.611-6.409,1.83c-1.473,1.223-2.208,2.98-2.208,5.279
		c0,2.01,0.646,3.77,1.938,5.277c1.293,1.508,3.518,2.262,6.679,2.262c2.44,0,4.578-0.52,6.409-1.561s3.141-2.244,3.932-3.609
		v-7.109c-1.292-0.789-2.676-1.381-4.147-1.777C573.265,612.92,571.199,612.723,568.543,612.723z"/>
	<path fill="#FFFFFF" d="M583.3,465.796c-2.299,0-4.13,0.432-5.494,1.293c-1.365,0.862-2.585,2.012-3.662,3.447v21.328
		c2.37,3.231,5.709,4.847,10.018,4.847c5.887,0,8.833-4.811,8.833-14.434c0-5.817-0.88-10.018-2.639-12.604
		C588.595,467.089,586.244,465.796,583.3,465.796z"/>
	<path fill="#FFFFFF" d="M671.843,612.723c-2.801,0-4.938,0.611-6.409,1.83c-1.473,1.223-2.208,2.98-2.208,5.279
		c0,2.01,0.646,3.77,1.938,5.277c1.293,1.508,3.518,2.262,6.679,2.262c2.44,0,4.578-0.52,6.409-1.561s3.141-2.244,3.932-3.609
		v-7.109c-1.292-0.789-2.676-1.381-4.147-1.777C676.564,612.92,674.499,612.723,671.843,612.723z"/>
	<path fill="#FFFFFF" d="M650.617,471.128c-0.435-1.185-1.065-2.262-1.896-3.231c-0.831-0.969-1.859-1.74-3.086-2.315
		c-1.229-0.574-2.673-0.862-4.333-0.862c-2.745,0-4.911,0.97-6.5,2.909c-1.589,1.938-2.528,4.346-2.815,7.217h19.497
		C651.339,473.552,651.05,472.314,650.617,471.128z"/>
	<path fill="#FFFFFF" d="M1238.535,595.057c-5.889,0-8.833,4.813-8.833,14.434c0,5.816,0.879,10.018,2.64,12.604
		c1.759,2.584,4.109,3.877,7.055,3.877c2.298,0,4.129-0.43,5.494-1.293c1.363-0.861,2.585-2.008,3.662-3.445v-21.328
		C1246.183,596.672,1242.844,595.057,1238.535,595.057z"/>
	<path fill="#FFFFFF" d="M430.643,384.942v308.117h1060.715V384.942H430.643z M618.846,469.406c1.292-3.626,3.07-6.749,5.332-9.372
		c2.262-2.62,4.918-4.648,7.971-6.086c3.051-1.436,6.372-2.154,9.963-2.154c3.733,0,7.091,0.772,10.072,2.316
		c2.979,1.545,5.475,3.662,7.486,6.355c2.009,2.692,3.555,5.835,4.632,9.425c1.077,3.592,1.616,7.397,1.616,11.418
		c0,1.077-0.019,1.993-0.054,2.747c-0.037,0.754-0.091,1.419-0.161,1.992h-33.931c0.143,1.939,0.574,3.592,1.293,4.955
		c0.717,1.365,1.616,2.461,2.693,3.285c1.077,0.827,2.279,1.438,3.608,1.831c1.328,0.396,2.674,0.593,4.04,0.593
		c2.082,0,3.948-0.358,5.601-1.077c1.651-0.717,3.016-1.687,4.093-2.908l10.556,8.833c-2.299,2.945-5.296,5.207-8.994,6.786
		c-3.7,1.578-7.451,2.369-11.256,2.369c-4.093,0-7.769-0.7-11.026-2.101c-3.258-1.399-6.027-3.374-8.308-5.924
		c-2.282-2.548-4.046-5.637-5.293-9.264c-1.249-3.625-1.872-7.665-1.872-12.118C616.907,477,617.553,473.033,618.846,469.406z
		 M504.451,434.128h14.649l28.652,75.401h-16.588l-5.925-16.804h-27.575l-5.924,16.804h-16.158L504.451,434.128z M537.843,598.557
		c-1.365,3.125-3.269,5.693-5.709,7.703c-2.442,2.01-5.332,3.482-8.671,4.416c-3.339,0.934-6.948,1.4-10.825,1.4h-16.588v26.713
		h-15.081v-75.4h32.961c3.518,0,6.857,0.484,10.018,1.453c3.159,0.971,5.924,2.461,8.294,4.471c2.37,2.012,4.236,4.508,5.601,7.486
		c1.363,2.98,2.046,6.48,2.046,10.502C539.89,591.682,539.207,595.434,537.843,598.557z M593.749,638.789h-14.865v-3.77
		c-1.365,1.438-3.161,2.623-5.386,3.555c-2.227,0.932-4.669,1.4-7.325,1.4c-2.658,0-5.243-0.414-7.756-1.238
		c-2.515-0.826-4.758-2.064-6.732-3.717c-1.976-1.65-3.573-3.732-4.793-6.248c-1.222-2.512-1.832-5.492-1.832-8.939
		c0-3.088,0.593-5.816,1.777-8.188c1.185-2.369,2.817-4.324,4.901-5.869c2.082-1.545,4.505-2.711,7.271-3.502
		c2.764-0.789,5.763-1.186,8.995-1.186c2.585,0,4.739,0.234,6.463,0.701s3.194,0.988,4.417,1.563v-2.801
		c0-2.01-0.665-3.717-1.993-5.117c-1.33-1.4-3.358-2.1-6.086-2.1c-1.724,0-3.25,0.072-4.578,0.215
		c-1.33,0.145-2.585,0.359-3.77,0.646c-1.185,0.287-2.353,0.664-3.501,1.131c-1.149,0.467-2.37,1.061-3.662,1.777l-5.709-10.342
		c1.651-0.932,3.248-1.758,4.793-2.477c1.543-0.717,3.159-1.311,4.847-1.777c1.687-0.467,3.463-0.824,5.332-1.078
		c1.866-0.25,3.948-0.377,6.248-0.377c3.447,0,6.57,0.432,9.371,1.293s5.206,2.139,7.217,3.824c2.009,1.688,3.571,3.77,4.686,6.248
		c1.112,2.477,1.669,5.297,1.669,8.455V638.789z M602.366,502.69c-1.868,2.55-4.166,4.524-6.894,5.924
		c-2.73,1.4-5.854,2.101-9.371,2.101c-2.515,0-4.793-0.431-6.84-1.292c-2.046-0.862-3.753-1.902-5.116-3.124v16.588l-14.865,7.433
		v-77.34h14.865v3.555c1.436-1.221,3.105-2.316,5.009-3.286c1.902-0.969,4.218-1.454,6.948-1.454c3.016,0,5.852,0.576,8.509,1.724
		c2.656,1.149,4.991,2.962,7.002,5.439c2.009,2.478,3.59,5.62,4.739,9.426c1.148,3.807,1.724,8.331,1.724,13.572
		c0,4.237-0.485,8.115-1.454,11.633C605.651,497.107,604.232,500.142,602.366,502.69z M640.713,599.58
		c-1.222-1.076-2.55-1.955-3.986-2.639c-1.437-0.682-2.98-1.023-4.632-1.023c-1.437,0-2.747,0.18-3.932,0.539
		c-1.185,0.359-2.191,1.006-3.016,1.939c-0.826,0.934-1.473,2.191-1.938,3.77c-0.468,1.58-0.7,3.592-0.7,6.031v30.592h-14.865
		v-56.551h14.865v3.77c1.292-1.363,2.89-2.531,4.793-3.5c1.902-0.969,4.182-1.455,6.84-1.455c2.44,0,4.541,0.414,6.301,1.24
		c1.759,0.826,3.141,1.742,4.147,2.746L640.713,599.58z M697.049,638.789h-14.865v-3.77c-1.365,1.438-3.161,2.623-5.386,3.555
		c-2.227,0.932-4.669,1.4-7.325,1.4c-2.658,0-5.243-0.414-7.756-1.238c-2.515-0.826-4.758-2.064-6.732-3.717
		c-1.976-1.65-3.573-3.732-4.793-6.248c-1.222-2.512-1.832-5.492-1.832-8.939c0-3.088,0.593-5.816,1.777-8.188
		c1.185-2.369,2.817-4.324,4.901-5.869c2.082-1.545,4.505-2.711,7.271-3.502c2.764-0.789,5.763-1.186,8.995-1.186
		c2.585,0,4.739,0.234,6.463,0.701s3.194,0.988,4.417,1.563v-2.801c0-2.01-0.665-3.717-1.993-5.117c-1.33-1.4-3.358-2.1-6.086-2.1
		c-1.724,0-3.25,0.072-4.578,0.215c-1.33,0.145-2.585,0.359-3.77,0.646c-1.185,0.287-2.353,0.664-3.501,1.131
		c-1.149,0.467-2.37,1.061-3.662,1.777l-5.709-10.342c1.651-0.932,3.248-1.758,4.793-2.477c1.543-0.717,3.159-1.311,4.847-1.777
		c1.687-0.467,3.463-0.824,5.332-1.078c1.866-0.25,3.948-0.377,6.248-0.377c3.447,0,6.57,0.432,9.371,1.293s5.206,2.139,7.217,3.824
		c2.009,1.688,3.571,3.77,4.686,6.248c1.112,2.477,1.669,5.297,1.669,8.455V638.789z M710.835,470.321
		c-1.222-1.077-2.55-1.955-3.986-2.639c-1.437-0.682-2.98-1.023-4.632-1.023c-1.437,0-2.747,0.18-3.932,0.538
		c-1.185,0.36-2.191,1.007-3.016,1.939c-0.826,0.934-1.473,2.191-1.938,3.77c-0.468,1.581-0.7,3.592-0.7,6.032v30.592h-14.865
		v-56.551h14.865v3.77c1.292-1.363,2.89-2.531,4.793-3.501c1.902-0.969,4.182-1.454,6.84-1.454c2.44,0,4.541,0.414,6.301,1.239
		c1.759,0.826,3.141,1.742,4.147,2.746L710.835,470.321z M734.854,505.975c-1.292-1.508-2.299-3.302-3.016-5.386
		c-0.719-2.082-1.077-4.379-1.077-6.894v-26.714h-9.479v-14.003h9.479v-14.542l14.865-7.433v21.975h13.573v14.003h-13.573v22.728
		c0,2.73,0.466,4.543,1.4,5.44c0.933,0.898,2.297,1.346,4.093,1.346c1.363,0,2.639-0.322,3.824-0.969
		c1.185-0.646,2.709-1.759,4.578-3.34l-2.154,15.081c-1.222,1.006-2.873,1.831-4.955,2.478c-2.083,0.646-4.273,0.969-6.57,0.969
		c-2.299,0-4.381-0.414-6.248-1.238C737.726,508.651,736.146,507.483,734.854,505.975z M760.816,638.789h-15.081v-75.4h15.081
		V638.789z M775.41,502.69c-2.282-2.548-4.046-5.637-5.293-9.264c-1.249-3.625-1.872-7.665-1.872-12.118
		c0-4.309,0.646-8.275,1.939-11.902c1.292-3.626,3.07-6.749,5.332-9.372c2.262-2.62,4.918-4.648,7.971-6.086
		c3.051-1.436,6.372-2.154,9.963-2.154c3.733,0,7.091,0.772,10.072,2.316c2.979,1.545,5.475,3.662,7.486,6.355
		c2.009,2.692,3.555,5.835,4.632,9.425c1.077,3.592,1.616,7.397,1.616,11.418c0,1.077-0.019,1.993-0.054,2.747
		c-0.037,0.754-0.091,1.419-0.161,1.992H783.11c0.143,1.939,0.574,3.592,1.293,4.955c0.717,1.365,1.616,2.461,2.693,3.285
		c1.077,0.827,2.279,1.438,3.608,1.831c1.328,0.396,2.674,0.593,4.04,0.593c2.082,0,3.948-0.358,5.601-1.077
		c1.651-0.717,3.016-1.687,4.093-2.908l10.556,8.833c-2.299,2.945-5.296,5.207-8.994,6.786c-3.7,1.578-7.451,2.369-11.256,2.369
		c-4.093,0-7.769-0.7-11.026-2.101C780.459,507.214,777.69,505.24,775.41,502.69z M827.815,638.789h-14.865v-30.592
		c0-5.025-0.827-8.473-2.478-10.34c-1.653-1.867-4.022-2.801-7.109-2.801c-3.088,0-5.477,0.916-7.163,2.746
		c-1.688,1.832-2.531,5.189-2.531,10.072v30.914h-14.865v-56.551h14.865v3.77c1.292-1.363,3.07-2.531,5.332-3.5
		c2.262-0.969,4.901-1.455,7.917-1.455c7.18,0,12.458,2.316,15.834,6.949c3.375,4.631,5.063,10.932,5.063,18.904V638.789z
		 M872.734,636.527c-1.222,1.006-2.873,1.832-4.955,2.479c-2.083,0.645-4.273,0.969-6.57,0.969c-2.299,0-4.381-0.414-6.248-1.238
		c-1.868-0.826-3.447-1.994-4.74-3.502s-2.299-3.301-3.016-5.385c-0.719-2.082-1.077-4.379-1.077-6.895v-26.713h-9.479v-14.004
		h9.479v-14.541l14.865-7.434v21.975h13.573v14.004h-13.573v22.727c0,2.73,0.466,4.543,1.4,5.441
		c0.933,0.898,2.297,1.346,4.093,1.346c1.363,0,2.639-0.322,3.824-0.969c1.185-0.646,2.709-1.76,4.578-3.34L872.734,636.527z
		 M867.451,499.889c-2.8-3.41-4.938-7.503-6.409-12.279c-1.473-4.775-2.208-10.035-2.208-15.781c0-5.744,0.735-11.004,2.208-15.78
		c1.471-4.774,3.609-8.868,6.409-12.279c2.801-3.41,6.229-6.067,10.287-7.972c4.056-1.901,8.671-2.854,13.841-2.854
		s9.784,0.953,13.842,2.854c4.056,1.904,7.486,4.562,10.287,7.972c2.8,3.411,4.936,7.505,6.409,12.279
		c1.471,4.776,2.208,10.036,2.208,15.78c0,5.746-0.737,11.006-2.208,15.781c-1.473,4.776-3.609,8.869-6.409,12.279
		c-2.801,3.411-6.231,6.069-10.287,7.971c-4.058,1.902-8.671,2.854-13.842,2.854s-9.785-0.952-13.841-2.854
		C873.68,505.958,870.251,503.3,867.451,499.889z M932.569,613.314c-0.037,0.754-0.091,1.42-0.161,1.992h-33.931
		c0.143,1.939,0.574,3.592,1.293,4.955c0.717,1.365,1.616,2.461,2.693,3.285c1.077,0.828,2.279,1.438,3.608,1.832
		c1.328,0.395,2.674,0.592,4.04,0.592c2.082,0,3.948-0.357,5.601-1.076c1.651-0.717,3.016-1.688,4.093-2.908l10.556,8.832
		c-2.299,2.945-5.296,5.207-8.994,6.787c-3.7,1.578-7.451,2.369-11.256,2.369c-4.093,0-7.769-0.701-11.026-2.102
		c-3.258-1.398-6.027-3.373-8.308-5.924c-2.282-2.547-4.046-5.637-5.293-9.264c-1.249-3.625-1.872-7.664-1.872-12.117
		c0-4.309,0.646-8.275,1.939-11.902s3.07-6.75,5.332-9.373c2.262-2.619,4.918-4.648,7.971-6.086
		c3.051-1.436,6.372-2.154,9.963-2.154c3.733,0,7.091,0.773,10.072,2.316c2.979,1.545,5.475,3.662,7.486,6.355
		c2.009,2.693,3.555,5.836,4.632,9.426c1.077,3.592,1.616,7.396,1.616,11.418C932.624,611.645,932.605,612.561,932.569,613.314z
		 M939.727,434.128h15.081v21.436c0,0.719,0,1.634,0,2.747s-0.019,2.245-0.054,3.393c-0.037,1.149-0.072,2.262-0.107,3.339
		c-0.037,1.077-0.054,1.904-0.054,2.478c0.501-0.861,1.363-2.046,2.585-3.555c1.22-1.508,2.333-2.871,3.339-4.093l21.113-25.744
		h18.203l-22.082,26.067l27.684,49.334h-18.096l-20.468-36.408l-12.063,14.219v22.189h-15.081V434.128z M977.54,599.58
		c-1.221-1.076-2.55-1.955-3.985-2.639c-1.438-0.682-2.98-1.023-4.632-1.023c-1.437,0-2.747,0.18-3.932,0.539
		s-2.191,1.006-3.017,1.939c-0.826,0.934-1.472,2.191-1.938,3.77c-0.468,1.58-0.7,3.592-0.7,6.031v30.592h-14.865v-56.551h14.865
		v3.77c1.292-1.363,2.89-2.531,4.793-3.5c1.901-0.969,4.183-1.455,6.84-1.455c2.44,0,4.541,0.414,6.301,1.24
		s3.141,1.742,4.148,2.746L977.54,599.58z M1033.876,638.789h-14.865v-3.77c-1.364,1.438-3.16,2.623-5.386,3.555
		c-2.227,0.932-4.669,1.4-7.324,1.4c-2.658,0-5.243-0.414-7.756-1.238c-2.515-0.826-4.758-2.064-6.732-3.717
		c-1.976-1.65-3.573-3.732-4.793-6.248c-1.222-2.512-1.831-5.492-1.831-8.939c0-3.088,0.592-5.816,1.777-8.188
		c1.185-2.369,2.817-4.324,4.9-5.869c2.082-1.545,4.506-2.711,7.271-3.502c2.764-0.789,5.763-1.186,8.994-1.186
		c2.585,0,4.739,0.234,6.463,0.701s3.194,0.988,4.416,1.563v-2.801c0-2.01-0.664-3.717-1.992-5.117c-1.33-1.4-3.357-2.1-6.086-2.1
		c-1.724,0-3.25,0.072-4.578,0.215c-1.33,0.145-2.585,0.359-3.771,0.646c-1.185,0.287-2.353,0.664-3.5,1.131
		c-1.15,0.467-2.37,1.061-3.663,1.777l-5.709-10.342c1.651-0.932,3.249-1.758,4.794-2.477c1.543-0.717,3.159-1.311,4.847-1.777
		c1.687-0.467,3.464-0.824,5.332-1.078c1.867-0.25,3.949-0.377,6.248-0.377c3.446,0,6.57,0.432,9.371,1.293s5.206,2.139,7.217,3.824
		c2.01,1.688,3.571,3.77,4.686,6.248c1.113,2.477,1.67,5.297,1.67,8.455V638.789z M1079.333,636.527
		c-1.223,1.006-2.873,1.832-4.955,2.479c-2.084,0.645-4.273,0.969-6.571,0.969c-2.299,0-4.381-0.414-6.247-1.238
		c-1.868-0.826-3.447-1.994-4.739-3.502c-1.293-1.508-2.3-3.301-3.017-5.385c-0.719-2.082-1.077-4.379-1.077-6.895v-26.713h-9.479
		v-14.004h9.479v-14.541l14.865-7.434v21.975h13.572v14.004h-13.572v22.727c0,2.73,0.466,4.543,1.4,5.441
		c0.932,0.898,2.297,1.346,4.093,1.346c1.363,0,2.64-0.322,3.824-0.969s2.71-1.76,4.578-3.34L1079.333,636.527z M1110.784,638.789
		h-14.864v-56.551h14.864V638.789z M1109.33,575.076c-1.688,1.688-3.681,2.531-5.978,2.531c-2.3,0-4.292-0.844-5.979-2.531
		c-1.688-1.688-2.531-3.68-2.531-5.979s0.843-4.291,2.531-5.979c1.687-1.688,3.679-2.531,5.979-2.531
		c2.297,0,4.29,0.844,5.978,2.531c1.687,1.688,2.531,3.68,2.531,5.979S1111.017,573.389,1109.33,575.076z M1156.887,638.789h-15.295
		l-20.358-56.551h16.372l8.295,26.176c0.717,2.154,1.4,4.416,2.046,6.785c0.646,2.371,1.148,4.238,1.509,5.602
		c0.358-1.436,0.861-3.303,1.508-5.602c0.646-2.297,1.328-4.559,2.047-6.785l8.294-26.176h15.941L1156.887,638.789z
		 M1202.558,638.789h-14.864v-56.551h14.864V638.789z M1201.104,575.076c-1.688,1.688-3.681,2.531-5.978,2.531
		c-2.3,0-4.292-0.844-5.979-2.531c-1.688-1.688-2.531-3.68-2.531-5.979s0.843-4.291,2.531-5.979
		c1.687-1.688,3.679-2.531,5.979-2.531c2.297,0,4.29,0.844,5.978,2.531c1.687,1.688,2.531,3.68,2.531,5.979
		S1202.79,573.389,1201.104,575.076z M1263.418,638.789h-14.865v-3.555c-1.438,1.223-3.106,2.316-5.009,3.285
		c-1.903,0.971-4.22,1.455-6.947,1.455c-3.017,0-5.854-0.576-8.51-1.725c-2.658-1.146-4.992-2.961-7.002-5.439
		c-2.011-2.477-3.592-5.6-4.739-9.371c-1.149-3.77-1.724-8.311-1.724-13.625c0-4.236,0.484-8.115,1.454-11.635
		c0.97-3.518,2.387-6.551,4.255-9.102c1.866-2.549,4.164-4.523,6.894-5.924c2.729-1.4,5.853-2.102,9.372-2.102
		c2.513,0,4.793,0.432,6.84,1.293s3.751,1.904,5.116,3.125v-17.773l14.865-7.434V638.789z M1324.062,638.789h-14.865v-3.77
		c-1.364,1.438-3.16,2.623-5.386,3.555c-2.227,0.932-4.669,1.4-7.324,1.4c-2.658,0-5.243-0.414-7.756-1.238
		c-2.515-0.826-4.758-2.064-6.732-3.717c-1.976-1.65-3.573-3.732-4.793-6.248c-1.222-2.512-1.831-5.492-1.831-8.939
		c0-3.088,0.592-5.816,1.777-8.188c1.185-2.369,2.817-4.324,4.9-5.869c2.082-1.545,4.506-2.711,7.271-3.502
		c2.764-0.789,5.763-1.186,8.994-1.186c2.585,0,4.739,0.234,6.463,0.701s3.194,0.988,4.416,1.563v-2.801
		c0-2.01-0.664-3.717-1.992-5.117c-1.33-1.4-3.357-2.1-6.086-2.1c-1.724,0-3.25,0.072-4.578,0.215
		c-1.33,0.145-2.585,0.359-3.771,0.646c-1.185,0.287-2.353,0.664-3.5,1.131c-1.15,0.467-2.37,1.061-3.663,1.777l-5.709-10.342
		c1.651-0.932,3.249-1.758,4.794-2.477c1.543-0.717,3.159-1.311,4.847-1.777c1.687-0.467,3.464-0.824,5.332-1.078
		c1.867-0.25,3.949-0.377,6.248-0.377c3.446,0,6.57,0.432,9.371,1.293s5.206,2.139,7.217,3.824c2.01,1.688,3.571,3.77,4.686,6.248
		c1.113,2.477,1.67,5.297,1.67,8.455V638.789z M1383.845,638.789h-14.865v-3.555c-1.438,1.223-3.106,2.316-5.009,3.285
		c-1.903,0.971-4.22,1.455-6.947,1.455c-3.017,0-5.854-0.576-8.51-1.725c-2.658-1.146-4.992-2.961-7.002-5.439
		c-2.011-2.477-3.592-5.6-4.739-9.371c-1.149-3.77-1.724-8.311-1.724-13.625c0-4.236,0.484-8.115,1.454-11.635
		c0.97-3.518,2.387-6.551,4.255-9.102c1.866-2.549,4.164-4.523,6.894-5.924c2.729-1.4,5.853-2.102,9.372-2.102
		c2.513,0,4.793,0.432,6.84,1.293s3.751,1.904,5.116,3.125v-17.773l14.865-7.434V638.789z M1444.542,613.314
		c-0.037,0.754-0.091,1.42-0.161,1.992h-33.931c0.143,1.939,0.573,3.592,1.292,4.955c0.718,1.365,1.616,2.461,2.693,3.285
		c1.077,0.828,2.278,1.438,3.608,1.832c1.328,0.395,2.675,0.592,4.039,0.592c2.082,0,3.949-0.357,5.602-1.076
		c1.651-0.717,3.016-1.688,4.093-2.908l10.557,8.832c-2.299,2.945-5.297,5.207-8.994,6.787c-3.699,1.578-7.451,2.369-11.257,2.369
		c-4.093,0-7.769-0.701-11.025-2.102c-3.259-1.398-6.027-3.373-8.308-5.924c-2.282-2.547-4.046-5.637-5.293-9.264
		c-1.249-3.625-1.872-7.664-1.872-12.117c0-4.309,0.646-8.275,1.939-11.902c1.292-3.627,3.069-6.75,5.331-9.373
		c2.263-2.619,4.918-4.648,7.972-6.086c3.051-1.436,6.372-2.154,9.964-2.154c3.732,0,7.091,0.773,10.071,2.316
		c2.979,1.545,5.475,3.662,7.486,6.355c2.01,2.693,3.555,5.836,4.632,9.426c1.077,3.592,1.615,7.396,1.615,11.418
		C1444.596,611.645,1444.577,612.561,1444.542,613.314z"/>
	<path fill="#FFFFFF" d="M1298.855,612.723c-2.8,0-4.938,0.611-6.409,1.83c-1.473,1.223-2.208,2.98-2.208,5.279
		c0,2.01,0.646,3.77,1.939,5.277c1.292,1.508,3.518,2.262,6.678,2.262c2.44,0,4.578-0.52,6.409-1.561
		c1.832-1.041,3.141-2.244,3.932-3.609v-7.109c-1.292-0.789-2.676-1.381-4.146-1.777
		C1303.577,612.92,1301.512,612.723,1298.855,612.723z"/>
	<path fill="#FFFFFF" d="M1427.4,597.156c-0.832-0.969-1.86-1.74-3.087-2.314c-1.229-0.574-2.673-0.863-4.332-0.863
		c-2.745,0-4.911,0.971-6.5,2.91c-1.589,1.938-2.528,4.346-2.816,7.217h19.497c-0.145-1.293-0.435-2.531-0.867-3.717
		C1428.861,599.203,1428.229,598.127,1427.4,597.156z"/>
	<path fill="#FFFFFF" d="M1358.962,595.057c-5.889,0-8.833,4.813-8.833,14.434c0,5.816,0.879,10.018,2.64,12.604
		c1.759,2.584,4.109,3.877,7.055,3.877c2.298,0,4.129-0.43,5.494-1.293c1.363-0.861,2.585-2.008,3.662-3.445v-21.328
		C1366.609,596.672,1363.271,595.057,1358.962,595.057z"/>
	<path fill="#FFFFFF" d="M515.223,464.77c-0.791-2.235-1.526-4.399-2.208-6.491c-0.684-2.091-1.204-3.857-1.562-5.3
		c-0.36,1.442-0.88,3.209-1.562,5.3c-0.683,2.092-1.418,4.256-2.208,6.491l-4.847,13.737h17.234L515.223,464.77z"/>
</g>
</svg>
