<?xml version="1.0" encoding="utf-8"?>
<!-- Generator: Adobe Illustrator 16.0.0, SVG Export Plug-In . SVG Version: 6.00 Build 0)  -->
<!DOCTYPE svg PUBLIC "-//W3C//DTD SVG 1.1//EN" "http://www.w3.org/Graphics/SVG/1.1/DTD/svg11.dtd">
<svg version="1.1" id="Layer_1" xmlns="http://www.w3.org/2000/svg" xmlns:xlink="http://www.w3.org/1999/xlink" x="0px" y="0px"
	 width="1920px" height="1080px" viewBox="0 0 1920 1080" enable-background="new 0 0 1920 1080" xml:space="preserve">
<g>
	<g>
		<g>
			<g>
				<path fill="#A31202" d="M825.194,561.311c-1.518,0-2.826-0.652-3.703-1.68l1.112-1.084c0.701,0.756,1.728,1.232,2.709,1.232
					c1.458,0,2.157-0.506,2.157-1.516c0-0.803-0.609-1.205-2.351-1.727c-2.199-0.654-3.257-1.203-3.257-3.063
					c0-1.799,1.518-2.9,3.436-2.9c1.413,0,2.483,0.521,3.406,1.414l-1.101,1.115c-0.655-0.67-1.398-0.998-2.425-0.998
					c-1.218,0-1.741,0.596-1.741,1.295c0,0.729,0.478,1.084,2.276,1.621c2.053,0.625,3.331,1.279,3.331,3.137
					C829.045,560.033,827.855,561.311,825.194,561.311z"/>
				<path fill="#A31202" d="M835.487,561.148v-0.773c-0.537,0.535-1.295,0.936-2.143,0.936c-1.265,0-2.707-0.713-2.707-2.631
					c0-1.74,1.338-2.527,3.109-2.527c0.729,0,1.307,0.104,1.74,0.295v-0.578c0-0.848-0.521-1.324-1.475-1.324
					c-0.802,0-1.427,0.148-2.037,0.492l-0.596-1.16c0.746-0.461,1.578-0.699,2.679-0.699c1.741,0,2.929,0.846,2.929,2.617v5.354
					H835.487z M835.487,557.816c-0.419-0.209-0.951-0.342-1.786-0.342c-0.982,0-1.606,0.447-1.606,1.16
					c0,0.773,0.491,1.293,1.504,1.293c0.816,0,1.53-0.504,1.889-0.996V557.816z"/>
				<path fill="#A31202" d="M840.036,552.33c-0.549,0-0.995-0.447-0.995-0.982c0-0.551,0.446-0.996,0.995-0.996
					c0.536,0,0.982,0.445,0.982,0.996C841.019,551.883,840.572,552.33,840.036,552.33z M839.265,561.148v-7.809h1.531v7.809H839.265
					z"/>
				<path fill="#A31202" d="M847.368,554.961c-0.325-0.178-0.669-0.281-1.174-0.281c-0.967,0-1.533,0.684-1.533,2.008v4.461h-1.53
					v-7.809h1.53v0.744c0.357-0.52,1.013-0.906,1.785-0.906c0.625,0,1.012,0.119,1.323,0.326L847.368,554.961z"/>
			</g>
		</g>
		<path fill="#A31202" d="M852.639,544.668c0,2.604-2.582,4.711-5.771,4.711h-26.453c-3.189,0-5.775-2.107-5.775-4.711v-21.579
			c0-2.601,2.586-4.71,5.775-4.71h26.453c3.189,0,5.771,2.109,5.771,4.71V544.668z"/>
		<g>
			<path fill="#FFFFFF" stroke="#FFFFFF" stroke-miterlimit="10" d="M837.301,540.966l-1.6-2.756
				c-0.508-0.869-1.297-2.348-1.563-2.875c-0.24,0.527-1.031,1.965-1.557,2.875L831,540.966h-2.489l4.394-7.311l-4.109-6.865h2.531
				l1.295,2.287c0.486,0.871,1.296,2.369,1.561,2.896c0.263-0.527,1.032-1.984,1.559-2.896l1.316-2.287h2.49l-4.109,6.846
				l4.393,7.33H837.301z"/>
		</g>
	</g>
	<g>
		<g>
			<path fill="#A31202" d="M759.205,544.743c0,2.601-2.584,4.71-5.773,4.71h-26.453c-3.188,0-5.773-2.109-5.773-4.71v-21.579
				c0-2.601,2.586-4.71,5.773-4.71h26.453c3.189,0,5.773,2.109,5.773,4.71V544.743z"/>
		</g>
		<g>
			<path fill="#FFFFFF" d="M745.936,533.807c0-3.334-2.638-6.039-5.896-6.039c-0.456,0-0.901,0.053-1.328,0.152
				c-2.615,0.617-4.568,3.02-4.568,5.887c0,3.336,2.641,6.037,5.896,6.037C743.298,539.844,745.936,537.143,745.936,533.807z"/>
			<path fill="none" stroke="#FFFFFF" stroke-width="2" stroke-miterlimit="10" d="M749.029,533.807c0-5.084-4.025-9.205-8.99-9.205
				c-4.962,0-8.989,4.121-8.989,9.205c0,5.082,4.027,9.203,8.989,9.203C745.004,543.01,749.029,538.889,749.029,533.807z"/>
		</g>
		<g>
			<path fill="#A31202" d="M736.506,561.953c-2.713,0-4.438-2.234-4.438-5.41c0-3.178,1.725-5.41,4.438-5.41
				c2.728,0,4.449,2.232,4.449,5.41C740.955,559.719,739.233,561.953,736.506,561.953z M736.506,552.707
				c-1.829,0-2.834,1.482-2.834,3.836c0,2.352,1.005,3.836,2.834,3.836c1.844,0,2.846-1.484,2.846-3.836
				C739.352,554.189,738.35,552.707,736.506,552.707z"/>
			<path fill="#A31202" d="M747.446,561.787l-1.737-3.91l-1.199,1.588v2.322h-1.544v-10.115l1.544-0.809v4.961
				c0,0.479-0.015,1.289-0.015,1.678c0.209-0.314,0.614-0.914,0.869-1.289l1.633-2.293h1.754l-1.993,2.639l2.368,5.229H747.446z"/>
		</g>
	</g>
	<g>
		<g>
			<path fill="#A31202" d="M773.162,560.686h-1.525l-3.342-9.625h1.566l2.008,6.133c0.18,0.563,0.455,1.416,0.537,1.76
				c0.084-0.344,0.357-1.211,0.536-1.773l1.979-6.119h1.541L773.162,560.686z"/>
			<path fill="#A31202" d="M779.955,560.836c-1.814,0-3.176-1.498-3.176-3.754c0-2.365,1.402-3.768,3.218-3.768
				c1.841,0,3.218,1.473,3.218,3.727C783.215,559.434,781.813,560.836,779.955,560.836z M779.942,554.664
				c-1.073,0-1.733,0.947-1.733,2.377c0,1.582,0.729,2.447,1.802,2.447c1.071,0,1.772-1.086,1.772-2.406
				C781.783,555.611,781.082,554.664,779.942,554.664z"/>
			<path fill="#A31202" d="M785.03,560.686v-9.281l1.417-0.742v10.023H785.03z"/>
			<path fill="#A31202" d="M792.057,560.506c-0.344,0.193-0.825,0.33-1.387,0.33c-1.006,0-1.625-0.617-1.625-1.91v-4.166h-1.029
				v-1.293h1.029v-2.063l1.391-0.742v2.805h1.785v1.293h-1.785v3.918c0,0.674,0.219,0.867,0.741,0.867
				c0.371,0,0.784-0.139,1.044-0.289L792.057,560.506z"/>
			<path fill="#A31202" d="M798.08,560.686v-0.715c-0.496,0.494-1.196,0.865-1.98,0.865c-1.168,0-2.502-0.66-2.502-2.434
				c0-1.607,1.238-2.338,2.872-2.338c0.675,0,1.211,0.098,1.61,0.275v-0.535c0-0.783-0.482-1.225-1.363-1.225
				c-0.742,0-1.319,0.137-1.881,0.453l-0.551-1.072c0.688-0.426,1.457-0.646,2.473-0.646c1.609,0,2.711,0.785,2.711,2.422v4.949
				H798.08z M798.08,557.605c-0.385-0.193-0.88-0.316-1.65-0.316c-0.908,0-1.484,0.412-1.484,1.072c0,0.715,0.452,1.197,1.389,1.197
				c0.758,0,1.416-0.469,1.746-0.922V557.605z"/>
			<path fill="#A31202" d="M805.422,554.965c-0.301-0.164-0.617-0.262-1.086-0.262c-0.893,0-1.416,0.635-1.416,1.857v4.125h-1.416
				v-7.219h1.416v0.688c0.33-0.48,0.935-0.84,1.65-0.84c0.578,0,0.936,0.111,1.223,0.303L805.422,554.965z"/>
		</g>
		<g>
			<path fill="#A31202" d="M805.922,544.745c0,2.599-2.584,4.708-5.773,4.708h-26.449c-3.191,0-5.777-2.109-5.777-4.708v-21.579
				c0-2.601,2.586-4.712,5.777-4.712h26.449c3.189,0,5.773,2.111,5.773,4.712V544.745z"/>
		</g>
		<g>
			<path fill="none" stroke="#FFFFFF" stroke-width="3" stroke-miterlimit="10" d="M786.449,527.602c4.142,0,7.5,3.357,7.5,7.5
				s-3.358,7.5-7.5,7.5c-4.145,0-7.5-3.357-7.5-7.5"/>
			<polygon fill="#FFFFFF" stroke="#FFFFFF" stroke-width="2" stroke-miterlimit="10" points="786.449,525.329 782.198,527.602 
				786.449,529.877 			"/>
		</g>
	</g>
</g>
<g>
	<g>
		<circle fill="#A31202" cx="1010.682" cy="534.128" r="15.5"/>
		<g>
			<g>
				<path fill="#A31202" d="M1001.705,561.632c-1.518,0-2.826-0.652-3.703-1.68l1.113-1.084c0.701,0.756,1.727,1.232,2.707,1.232
					c1.459,0,2.158-0.506,2.158-1.516c0-0.803-0.609-1.205-2.351-1.727c-2.2-0.654-3.257-1.203-3.257-3.063
					c0-1.799,1.518-2.9,3.436-2.9c1.412,0,2.483,0.521,3.406,1.414l-1.1,1.115c-0.656-0.67-1.398-0.998-2.426-0.998
					c-1.219,0-1.74,0.596-1.74,1.295c0,0.729,0.477,1.084,2.275,1.621c2.053,0.625,3.33,1.279,3.33,3.137
					C1005.555,560.354,1004.366,561.632,1001.705,561.632z"/>
				<path fill="#A31202" d="M1011.998,561.47v-0.773c-0.537,0.535-1.295,0.936-2.143,0.936c-1.265,0-2.707-0.713-2.707-2.631
					c0-1.74,1.338-2.527,3.109-2.527c0.729,0,1.307,0.104,1.74,0.295v-0.578c0-0.848-0.521-1.324-1.475-1.324
					c-0.803,0-1.427,0.148-2.037,0.492l-0.596-1.16c0.746-0.461,1.578-0.699,2.678-0.699c1.742,0,2.93,0.846,2.93,2.617v5.354
					H1011.998z M1011.998,558.138c-0.418-0.209-0.951-0.342-1.785-0.342c-0.982,0-1.607,0.447-1.607,1.16
					c0,0.773,0.491,1.293,1.504,1.293c0.816,0,1.529-0.504,1.889-0.996V558.138z"/>
				<path fill="#A31202" d="M1016.547,552.651c-0.549,0-0.996-0.447-0.996-0.982c0-0.551,0.447-0.996,0.996-0.996
					c0.536,0,0.982,0.445,0.982,0.996C1017.529,552.204,1017.083,552.651,1016.547,552.651z M1015.775,561.47v-7.809h1.531v7.809
					H1015.775z"/>
				<path fill="#A31202" d="M1023.879,555.282c-0.325-0.178-0.668-0.281-1.174-0.281c-0.967,0-1.533,0.684-1.533,2.008v4.461h-1.53
					v-7.809h1.53v0.744c0.357-0.52,1.012-0.906,1.785-0.906c0.625,0,1.012,0.119,1.323,0.326L1023.879,555.282z"/>
			</g>
		</g>
		<g>
			<path fill="#FFFFFF" stroke="#FFFFFF" stroke-miterlimit="10" d="M1013.812,541.288l-1.599-2.756
				c-0.509-0.869-1.298-2.348-1.563-2.875c-0.241,0.527-1.033,1.965-1.558,2.875l-1.582,2.756h-2.489l4.395-7.311l-4.111-6.865
				h2.533l1.294,2.287c0.485,0.871,1.296,2.369,1.561,2.896c0.263-0.527,1.032-1.984,1.56-2.896l1.315-2.287h2.49l-4.109,6.846
				l4.393,7.33H1013.812z"/>
		</g>
	</g>
	<g>
		<circle fill="#A31202" cx="916.467" cy="534.102" r="15.5"/>
		<g>
			<path fill="#FFFFFF" d="M922.447,534.129c0-3.334-2.639-6.039-5.896-6.039c-0.457,0-0.902,0.053-1.33,0.152
				c-2.615,0.617-4.568,3.02-4.568,5.887c0,3.336,2.643,6.037,5.898,6.037C919.809,540.166,922.447,537.465,922.447,534.129z"/>
			
				<ellipse fill="none" stroke="#FFFFFF" stroke-width="2" stroke-miterlimit="10" cx="916.55" cy="534.129" rx="8.989" ry="9.205"/>
		</g>
		<g>
			<path fill="#A31202" d="M913.017,562.275c-2.714,0-4.437-2.234-4.437-5.41c0-3.178,1.723-5.41,4.437-5.41
				c2.728,0,4.45,2.232,4.45,5.41C917.467,560.041,915.744,562.275,913.017,562.275z M913.017,553.029
				c-1.829,0-2.833,1.482-2.833,3.836c0,2.352,1.004,3.836,2.833,3.836c1.844,0,2.847-1.484,2.847-3.836
				C915.863,554.512,914.86,553.029,913.017,553.029z"/>
			<path fill="#A31202" d="M923.957,562.109l-1.738-3.91l-1.199,1.588v2.322h-1.543v-10.115l1.543-0.809v4.961
				c0,0.479-0.014,1.289-0.014,1.678c0.209-0.314,0.614-0.914,0.869-1.289l1.633-2.293h1.754l-1.994,2.639l2.369,5.229H923.957z"/>
		</g>
	</g>
	<g>
		<circle fill="#A31202" cx="963.389" cy="534.102" r="15.5"/>
		<g>
			<path fill="#A31202" d="M949.672,561.008h-1.524l-3.343-9.625h1.566l2.01,6.133c0.179,0.563,0.455,1.416,0.536,1.76
				c0.084-0.344,0.357-1.211,0.536-1.773l1.979-6.119h1.54L949.672,561.008z"/>
			<path fill="#A31202" d="M956.466,561.158c-1.814,0-3.177-1.498-3.177-3.754c0-2.365,1.403-3.768,3.219-3.768
				c1.841,0,3.218,1.473,3.218,3.727C959.726,559.756,958.322,561.158,956.466,561.158z M956.453,554.986
				c-1.073,0-1.734,0.947-1.734,2.377c0,1.582,0.73,2.447,1.803,2.447c1.071,0,1.773-1.086,1.773-2.406
				C958.295,555.934,957.593,554.986,956.453,554.986z"/>
			<path fill="#A31202" d="M961.541,561.008v-9.281l1.417-0.742v10.023H961.541z"/>
			<path fill="#A31202" d="M968.567,560.828c-0.345,0.193-0.825,0.33-1.388,0.33c-1.005,0-1.625-0.617-1.625-1.91v-4.166h-1.028
				v-1.293h1.028v-2.063l1.392-0.742v2.805h1.786v1.293h-1.786V559c0,0.674,0.219,0.867,0.741,0.867
				c0.371,0,0.783-0.139,1.045-0.289L968.567,560.828z"/>
			<path fill="#A31202" d="M974.591,561.008v-0.715c-0.496,0.494-1.196,0.865-1.98,0.865c-1.168,0-2.502-0.66-2.502-2.434
				c0-1.607,1.237-2.338,2.872-2.338c0.674,0,1.211,0.098,1.61,0.275v-0.535c0-0.783-0.482-1.225-1.363-1.225
				c-0.743,0-1.319,0.137-1.882,0.453l-0.55-1.072c0.688-0.426,1.458-0.646,2.472-0.646c1.611,0,2.712,0.785,2.712,2.422v4.949
				H974.591z M974.591,557.928c-0.386-0.193-0.88-0.316-1.65-0.316c-0.907,0-1.485,0.412-1.485,1.072
				c0,0.715,0.453,1.197,1.39,1.197c0.758,0,1.416-0.469,1.746-0.922V557.928z"/>
			<path fill="#A31202" d="M981.933,555.287c-0.301-0.164-0.617-0.262-1.086-0.262c-0.894,0-1.416,0.635-1.416,1.857v4.125h-1.416
				v-7.219h1.416v0.688c0.33-0.48,0.935-0.84,1.65-0.84c0.578,0,0.936,0.111,1.222,0.303L981.933,555.287z"/>
		</g>
		<g>
			<path fill="none" stroke="#FFFFFF" stroke-width="3" stroke-miterlimit="10" d="M962.961,527.924c4.141,0,7.5,3.357,7.5,7.5
				s-3.359,7.5-7.5,7.5c-4.145,0-7.5-3.357-7.5-7.5"/>
			<polygon fill="#FFFFFF" stroke="#FFFFFF" stroke-width="2" stroke-miterlimit="10" points="962.961,525.65 958.709,527.924 
				962.961,530.199 			"/>
		</g>
	</g>
</g>
<g>
	<g>
		<rect x="1162.322" y="518.7" fill="#A31202" width="38" height="31"/>
		<g>
			<g>
				<path fill="#A31202" d="M1172.705,561.632c-1.518,0-2.826-0.652-3.703-1.68l1.113-1.084c0.701,0.756,1.727,1.232,2.707,1.232
					c1.459,0,2.158-0.506,2.158-1.516c0-0.803-0.609-1.205-2.351-1.727c-2.2-0.654-3.257-1.203-3.257-3.063
					c0-1.799,1.518-2.9,3.436-2.9c1.412,0,2.483,0.521,3.406,1.414l-1.1,1.115c-0.656-0.67-1.398-0.998-2.426-0.998
					c-1.219,0-1.74,0.596-1.74,1.295c0,0.729,0.477,1.084,2.275,1.621c2.053,0.625,3.33,1.279,3.33,3.137
					C1176.555,560.354,1175.366,561.632,1172.705,561.632z"/>
				<path fill="#A31202" d="M1182.998,561.47v-0.773c-0.537,0.535-1.295,0.936-2.143,0.936c-1.265,0-2.707-0.713-2.707-2.631
					c0-1.74,1.338-2.527,3.109-2.527c0.729,0,1.307,0.104,1.74,0.295v-0.578c0-0.848-0.521-1.324-1.475-1.324
					c-0.803,0-1.427,0.148-2.037,0.492l-0.596-1.16c0.746-0.461,1.578-0.699,2.678-0.699c1.742,0,2.93,0.846,2.93,2.617v5.354
					H1182.998z M1182.998,558.138c-0.418-0.209-0.951-0.342-1.785-0.342c-0.982,0-1.607,0.447-1.607,1.16
					c0,0.773,0.491,1.293,1.504,1.293c0.816,0,1.529-0.504,1.889-0.996V558.138z"/>
				<path fill="#A31202" d="M1187.547,552.651c-0.549,0-0.996-0.447-0.996-0.982c0-0.551,0.447-0.996,0.996-0.996
					c0.536,0,0.982,0.445,0.982,0.996C1188.529,552.204,1188.083,552.651,1187.547,552.651z M1186.775,561.47v-7.809h1.531v7.809
					H1186.775z"/>
				<path fill="#A31202" d="M1194.879,555.282c-0.325-0.178-0.668-0.281-1.174-0.281c-0.967,0-1.533,0.684-1.533,2.008v4.461h-1.53
					v-7.809h1.53v0.744c0.357-0.52,1.012-0.906,1.785-0.906c0.625,0,1.012,0.119,1.323,0.326L1194.879,555.282z"/>
			</g>
		</g>
		<g>
			<path fill="#FFFFFF" stroke="#FFFFFF" stroke-miterlimit="10" d="M1184.812,541.288l-1.599-2.756
				c-0.509-0.869-1.298-2.348-1.563-2.875c-0.241,0.527-1.033,1.965-1.558,2.875l-1.582,2.756h-2.489l4.395-7.311l-4.111-6.865
				h2.533l1.294,2.287c0.485,0.871,1.296,2.369,1.561,2.896c0.263-0.527,1.032-1.984,1.56-2.896l1.315-2.287h2.49l-4.109,6.846
				l4.393,7.33H1184.812z"/>
		</g>
	</g>
	<g>
		<rect x="1068.551" y="518.7" fill="#A31202" width="38" height="31"/>
		<g>
			<path fill="#FFFFFF" d="M1093.447,534.129c0-3.334-2.639-6.039-5.896-6.039c-0.457,0-0.902,0.053-1.33,0.152
				c-2.615,0.617-4.568,3.02-4.568,5.887c0,3.336,2.643,6.037,5.898,6.037C1090.809,540.166,1093.447,537.465,1093.447,534.129z"/>
			
				<ellipse fill="none" stroke="#FFFFFF" stroke-width="2" stroke-miterlimit="10" cx="1087.55" cy="534.129" rx="8.989" ry="9.205"/>
		</g>
		<g>
			<path fill="#A31202" d="M1084.017,562.275c-2.714,0-4.437-2.234-4.437-5.41c0-3.178,1.723-5.41,4.437-5.41
				c2.728,0,4.45,2.232,4.45,5.41C1088.467,560.041,1086.744,562.275,1084.017,562.275z M1084.017,553.029
				c-1.829,0-2.833,1.482-2.833,3.836c0,2.352,1.004,3.836,2.833,3.836c1.844,0,2.847-1.484,2.847-3.836
				C1086.863,554.512,1085.86,553.029,1084.017,553.029z"/>
			<path fill="#A31202" d="M1094.957,562.109l-1.738-3.91l-1.199,1.588v2.322h-1.543v-10.115l1.543-0.809v4.961
				c0,0.479-0.014,1.289-0.014,1.678c0.209-0.314,0.614-0.914,0.869-1.289l1.633-2.293h1.754l-1.994,2.639l2.369,5.229H1094.957z"/>
		</g>
	</g>
	<g>
		<rect x="1115.343" y="518.7" fill="#A31202" width="38" height="31"/>
		<g>
			<path fill="#A31202" d="M1120.672,561.008h-1.524l-3.343-9.625h1.566l2.01,6.133c0.179,0.563,0.455,1.416,0.536,1.76
				c0.085-0.344,0.357-1.211,0.536-1.773l1.979-6.119h1.54L1120.672,561.008z"/>
			<path fill="#A31202" d="M1127.466,561.158c-1.814,0-3.177-1.498-3.177-3.754c0-2.365,1.403-3.768,3.219-3.768
				c1.841,0,3.218,1.473,3.218,3.727C1130.726,559.756,1129.322,561.158,1127.466,561.158z M1127.453,554.986
				c-1.073,0-1.734,0.947-1.734,2.377c0,1.582,0.73,2.447,1.803,2.447c1.071,0,1.773-1.086,1.773-2.406
				C1129.295,555.934,1128.593,554.986,1127.453,554.986z"/>
			<path fill="#A31202" d="M1132.541,561.008v-9.281l1.417-0.742v10.023H1132.541z"/>
			<path fill="#A31202" d="M1139.567,560.828c-0.345,0.193-0.825,0.33-1.388,0.33c-1.005,0-1.625-0.617-1.625-1.91v-4.166h-1.028
				v-1.293h1.028v-2.063l1.392-0.742v2.805h1.786v1.293h-1.786V559c0,0.674,0.219,0.867,0.741,0.867
				c0.371,0,0.783-0.139,1.045-0.289L1139.567,560.828z"/>
			<path fill="#A31202" d="M1145.591,561.008v-0.715c-0.496,0.494-1.196,0.865-1.98,0.865c-1.168,0-2.502-0.66-2.502-2.434
				c0-1.607,1.237-2.338,2.872-2.338c0.674,0,1.211,0.098,1.61,0.275v-0.535c0-0.783-0.482-1.225-1.363-1.225
				c-0.743,0-1.319,0.137-1.882,0.453l-0.55-1.072c0.688-0.426,1.458-0.646,2.472-0.646c1.611,0,2.712,0.785,2.712,2.422v4.949
				H1145.591z M1145.591,557.928c-0.386-0.193-0.88-0.316-1.651-0.316c-0.906,0-1.484,0.412-1.484,1.072
				c0,0.715,0.453,1.197,1.39,1.197c0.758,0,1.416-0.469,1.746-0.922V557.928z"/>
			<path fill="#A31202" d="M1152.933,555.287c-0.301-0.164-0.617-0.262-1.086-0.262c-0.894,0-1.416,0.635-1.416,1.857v4.125h-1.416
				v-7.219h1.416v0.688c0.33-0.48,0.935-0.84,1.65-0.84c0.578,0,0.936,0.111,1.222,0.303L1152.933,555.287z"/>
		</g>
		<g>
			<path fill="none" stroke="#FFFFFF" stroke-width="3" stroke-miterlimit="10" d="M1133.961,527.924c4.141,0,7.5,3.357,7.5,7.5
				s-3.359,7.5-7.5,7.5c-4.145,0-7.5-3.357-7.5-7.5"/>
			<polygon fill="#FFFFFF" stroke="#FFFFFF" stroke-width="2" stroke-miterlimit="10" points="1133.961,525.65 1129.709,527.924 
				1133.961,530.199 			"/>
		</g>
	</g>
</g>
</svg>
