<?xml version="1.0" encoding="utf-8"?>
<!-- Generator: Adobe Illustrator 16.0.0, SVG Export Plug-In . SVG Version: 6.00 Build 0)  -->
<!DOCTYPE svg PUBLIC "-//W3C//DTD SVG 1.1//EN" "http://www.w3.org/Graphics/SVG/1.1/DTD/svg11.dtd">
<svg version="1.1" id="Layer_1" xmlns="http://www.w3.org/2000/svg" xmlns:xlink="http://www.w3.org/1999/xlink" x="0px" y="0px"
	 width="45px" height="50px" viewBox="0 0 45 50" enable-background="new 0 0 45 50" xml:space="preserve">
<g>
	<rect fill="#A31202" width="45" height="36.709"/>
	<g>
		<path fill="#FFFFFF" d="M29.485,18.271c0-3.949-3.127-7.152-6.984-7.152c-0.541,0-1.069,0.063-1.575,0.181
			c-3.098,0.73-5.41,3.575-5.41,6.972c0,3.95,3.13,7.148,6.985,7.148C26.358,25.42,29.485,22.222,29.485,18.271z"/>
		<path fill="none" stroke="#FFFFFF" stroke-width="2" stroke-miterlimit="10" d="M33.146,18.271
			c0-6.021-4.764-10.901-10.645-10.901c-5.878,0-10.646,4.881-10.646,10.901c0,6.018,4.769,10.896,10.646,10.896
			C28.382,29.168,33.146,24.289,33.146,18.271z"/>
	</g>
</g>
<g>
	<path fill="#A31202" d="M17.844,50c-3.088,0-5.049-2.543-5.049-6.156c0-3.615,1.961-6.156,5.049-6.156
		c3.104,0,5.064,2.541,5.064,6.156C22.908,47.457,20.947,50,17.844,50z M17.844,39.479c-2.082,0-3.225,1.688-3.225,4.365
		c0,2.676,1.143,4.365,3.225,4.365c2.098,0,3.238-1.689,3.238-4.365C21.082,41.166,19.941,39.479,17.844,39.479z"/>
	<path fill="#A31202" d="M30.293,49.811l-1.979-4.449l-1.363,1.807v2.643h-1.756v-11.51l1.756-0.92v5.645
		c0,0.545-0.016,1.467-0.016,1.91c0.236-0.357,0.699-1.041,0.988-1.467l1.857-2.609h1.996l-2.27,3.002l2.697,5.949H30.293z"/>
</g>
</svg>
