<?xml version="1.0" encoding="utf-8"?>
<!-- Generator: Adobe Illustrator 16.0.0, SVG Export Plug-In . SVG Version: 6.00 Build 0)  -->
<!DOCTYPE svg PUBLIC "-//W3C//DTD SVG 1.1//EN" "http://www.w3.org/Graphics/SVG/1.1/DTD/svg11.dtd">
<svg version="1.1" id="Layer_1" xmlns="http://www.w3.org/2000/svg" xmlns:xlink="http://www.w3.org/1999/xlink" x="0px" y="0px"
	 width="841.89px" height="595.28px" viewBox="0 0 841.89 595.28" enable-background="new 0 0 841.89 595.28" xml:space="preserve">
<g>
	<defs>
		<rect id="SVGID_1_" x="320.529" y="276.818" width="417.471" height="123.928"/>
	</defs>
	<clipPath id="SVGID_2_">
		<use xlink:href="#SVGID_1_"  overflow="visible"/>
	</clipPath>
	<g opacity="0" clip-path="url(#SVGID_2_)">
		<g>
			<defs>
				<rect id="SVGID_3_" x="470.9" y="276.818" width="267.103" height="125.379"/>
			</defs>
			<clipPath id="SVGID_4_">
				<use xlink:href="#SVGID_3_"  overflow="visible"/>
			</clipPath>
			<rect x="470.901" y="276.818" clip-path="url(#SVGID_4_)" fill="#FFFFFF" width="267.102" height="125.379"/>
		</g>
	</g>
	<g clip-path="url(#SVGID_2_)">
		<g>
			<defs>
				<rect id="SVGID_5_" x="467.876" y="310.038" width="64.11" height="58.679"/>
			</defs>
			<clipPath id="SVGID_6_">
				<use xlink:href="#SVGID_5_"  overflow="visible"/>
			</clipPath>
			<g clip-path="url(#SVGID_6_)">
				<defs>
					<polygon id="SVGID_7_" points="467.876,354.421 488.881,368.717 531.986,348.114 509.854,310.038 					"/>
				</defs>
				<clipPath id="SVGID_8_">
					<use xlink:href="#SVGID_7_"  overflow="visible"/>
				</clipPath>
				<defs>
					<filter id="Adobe_OpacityMaskFilter" filterUnits="userSpaceOnUse" x="439.896" y="279.467" width="120.073" height="119.821">
						<feColorMatrix  type="matrix" values="1 0 0 0 0  0 1 0 0 0  0 0 1 0 0  0 0 0 1 0"/>
					</filter>
				</defs>
				<mask maskUnits="userSpaceOnUse" x="439.896" y="279.467" width="120.073" height="119.821" id="SVGID_9_">
					<g filter="url(#Adobe_OpacityMaskFilter)">
						<g>
							<defs>
								
									<rect id="SVGID_10_" x="456.732" y="296.762" transform="matrix(-0.8064 -0.5913 0.5913 -0.8064 702.4243 908.6801)" width="86.398" height="85.231"/>
							</defs>
							<clipPath id="SVGID_11_" clip-path="url(#SVGID_8_)">
								<use xlink:href="#SVGID_10_"  overflow="visible"/>
							</clipPath>
							
								<linearGradient id="SVGID_12_" gradientUnits="userSpaceOnUse" x1="-6.8066" y1="593.7754" x2="-4.5086" y2="593.7754" gradientTransform="matrix(14.8933 10.9201 10.9201 -14.8933 -5893.749 9248.9443)">
								<stop  offset="0" style="stop-color:#000000"/>
								<stop  offset="0.0367" style="stop-color:#000000"/>
								<stop  offset="0.0866" style="stop-color:#141414"/>
								<stop  offset="0.1889" style="stop-color:#484848"/>
								<stop  offset="0.3348" style="stop-color:#9B9B9B"/>
								<stop  offset="0.4965" style="stop-color:#FFFFFF"/>
								<stop  offset="1" style="stop-color:#FFFFFF"/>
							</linearGradient>
							<polygon clip-path="url(#SVGID_11_)" fill="url(#SVGID_12_)" points="481.877,222.206 617.106,321.357 517.984,456.548 
								382.755,357.392 							"/>
						</g>
					</g>
				</mask>
				
					<linearGradient id="SVGID_13_" gradientUnits="userSpaceOnUse" x1="-6.8042" y1="593.7754" x2="-4.5064" y2="593.7754" gradientTransform="matrix(14.8933 10.9201 10.9201 -14.8933 -5893.7334 9248.9521)">
					<stop  offset="0" style="stop-color:#FFFFFF"/>
					<stop  offset="0.0367" style="stop-color:#FFFFFF"/>
					<stop  offset="0.4965" style="stop-color:#C7C8C9"/>
					<stop  offset="1" style="stop-color:#C7C8C9"/>
				</linearGradient>
				<polygon clip-path="url(#SVGID_8_)" mask="url(#SVGID_9_)" fill="url(#SVGID_13_)" points="490.293,279.467 559.969,330.555 
					509.57,399.288 439.896,348.199 				"/>
			</g>
		</g>
	</g>
</g>
<g>
	<defs>
		<polygon id="SVGID_14_" points="485.052,343.531 569.832,368.717 529.38,293.668 		"/>
	</defs>
	<clipPath id="SVGID_15_">
		<use xlink:href="#SVGID_14_"  overflow="visible"/>
	</clipPath>
	
		<linearGradient id="SVGID_16_" gradientUnits="userSpaceOnUse" x1="1.7861" y1="591.7168" x2="4.0842" y2="591.7168" gradientTransform="matrix(-30.4734 21.7378 21.7378 30.4734 -12251.248 -17760.3066)">
		<stop  offset="0" style="stop-color:#F58220"/>
		<stop  offset="0.0053" style="stop-color:#F58220"/>
		<stop  offset="0.0685" style="stop-color:#F47D20"/>
		<stop  offset="0.1628" style="stop-color:#F36E22"/>
		<stop  offset="0.2759" style="stop-color:#EF5225"/>
		<stop  offset="0.3858" style="stop-color:#EC2227"/>
		<stop  offset="0.5152" style="stop-color:#D02025"/>
		<stop  offset="0.7472" style="stop-color:#9E1D20"/>
		<stop  offset="1" style="stop-color:#9E1D20"/>
	</linearGradient>
	<polygon clip-path="url(#SVGID_15_)" fill="url(#SVGID_16_)" points="605.314,343.406 513.645,408.8 449.571,318.979 
		541.24,253.585 	"/>
</g>
<g>
	<defs>
		<polygon id="SVGID_17_" points="488.926,368.717 488.928,368.717 569.832,368.717 529.38,293.668 		"/>
	</defs>
	<clipPath id="SVGID_18_">
		<use xlink:href="#SVGID_17_"  overflow="visible"/>
	</clipPath>
	
		<linearGradient id="SVGID_19_" gradientUnits="userSpaceOnUse" x1="-0.7246" y1="598.6504" x2="1.5734" y2="598.6504" gradientTransform="matrix(24.956 -24.956 -24.956 -24.956 15447.4219 15293.0273)">
		<stop  offset="0" style="stop-color:#F58220"/>
		<stop  offset="0.0053" style="stop-color:#F58220"/>
		<stop  offset="0.139" style="stop-color:#F47621"/>
		<stop  offset="0.4029" style="stop-color:#EF5125"/>
		<stop  offset="0.6054" style="stop-color:#EC2227"/>
		<stop  offset="0.745" style="stop-color:#D02025"/>
		<stop  offset="0.9952" style="stop-color:#9E1D20"/>
		<stop  offset="1" style="stop-color:#9E1D20"/>
	</linearGradient>
	<polygon clip-path="url(#SVGID_18_)" fill="url(#SVGID_19_)" points="451.4,331.191 529.379,253.212 607.354,331.191 
		529.379,409.167 	"/>
</g>
<g>
	<defs>
		<rect id="SVGID_20_" x="320.529" y="276.818" width="417.471" height="123.928"/>
	</defs>
	<clipPath id="SVGID_21_">
		<use xlink:href="#SVGID_20_"  overflow="visible"/>
	</clipPath>
	<path clip-path="url(#SVGID_21_)" fill="#818285" d="M494.966,383.924v-1.526h-1.049c-0.202,0-0.325-0.125-0.325-0.287v-0.879
		h2.788v3.388c-0.854,0.62-1.818,0.902-3.196,0.902c-2.436,0-4.213-1.791-4.213-4.282c0-2.522,1.689-4.282,4.356-4.282
		c1.367,0,2.351,0.449,3.045,1.095l-0.45,0.71c-0.089,0.144-0.21,0.211-0.354,0.211c-0.092,0-0.184-0.027-0.283-0.09
		c-0.497-0.296-0.986-0.598-2.011-0.598c-1.651,0-2.713,1.164-2.713,2.954c0,1.927,1.143,3.043,2.74,3.043
		C494.004,384.282,494.496,384.148,494.966,383.924"/>
	<path clip-path="url(#SVGID_21_)" fill="#818285" d="M509.271,385.521c-2.539,0-4.253-1.818-4.253-4.282
		c0-2.459,1.714-4.278,4.253-4.278c2.53,0,4.238,1.824,4.238,4.278C513.509,383.703,511.801,385.521,509.271,385.521
		 M509.271,378.285c-1.642,0-2.66,1.118-2.66,2.954c0,1.841,1.019,2.949,2.66,2.949c1.637,0,2.642-1.108,2.642-2.949
		C511.912,379.403,510.907,378.285,509.271,378.285"/>
	<path clip-path="url(#SVGID_21_)" fill="#818285" d="M520.597,377.052h1.256c0.274,0,0.437,0.148,0.522,0.354l1.97,5.107
		c0.133,0.333,0.249,0.737,0.358,1.177c0.088-0.445,0.198-0.831,0.33-1.177l1.965-5.107c0.07-0.179,0.253-0.354,0.516-0.354h1.256
		l-3.384,8.375h-1.406L520.597,377.052z"/>
	<polygon clip-path="url(#SVGID_21_)" fill="#818285" points="542.397,377.052 542.397,378.295 538.684,378.295 538.684,380.615 
		541.607,380.615 541.607,381.814 538.684,381.814 538.684,384.184 542.397,384.184 542.397,385.427 537.112,385.427 
		537.112,377.052 	"/>
	<path clip-path="url(#SVGID_21_)" fill="#818285" d="M552.824,382.155v3.271h-1.557v-8.375h2.557c2.285,0,3.225,0.992,3.225,2.41
		c0,1.137-0.674,2.023-1.848,2.393c0.195,0.112,0.363,0.274,0.512,0.48l2.094,3.092h-1.399c-0.272,0-0.454-0.107-0.587-0.31
		l-1.762-2.68c-0.133-0.206-0.258-0.282-0.567-0.282H552.824z M552.824,381.038h0.977c1.181,0,1.726-0.615,1.726-1.46
		c0-0.852-0.552-1.319-1.702-1.319h-1V381.038z"/>
	<path clip-path="url(#SVGID_21_)" fill="#818285" d="M567.61,377.303l4.396,5.603c-0.029-0.274-0.037-0.535-0.037-0.76v-5.094
		h1.371v8.38h-0.806c-0.25,0-0.387-0.067-0.543-0.269l-4.381-5.58c0.025,0.251,0.034,0.499,0.034,0.701v5.147h-1.372v-8.38h0.817
		C567.362,377.052,567.437,377.079,567.61,377.303"/>
	<path clip-path="url(#SVGID_21_)" fill="#818285" d="M586.295,385.521c-2.538,0-4.253-1.818-4.253-4.282
		c0-2.459,1.715-4.278,4.253-4.278c2.531,0,4.238,1.824,4.238,4.278C590.533,383.703,588.826,385.521,586.295,385.521
		 M586.295,378.285c-1.642,0-2.66,1.118-2.66,2.954c0,1.841,1.019,2.949,2.66,2.949c1.636,0,2.643-1.108,2.643-2.949
		C588.938,379.403,587.931,378.285,586.295,378.285"/>
	<path clip-path="url(#SVGID_21_)" fill="#818285" d="M612.134,385.432h-3.198v-8.38h3.198c2.534,0,4.238,1.733,4.238,4.188
		C616.372,383.703,614.668,385.432,612.134,385.432 M612.134,378.291h-1.628v5.897h1.628c1.633,0,2.648-1.114,2.648-2.949
		C614.782,379.403,613.767,378.291,612.134,378.291"/>
	<polygon clip-path="url(#SVGID_21_)" fill="#818285" points="630.349,377.052 630.349,378.295 626.634,378.295 626.634,380.615 
		629.563,380.615 629.563,381.814 626.634,381.814 626.634,384.184 630.349,384.184 630.349,385.427 625.066,385.427 
		625.066,377.052 	"/>
	<polygon clip-path="url(#SVGID_21_)" fill="#818285" points="654.776,377.052 654.776,378.331 652.256,378.331 652.256,385.427 
		650.697,385.427 650.697,378.331 648.165,378.331 648.165,377.052 	"/>
	<path clip-path="url(#SVGID_21_)" fill="#818285" d="M666.173,385.521c-2.538,0-4.253-1.818-4.253-4.282
		c0-2.459,1.715-4.278,4.253-4.278c2.532,0,4.241,1.824,4.241,4.278C670.414,383.703,668.705,385.521,666.173,385.521
		 M666.173,378.285c-1.639,0-2.66,1.118-2.66,2.954c0,1.841,1.021,2.949,2.66,2.949s2.643-1.108,2.643-2.949
		C668.815,379.403,667.812,378.285,666.173,378.285"/>
	<path clip-path="url(#SVGID_21_)" fill="#818285" d="M682.018,385.432h-3.2v-8.38h3.2c2.532,0,4.239,1.733,4.239,4.188
		C686.257,383.703,684.55,385.432,682.018,385.432 M682.018,378.291h-1.627v5.897h1.627c1.634,0,2.646-1.114,2.646-2.949
		C684.664,379.403,683.651,378.291,682.018,378.291"/>
	<path clip-path="url(#SVGID_21_)" fill="#818285" d="M698.165,385.521c-2.54,0-4.253-1.818-4.253-4.282
		c0-2.459,1.713-4.278,4.253-4.278c2.529,0,4.238,1.824,4.238,4.278C702.403,383.703,700.694,385.521,698.165,385.521
		 M698.165,378.285c-1.639,0-2.66,1.118-2.66,2.954c0,1.841,1.021,2.949,2.66,2.949c1.636,0,2.643-1.108,2.643-2.949
		C700.808,379.403,699.801,378.285,698.165,378.285"/>
	<path clip-path="url(#SVGID_21_)" fill="#818285" d="M714.664,378.578c-0.088,0.165-0.19,0.228-0.35,0.228
		c-0.31,0-0.729-0.578-1.684-0.578c-0.859,0-1.298,0.435-1.298,1.055c0,1.589,3.863,0.735,3.863,3.523
		c0,1.514-1.061,2.716-2.907,2.716c-1.066,0-2.103-0.436-2.754-1.1l0.453-0.75c0.088-0.108,0.21-0.188,0.355-0.188
		c0.387,0,0.839,0.763,1.991,0.763c0.888,0,1.394-0.436,1.394-1.221c0-1.773-3.854-0.598-3.854-3.663
		c0-1.23,0.995-2.402,2.739-2.402c0.99,0,1.85,0.324,2.433,0.881L714.664,378.578z"/>
	<path clip-path="url(#SVGID_21_)" fill="#010101" d="M591.364,318.513l12.603-23.683c0.565-1.054,1.109-1.108,2.318-1.108h5.234
		v37.268h-6.111l-0.02-26.199L594.3,324.957c-0.512,0.956-1.34,1.526-2.449,1.526h-0.95c-1.109,0-1.938-0.57-2.449-1.526
		l-11.229-20.287l-0.009,26.32h-6.11v-37.268h5.229c1.215,0,1.787,0.054,2.35,1.108L591.364,318.513z"/>
	<rect x="615.331" y="293.722" clip-path="url(#SVGID_21_)" fill="#010101" width="6.128" height="37.268"/>
	<path clip-path="url(#SVGID_21_)" fill="#010101" d="M631.23,294.83l19.387,24.71v-25.818h6.103v37.268h-3.582
		c-1.109,0-1.727-0.283-2.423-1.186l-19.322-24.605v25.791h-6.113v-37.268h3.63C630.121,293.722,630.457,293.852,631.23,294.83"/>
	<path clip-path="url(#SVGID_21_)" fill="#010101" d="M693.016,330.994h-5.362c-1.209,0-1.982-0.673-2.315-1.574l-2.785-7.604
		h-15.438l-2.785,7.604c-0.284,0.799-1.135,1.574-2.293,1.574h-5.391l14.642-37.272h7.09L693.016,330.994z M668.893,316.918h11.88
		l-5.954-16.778L668.893,316.918z"/>
	<path clip-path="url(#SVGID_21_)" fill="#010101" d="M714.622,300.5c-0.387,0.749-0.851,1.032-1.551,1.032
		c-1.388,0-3.245-2.577-7.499-2.577c-3.814,0-5.771,1.93-5.771,4.69c0,7.062,17.19,3.273,17.19,15.669
		c0,6.729-4.716,12.089-12.938,12.089c-4.742,0-9.356-1.93-12.244-4.896l2.012-3.327c0.387-0.489,0.925-0.848,1.573-0.848
		c1.724,0,3.737,3.402,8.867,3.402c3.939,0,6.21-1.935,6.21-5.44c0-7.886-17.165-2.653-17.165-16.29
		c0-5.461,4.432-10.694,12.192-10.694c4.406,0,8.218,1.441,10.824,3.917L714.622,300.5z"/>
	<path clip-path="url(#SVGID_21_)" fill="#010101" d="M594.969,362.715v-6.068h-4.177c-0.802,0-1.288-0.508-1.288-1.149v-3.504
		h11.089v13.486c-3.386,2.47-7.237,3.601-12.725,3.601c-9.687,0-16.765-7.128-16.765-17.043c0-10.055,6.733-17.039,17.339-17.039
		c5.442,0,9.365,1.773,12.127,4.358l-1.795,2.811c-0.35,0.579-0.83,0.857-1.408,0.857c-0.366,0-0.736-0.116-1.126-0.368
		c-1.986-1.177-3.926-2.38-8-2.38c-6.577,0-10.796,4.637-10.796,11.761c0,7.658,4.54,12.105,10.91,12.105
		C591.143,364.143,593.1,363.613,594.969,362.715"/>
	<polygon clip-path="url(#SVGID_21_)" fill="#010101" points="625.217,335.366 625.217,340.304 610.438,340.304 610.438,349.546 
		622.082,349.546 622.082,354.321 610.438,354.321 610.438,363.752 625.217,363.752 625.217,368.707 604.188,368.707 
		604.188,335.366 	"/>
	<path clip-path="url(#SVGID_21_)" fill="#010101" d="M634.883,355.683v13.024h-6.204v-33.336h10.17
		c9.106,0,12.845,3.937,12.845,9.588c0,4.519-2.678,8.048-7.357,9.52c0.785,0.44,1.454,1.086,2.028,1.916l8.347,12.313h-5.578
		c-1.087,0-1.801-0.439-2.333-1.243l-7.007-10.678c-0.529-0.808-1.038-1.104-2.259-1.104H634.883z M634.883,351.229h3.872
		c4.708,0,6.873-2.441,6.873-5.808c0-3.394-2.19-5.257-6.779-5.257h-3.966V351.229z"/>
	<path clip-path="url(#SVGID_21_)" fill="#010101" d="M685.884,368.707h-4.796c-1.084,0-1.775-0.596-2.074-1.409l-2.488-6.8h-13.817
		l-2.489,6.8c-0.25,0.718-1.013,1.409-2.049,1.409h-4.818l13.094-33.341h6.342L685.884,368.707z M664.301,356.117h10.631
		l-5.325-15.006L664.301,356.117z"/>
	<rect x="686.792" y="335.371" clip-path="url(#SVGID_21_)" fill="#010101" width="6.224" height="33.336"/>
	<path clip-path="url(#SVGID_21_)" fill="#010101" d="M714.821,341.43c-0.345,0.67-0.76,0.925-1.38,0.925
		c-1.249,0-2.907-2.307-6.711-2.307c-3.414,0-5.166,1.728-5.166,4.197c0,6.319,15.379,2.926,15.379,14.018
		c0,6.02-4.219,10.813-11.572,10.813c-4.248,0-8.372-1.728-10.958-4.381l1.804-2.976c0.344-0.436,0.827-0.758,1.404-0.758
		c1.545,0,3.343,3.042,7.932,3.042c3.527,0,5.556-1.728,5.556-4.865c0-7.051-15.355-2.374-15.355-14.569
		c0-4.888,3.968-9.57,10.906-9.57c3.943,0,7.356,1.293,9.684,3.506L714.821,341.43z"/>
</g>
<line fill="none" stroke="#EC2427" stroke-width="0.567" stroke-miterlimit="10" x1="459.227" y1="293.533" x2="459.227" y2="385.485"/>
<g>
	<defs>
		<rect id="SVGID_22_" x="320.529" y="276.818" width="417.471" height="123.928"/>
	</defs>
	<clipPath id="SVGID_23_">
		<use xlink:href="#SVGID_22_"  overflow="visible"/>
	</clipPath>
	<path clip-path="url(#SVGID_23_)" fill="#010101" d="M326.925,327.816c-0.053,0.085-0.101,0.144-0.158,0.185
		c-0.054,0.04-0.123,0.059-0.208,0.059c-0.091,0-0.19-0.041-0.306-0.122c-0.114-0.08-0.257-0.175-0.428-0.273
		c-0.17-0.104-0.377-0.193-0.613-0.278c-0.24-0.08-0.525-0.121-0.858-0.121c-0.312,0-0.586,0.041-0.823,0.121
		c-0.233,0.085-0.431,0.193-0.59,0.337c-0.16,0.14-0.28,0.31-0.364,0.498c-0.078,0.193-0.121,0.399-0.121,0.624
		c0,0.287,0.074,0.525,0.221,0.714c0.145,0.188,0.338,0.351,0.575,0.484c0.24,0.135,0.512,0.251,0.815,0.351
		c0.303,0.099,0.61,0.202,0.93,0.309c0.317,0.104,0.627,0.229,0.93,0.369c0.303,0.135,0.572,0.31,0.813,0.521
		c0.237,0.216,0.428,0.471,0.576,0.776c0.146,0.306,0.221,0.683,0.221,1.122c0,0.471-0.083,0.912-0.242,1.324
		c-0.162,0.413-0.398,0.772-0.706,1.081c-0.307,0.306-0.684,0.548-1.135,0.729c-0.449,0.175-0.961,0.26-1.53,0.26
		c-0.341,0-0.676-0.031-0.997-0.1c-0.322-0.066-0.629-0.16-0.916-0.282c-0.289-0.126-0.556-0.27-0.808-0.439
		c-0.25-0.171-0.475-0.363-0.673-0.579l0.454-0.759c0.044-0.058,0.098-0.107,0.16-0.147c0.063-0.041,0.133-0.059,0.213-0.059
		c0.105,0,0.223,0.053,0.361,0.161c0.136,0.112,0.303,0.229,0.506,0.359c0.202,0.134,0.439,0.256,0.721,0.363
		c0.28,0.107,0.623,0.166,1.025,0.166c0.326,0,0.619-0.044,0.877-0.135c0.257-0.086,0.475-0.211,0.653-0.367
		c0.175-0.162,0.31-0.36,0.404-0.589c0.094-0.229,0.144-0.479,0.144-0.758c0-0.314-0.074-0.566-0.218-0.765
		c-0.144-0.201-0.334-0.366-0.575-0.502c-0.237-0.135-0.508-0.247-0.811-0.341c-0.303-0.094-0.615-0.192-0.932-0.292
		c-0.316-0.103-0.626-0.225-0.93-0.354c-0.303-0.136-0.573-0.311-0.811-0.525c-0.24-0.221-0.431-0.489-0.575-0.813
		c-0.144-0.323-0.215-0.727-0.215-1.202c0-0.383,0.074-0.749,0.224-1.109c0.149-0.358,0.367-0.673,0.651-0.951
		c0.285-0.273,0.636-0.494,1.055-0.66c0.416-0.171,0.891-0.251,1.43-0.251c0.599,0,1.151,0.095,1.654,0.288
		c0.505,0.188,0.941,0.462,1.314,0.82L326.925,327.816z"/>
	<polygon clip-path="url(#SVGID_23_)" fill="#010101" points="336.5,335.479 336.492,336.762 329.865,336.762 329.865,326.075 
		336.492,326.075 336.492,327.358 331.458,327.358 331.458,330.748 335.509,330.748 335.509,331.995 331.458,331.995 
		331.458,335.479 	"/>
	<path clip-path="url(#SVGID_23_)" fill="#010101" d="M346.069,334.474c0.089,0,0.165,0.031,0.229,0.104l0.625,0.682
		c-0.438,0.521-0.967,0.92-1.596,1.203s-1.385,0.422-2.269,0.422c-0.775,0-1.475-0.131-2.104-0.399
		c-0.627-0.271-1.165-0.647-1.606-1.126c-0.445-0.481-0.791-1.061-1.032-1.729c-0.245-0.669-0.366-1.405-0.366-2.209
		s0.128-1.543,0.383-2.212c0.256-0.67,0.613-1.249,1.075-1.729c0.462-0.48,1.014-0.857,1.658-1.128
		c0.643-0.265,1.356-0.398,2.132-0.398c0.761,0,1.437,0.126,2.027,0.373c0.59,0.25,1.103,0.579,1.539,0.987l-0.518,0.739
		c-0.039,0.055-0.079,0.1-0.132,0.136c-0.053,0.031-0.121,0.05-0.205,0.05c-0.094,0-0.203-0.046-0.33-0.14
		c-0.128-0.094-0.293-0.202-0.501-0.318c-0.206-0.117-0.459-0.221-0.762-0.314c-0.303-0.094-0.683-0.144-1.131-0.144
		c-0.532,0-1.02,0.094-1.461,0.278c-0.441,0.188-0.822,0.452-1.144,0.808c-0.32,0.346-0.567,0.777-0.742,1.288
		c-0.178,0.508-0.265,1.082-0.265,1.724c0,0.647,0.092,1.226,0.274,1.732c0.184,0.508,0.435,0.938,0.759,1.289
		c0.325,0.35,0.703,0.618,1.141,0.803c0.435,0.184,0.906,0.279,1.411,0.279c0.31,0,0.589-0.019,0.833-0.06
		c0.245-0.036,0.471-0.09,0.676-0.165c0.207-0.077,0.401-0.171,0.584-0.287c0.185-0.117,0.367-0.257,0.543-0.423
		c0.039-0.031,0.084-0.063,0.127-0.085C345.973,334.481,346.017,334.474,346.069,334.474"/>
	<path clip-path="url(#SVGID_23_)" fill="#010101" d="M356.917,336.762h-1.417c-0.283,0-0.489-0.106-0.617-0.331l-2.643-3.708
		c-0.085-0.126-0.178-0.211-0.276-0.265c-0.1-0.05-0.248-0.075-0.446-0.075h-1.033v4.379h-1.589v-10.687h3.083
		c0.691,0,1.286,0.067,1.784,0.211c0.498,0.14,0.909,0.341,1.235,0.602s0.567,0.574,0.723,0.943c0.156,0.366,0.236,0.78,0.236,1.234
		c0,0.371-0.06,0.727-0.173,1.05c-0.114,0.327-0.28,0.624-0.501,0.885c-0.219,0.26-0.491,0.483-0.809,0.673
		c-0.317,0.188-0.679,0.331-1.08,0.431c0.199,0.121,0.37,0.287,0.516,0.502L356.917,336.762z M351.928,331.229
		c0.407,0,0.766-0.054,1.076-0.153c0.31-0.099,0.57-0.237,0.779-0.417c0.208-0.185,0.366-0.399,0.468-0.651
		c0.104-0.252,0.158-0.524,0.158-0.831c0-0.614-0.202-1.076-0.609-1.391c-0.404-0.314-1.01-0.467-1.819-0.467h-1.495v3.91H351.928z"
		/>
	<polygon clip-path="url(#SVGID_23_)" fill="#010101" points="365.292,335.479 365.287,336.762 358.659,336.762 358.659,326.075 
		365.287,326.075 365.287,327.358 360.25,327.358 360.25,330.748 364.304,330.748 364.304,331.995 360.25,331.995 360.25,335.479 	
		"/>
	<polygon clip-path="url(#SVGID_23_)" fill="#010101" points="374.912,327.399 371.517,327.399 371.517,336.768 369.941,336.768 
		369.941,327.399 366.53,327.399 366.53,326.071 374.912,326.071 	"/>
	<path clip-path="url(#SVGID_23_)" fill="#010101" d="M384.6,336.768h-1.22c-0.141,0-0.253-0.037-0.343-0.108
		c-0.091-0.066-0.154-0.157-0.194-0.265l-0.947-2.481h-4.712l-0.946,2.481c-0.036,0.094-0.101,0.18-0.192,0.256
		c-0.097,0.076-0.212,0.117-0.344,0.117h-1.22l4.257-10.692h1.603L384.6,336.768z M381.465,332.78l-1.586-4.146
		c-0.115-0.283-0.229-0.639-0.341-1.074c-0.057,0.216-0.111,0.414-0.169,0.598c-0.059,0.184-0.111,0.346-0.168,0.493l-1.577,4.129
		H381.465z"/>
	<path clip-path="url(#SVGID_23_)" fill="#010101" d="M394.325,336.762h-1.417c-0.282,0-0.489-0.106-0.616-0.331l-2.645-3.708
		c-0.085-0.126-0.178-0.211-0.276-0.265c-0.1-0.05-0.248-0.075-0.445-0.075h-1.034v4.379h-1.589v-10.687h3.083
		c0.691,0,1.286,0.067,1.784,0.211c0.5,0.14,0.912,0.341,1.235,0.602c0.326,0.261,0.567,0.574,0.725,0.943
		c0.155,0.366,0.233,0.78,0.233,1.234c0,0.371-0.058,0.727-0.173,1.05c-0.114,0.327-0.28,0.624-0.501,0.885
		c-0.219,0.26-0.491,0.483-0.808,0.673c-0.319,0.188-0.68,0.331-1.081,0.431c0.199,0.121,0.37,0.287,0.516,0.502L394.325,336.762z
		 M389.336,331.229c0.406,0,0.766-0.054,1.074-0.153c0.31-0.099,0.57-0.237,0.779-0.417c0.209-0.185,0.366-0.399,0.469-0.651
		c0.103-0.252,0.157-0.524,0.157-0.831c0-0.614-0.202-1.076-0.609-1.391c-0.404-0.314-1.01-0.467-1.819-0.467h-1.495v3.91H389.336z"
		/>
	<rect x="396.069" y="326.075" clip-path="url(#SVGID_23_)" fill="#010101" width="1.592" height="10.692"/>
	<path clip-path="url(#SVGID_23_)" fill="#010101" d="M409.483,336.768h-1.219c-0.141,0-0.253-0.037-0.343-0.108
		c-0.091-0.066-0.153-0.157-0.193-0.265l-0.947-2.481h-4.712l-0.946,2.481c-0.036,0.094-0.101,0.18-0.192,0.256
		c-0.097,0.076-0.212,0.117-0.344,0.117h-1.221l4.257-10.692h1.603L409.483,336.768z M406.35,332.78l-1.586-4.146
		c-0.115-0.283-0.229-0.639-0.341-1.074c-0.057,0.216-0.112,0.414-0.169,0.598c-0.058,0.184-0.111,0.346-0.167,0.493l-1.578,4.129
		H406.35z"/>
	<path clip-path="url(#SVGID_23_)" fill="#010101" d="M424.15,331.421c0,0.799-0.128,1.526-0.381,2.182
		c-0.256,0.65-0.617,1.216-1.084,1.683c-0.466,0.473-1.025,0.835-1.677,1.096c-0.648,0.256-1.371,0.387-2.165,0.387h-4.022v-10.692
		h4.022c0.794,0,1.517,0.125,2.165,0.386c0.651,0.256,1.211,0.62,1.677,1.091c0.467,0.467,0.828,1.033,1.084,1.688
		C424.022,329.898,424.15,330.623,424.15,331.421 M422.529,331.421c0-0.638-0.088-1.208-0.26-1.71
		c-0.174-0.502-0.421-0.929-0.742-1.278c-0.318-0.352-0.707-0.62-1.161-0.804c-0.455-0.186-0.963-0.274-1.523-0.274h-2.426v8.129
		h2.426c0.561,0,1.068-0.09,1.523-0.273c0.454-0.185,0.842-0.449,1.161-0.8c0.32-0.35,0.568-0.776,0.742-1.278
		C422.441,332.628,422.529,332.058,422.529,331.421"/>
	<polygon clip-path="url(#SVGID_23_)" fill="#010101" points="433.156,335.479 433.148,336.762 426.52,336.762 426.52,326.075 
		433.148,326.075 433.148,327.358 428.112,327.358 428.112,330.748 432.163,330.748 432.163,331.995 428.112,331.995 
		428.112,335.479 	"/>
	<path clip-path="url(#SVGID_23_)" fill="#010101" d="M372.357,350.138c0.062,0,0.123,0.01,0.18,0.031
		c0.061,0.023,0.115,0.064,0.17,0.117l0.997,1.051c-0.435,0.57-0.983,1.001-1.64,1.293c-0.658,0.287-1.437,0.436-2.334,0.436
		c-0.824,0-1.563-0.144-2.216-0.423c-0.653-0.283-1.205-0.668-1.66-1.162c-0.454-0.493-0.804-1.078-1.047-1.755
		c-0.242-0.679-0.363-1.414-0.363-2.209c0-0.808,0.129-1.552,0.396-2.23c0.262-0.677,0.63-1.262,1.105-1.755
		c0.478-0.489,1.048-0.871,1.716-1.146c0.664-0.272,1.398-0.408,2.194-0.408c0.407,0,0.79,0.037,1.151,0.108
		c0.36,0.072,0.697,0.171,1.01,0.296c0.313,0.126,0.601,0.278,0.865,0.458c0.263,0.179,0.497,0.372,0.7,0.583l-0.851,1.137
		c-0.054,0.071-0.118,0.134-0.193,0.193c-0.076,0.053-0.18,0.084-0.312,0.084c-0.09,0-0.175-0.021-0.253-0.063
		c-0.081-0.036-0.164-0.086-0.252-0.144c-0.089-0.059-0.188-0.121-0.295-0.184c-0.108-0.067-0.233-0.131-0.38-0.189
		c-0.148-0.059-0.319-0.103-0.514-0.144c-0.198-0.04-0.427-0.059-0.688-0.059c-0.415,0-0.798,0.072-1.144,0.229
		c-0.343,0.153-0.643,0.377-0.893,0.674c-0.25,0.296-0.447,0.66-0.581,1.085c-0.136,0.432-0.205,0.921-0.205,1.473
		c0,0.558,0.074,1.051,0.228,1.482c0.152,0.431,0.355,0.793,0.617,1.091c0.259,0.296,0.563,0.521,0.913,0.673
		c0.347,0.151,0.718,0.233,1.117,0.233c0.228,0,0.437-0.014,0.625-0.036c0.189-0.022,0.364-0.059,0.529-0.112
		c0.163-0.05,0.317-0.121,0.461-0.206c0.144-0.09,0.292-0.198,0.439-0.333c0.062-0.049,0.124-0.09,0.194-0.121
		C372.212,350.152,372.287,350.138,372.357,350.138"/>
	<path clip-path="url(#SVGID_23_)" fill="#010101" d="M379.708,350.956c0.336,0,0.639-0.055,0.905-0.167
		c0.265-0.112,0.489-0.274,0.673-0.48c0.183-0.211,0.326-0.462,0.422-0.763c0.095-0.301,0.142-0.643,0.142-1.023v-6.428h2.519v6.428
		c0,0.664-0.109,1.274-0.326,1.832c-0.215,0.556-0.523,1.036-0.927,1.437c-0.401,0.403-0.891,0.712-1.465,0.938
		c-0.576,0.225-1.225,0.337-1.943,0.337c-0.728,0-1.377-0.112-1.953-0.337c-0.577-0.226-1.064-0.534-1.465-0.938
		c-0.402-0.4-0.71-0.881-0.924-1.437c-0.213-0.558-0.319-1.168-0.319-1.832v-6.428h2.515v6.419c0,0.386,0.05,0.723,0.146,1.022
		c0.097,0.302,0.236,0.558,0.42,0.769c0.183,0.21,0.411,0.372,0.673,0.484C379.068,350.901,379.369,350.956,379.708,350.956"/>
	<polygon clip-path="url(#SVGID_23_)" fill="#010101" points="393.245,350.933 393.245,352.944 386.705,352.944 386.705,342.095 
		389.224,342.095 389.224,350.933 	"/>
	<polygon clip-path="url(#SVGID_23_)" fill="#010101" points="401.428,344.093 398.376,344.093 398.376,352.944 395.858,352.944 
		395.858,344.093 392.806,344.093 392.806,342.095 401.428,342.095 	"/>
	<path clip-path="url(#SVGID_23_)" fill="#010101" d="M407.6,350.956c0.338,0,0.64-0.055,0.906-0.167
		c0.263-0.112,0.49-0.274,0.674-0.48c0.184-0.211,0.323-0.462,0.42-0.763c0.097-0.301,0.145-0.643,0.145-1.023v-6.428h2.516v6.428
		c0,0.664-0.108,1.274-0.326,1.832c-0.215,0.556-0.522,1.036-0.925,1.437c-0.401,0.403-0.893,0.712-1.468,0.938
		c-0.576,0.225-1.223,0.337-1.943,0.337c-0.726,0-1.374-0.112-1.95-0.337c-0.578-0.226-1.064-0.534-1.468-0.938
		c-0.403-0.4-0.71-0.881-0.923-1.437c-0.212-0.558-0.32-1.168-0.32-1.832v-6.428h2.518v6.419c0,0.386,0.047,0.723,0.144,1.022
		c0.097,0.302,0.238,0.558,0.422,0.769c0.184,0.21,0.408,0.372,0.673,0.484S407.263,350.956,407.6,350.956"/>
	<path clip-path="url(#SVGID_23_)" fill="#010101" d="M423.474,352.944h-2.278c-0.421,0-0.723-0.158-0.906-0.477l-1.802-3.146
		c-0.085-0.14-0.179-0.237-0.284-0.296c-0.104-0.063-0.255-0.095-0.447-0.095h-0.64v4.014h-2.518v-10.85h3.529
		c0.784,0,1.452,0.081,2.007,0.243c0.555,0.16,1.005,0.385,1.355,0.673c0.35,0.287,0.606,0.628,0.764,1.018
		c0.159,0.396,0.238,0.822,0.238,1.285c0,0.354-0.048,0.683-0.144,0.997c-0.094,0.309-0.23,0.6-0.415,0.866
		c-0.184,0.269-0.41,0.506-0.682,0.712c-0.269,0.207-0.582,0.383-0.936,0.513c0.167,0.085,0.319,0.193,0.465,0.318
		c0.141,0.125,0.27,0.274,0.385,0.449L423.474,352.944z M418.127,347.193c0.344,0,0.636-0.04,0.876-0.129
		c0.242-0.086,0.438-0.207,0.591-0.36c0.154-0.152,0.266-0.331,0.336-0.537c0.068-0.208,0.105-0.432,0.105-0.67
		c0-0.476-0.155-0.849-0.468-1.117c-0.309-0.266-0.79-0.399-1.441-0.399h-1.011v3.213H418.127z"/>
	<path clip-path="url(#SVGID_23_)" fill="#010101" d="M434.496,352.944h-1.952c-0.219,0-0.396-0.05-0.528-0.153
		c-0.133-0.099-0.238-0.233-0.305-0.39l-0.641-1.891h-4.124l-0.644,1.891c-0.053,0.139-0.149,0.264-0.293,0.377
		c-0.143,0.112-0.317,0.166-0.523,0.166h-1.969l4.202-10.85h2.574L434.496,352.944z M430.496,348.797l-1.003-2.972
		c-0.076-0.189-0.155-0.408-0.24-0.664s-0.169-0.535-0.253-0.831c-0.075,0.301-0.154,0.583-0.239,0.84
		c-0.085,0.26-0.163,0.484-0.237,0.673l-0.999,2.954H430.496z"/>
</g>
</svg>
