<?xml version="1.0" encoding="utf-8"?>
<!-- Generator: Adobe Illustrator 16.0.0, SVG Export Plug-In . SVG Version: 6.00 Build 0)  -->
<!DOCTYPE svg PUBLIC "-//W3C//DTD SVG 1.1//EN" "http://www.w3.org/Graphics/SVG/1.1/DTD/svg11.dtd">
<svg version="1.1" id="Layer_1" xmlns="http://www.w3.org/2000/svg" xmlns:xlink="http://www.w3.org/1999/xlink" x="0px" y="0px"
	 width="14400px" height="14400px" viewBox="0 0 14400 14400" enable-background="new 0 0 14400 14400" xml:space="preserve">
<g>
	<g>
		<path fill="#A31202" d="M7189.263,7224.5c-1.727,0-3.217-0.746-4.215-1.923l1.268-1.24c0.799,0.864,1.965,1.411,3.08,1.411
			c1.66,0,2.457-0.58,2.457-1.735c0-0.919-0.693-1.379-2.676-1.976c-2.504-0.751-3.705-1.377-3.705-3.507
			c0-2.059,1.727-3.32,3.908-3.32c1.607,0,2.826,0.598,3.877,1.619l-1.252,1.276c-0.746-0.766-1.592-1.141-2.76-1.141
			c-1.387,0-1.98,0.682-1.98,1.48c0,0.835,0.543,1.242,2.59,1.856c2.336,0.716,3.789,1.464,3.789,3.59
			C7193.644,7223.038,7192.29,7224.5,7189.263,7224.5z"/>
		<path fill="#A31202" d="M7200.976,7224.313v-0.884c-0.611,0.612-1.473,1.07-2.438,1.07c-1.439,0-3.08-0.815-3.08-3.012
			c0-1.992,1.521-2.892,3.537-2.892c0.83,0,1.486,0.118,1.98,0.336v-0.66c0-0.971-0.594-1.517-1.678-1.517
			c-0.914,0-1.623,0.169-2.318,0.564l-0.678-1.328c0.85-0.528,1.795-0.802,3.047-0.802c1.982,0,3.334,0.969,3.334,2.996v6.127
			H7200.976z M7200.976,7220.5c-0.475-0.239-1.082-0.391-2.031-0.391c-1.117,0-1.83,0.513-1.83,1.328
			c0,0.884,0.561,1.479,1.713,1.479c0.928,0,1.74-0.576,2.148-1.14V7220.5z"/>
		<path fill="#A31202" d="M7206.151,7214.222c-0.623,0-1.133-0.513-1.133-1.125c0-0.631,0.51-1.14,1.133-1.14
			c0.611,0,1.119,0.509,1.119,1.14C7207.271,7213.709,7206.763,7214.222,7206.151,7214.222z M7205.274,7224.313v-8.937h1.742v8.937
			H7205.274z"/>
		<path fill="#A31202" d="M7214.495,7217.231c-0.369-0.202-0.76-0.322-1.336-0.322c-1.1,0-1.744,0.784-1.744,2.299v5.105h-1.742
			v-8.937h1.742v0.851c0.406-0.593,1.152-1.037,2.031-1.037c0.711,0,1.152,0.138,1.506,0.373L7214.495,7217.231z"/>
	</g>
</g>
<g>
	<rect x="7177.5" y="7174.5" fill="#A31202" width="45" height="36.84"/>
	<g>
		<path fill="#FFFFFF" stroke="#FFFFFF" stroke-miterlimit="10" d="M7203.729,7201.404l-1.905-3.283
			c-0.604-1.035-1.545-2.796-1.859-3.424c-0.289,0.628-1.23,2.34-1.856,3.424l-1.883,3.283h-2.966l5.235-8.707l-4.897-8.175h3.017
			l1.541,2.722c0.579,1.039,1.543,2.822,1.858,3.45c0.313-0.628,1.23-2.363,1.858-3.45l1.565-2.722h2.966l-4.894,8.151l5.23,8.73
			H7203.729z"/>
	</g>
</g>
</svg>
