<?xml version="1.0" encoding="UTF-8" standalone="no"?>
<!-- Created with Inkscape (http://www.inkscape.org/) -->

<svg
   xmlns:dc="http://purl.org/dc/elements/1.1/"
   xmlns:cc="http://creativecommons.org/ns#"
   xmlns:rdf="http://www.w3.org/1999/02/22-rdf-syntax-ns#"
   xmlns:svg="http://www.w3.org/2000/svg"
   xmlns="http://www.w3.org/2000/svg"
   xmlns:sodipodi="http://sodipodi.sourceforge.net/DTD/sodipodi-0.dtd"
   xmlns:inkscape="http://www.inkscape.org/namespaces/inkscape"
   width="1280"
   height="720"
   viewBox="0 0 1280 720"
   id="svg4359"
   version="1.1"
   inkscape:version="0.91 r13725"
   sodipodi:docname="Botão OK.svg">
  <defs
     id="defs4361" />
  <sodipodi:namedview
     id="base"
     pagecolor="#ffffff"
     bordercolor="#666666"
     borderopacity="1.0"
     inkscape:pageopacity="0.0"
     inkscape:pageshadow="2"
     inkscape:zoom="1.4"
     inkscape:cx="799.35753"
     inkscape:cy="125.11321"
     inkscape:document-units="px"
     inkscape:current-layer="layer1"
     showgrid="true"
     units="px"
     borderlayer="false"
     showborder="true"
     inkscape:showpageshadow="false"
     gridtolerance="48"
     inkscape:window-width="1600"
     inkscape:window-height="845"
     inkscape:window-x="0"
     inkscape:window-y="27"
     inkscape:window-maximized="1">
    <inkscape:grid
       type="xygrid"
       id="grid4907"
       enabled="true"
       spacingx="40"
       spacingy="40.000001"
       snapvisiblegridlinesonly="true"
       visible="true"
       empspacing="2"
       dotted="false" />
  </sodipodi:namedview>
  <metadata
     id="metadata4364">
    <rdf:RDF>
      <cc:Work
         rdf:about="">
        <dc:format>image/svg+xml</dc:format>
        <dc:type
           rdf:resource="http://purl.org/dc/dcmitype/StillImage" />
        <dc:title></dc:title>
      </cc:Work>
    </rdf:RDF>
  </metadata>
  <g
     inkscape:label="Camada 1"
     inkscape:groupmode="layer"
     id="layer1"
     transform="translate(0,-332.36216)">
    <rect
       style="opacity:0.2;fill:#000061;fill-opacity:1;stroke:none;stroke-width:8.28499985;stroke-linecap:round;stroke-linejoin:miter;stroke-miterlimit:4;stroke-dasharray:none;stroke-dashoffset:33.22999954;stroke-opacity:0.7254902"
       id="rect5075"
       width="637.85718"
       height="443.57144"
       x="494.97241"
       y="609.69489" />
    <path
       style="opacity:1;fill:#d30007;fill-opacity:1;stroke:none;stroke-width:3.32299995;stroke-linecap:round;stroke-linejoin:miter;stroke-miterlimit:4;stroke-dasharray:none;stroke-dashoffset:33.22999954;stroke-opacity:1"
       id="path4917"
       sodipodi:type="arc"
       sodipodi:cx="-474.64322"
       sodipodi:cy="653.4679"
       sodipodi:rx="199"
       sodipodi:ry="199"
       sodipodi:start="3.0875922"
       sodipodi:end="3.0178139"
       sodipodi:open="true"
       d="m -673.35314,664.20876 a 199,199 0 0 1 184.50445,-209.23319 199,199 0 0 1 212.4198,180.82658 199,199 0 0 1 -177.09368,215.54176 199,199 0 0 1 -218.59814,-173.30689" />
    <g
       id="g4922"
       style="font-style:normal;font-variant:normal;font-weight:normal;font-stretch:normal;font-size:32.99636841px;line-height:125%;font-family:'Proxima Nova Rg';-inkscape-font-specification:'Proxima Nova Rg, Normal';text-align:start;letter-spacing:0px;word-spacing:0px;writing-mode:lr-tb;text-anchor:start;fill:#999998;fill-opacity:0.58823529;stroke:none;stroke-width:1px;stroke-linecap:butt;stroke-linejoin:miter;stroke-opacity:1"
       transform="translate(381.96221,515.45849)" />
    <g
       transform="translate(0.50830072,388.35844)"
       id="g4928">
      <g
         id="g5118">
        <g
           transform="translate(117.68189,-26.609124)"
           style="font-style:normal;font-variant:normal;font-weight:normal;font-stretch:normal;font-size:32.99636841px;line-height:125%;font-family:'Proxima Nova Rg';-inkscape-font-specification:'Proxima Nova Rg, Normal';text-align:start;letter-spacing:0px;word-spacing:0px;writing-mode:lr-tb;text-anchor:start;fill:#000000;fill-opacity:0.47058824;stroke:none;stroke-width:1px;stroke-linecap:butt;stroke-linejoin:miter;stroke-opacity:1"
           id="g4930">
          <path
             id="path4932"
             transform="translate(-117.68189,358.97142)"
             d="m 660.08789,65.310547 c -2.41345,0 -4.57568,0.452382 -6.48633,1.357422 -1.87712,0.871526 -3.47005,2.111736 -4.77734,3.720703 -1.30728,1.57544 -2.31365,3.486568 -3.01758,5.732422 -0.6704,2.212326 -1.00391,4.658237 -1.00391,7.339844 0,2.681613 0.33351,5.144778 1.00391,7.390624 0.70393,2.212327 1.7103,4.123456 3.01758,5.732422 1.30729,1.575447 2.90022,2.815664 4.77734,3.720706 0.19747,0.0901 0.40849,0.15556 0.61133,0.23633 -1.28658,-0.800649 -2.41694,-1.785976 -3.38867,-2.957036 -1.30728,-1.608966 -2.31365,-3.520095 -3.01758,-5.732422 -0.6704,-2.245846 -1.00391,-4.709011 -1.00391,-7.390624 0,-2.681607 0.33351,-5.127518 1.00391,-7.339844 0.70393,-2.245854 1.7103,-4.156982 3.01758,-5.732422 1.30729,-1.608967 2.90022,-2.849177 4.77734,-3.720703 1.91065,-0.90504 4.07288,-1.357422 6.48633,-1.357422 2.18964,0 4.14636,0.391755 5.89453,1.136719 -0.46643,-0.284712 -0.94968,-0.546983 -1.45898,-0.779297 -1.87713,-0.90504 -4.0221,-1.357422 -6.43555,-1.357422 z m 22.51758,0.552734 0,35.195309 2,0 0,-34.195309 5.03906,0 0,-1 -7.03906,0 z m 19.55859,0 -9.85547,12.017578 c -0.20531,0.249316 -0.45707,0.560958 -0.68164,0.835938 -0.008,0.335868 -0.0113,0.667419 -0.0332,1.017578 0,0.53632 -0.0172,1.055794 -0.0508,1.558594 l 0,1.15625 c 0.23465,-0.402247 0.63719,-0.954283 1.20703,-1.658203 0.56984,-0.70392 1.08931,-1.34031 1.55859,-1.910157 l 9.85547,-12.017578 5.64844,0 0.84766,-1 -8.4961,0 z m -37.68945,7.78125 c 0.69201,0.505654 1.27456,1.128535 1.74609,1.873047 0.6704,1.005607 1.15731,2.195986 1.45899,3.570313 0.30168,1.3408 0.45117,2.7976 0.45117,4.373047 0,1.575446 -0.14949,3.051454 -0.45117,4.425781 -0.30168,1.340806 -0.78859,2.513931 -1.45899,3.519531 -0.63688,1.005607 -1.47455,1.793441 -2.51367,2.363281 -1.00561,0.56984 -2.21129,0.853516 -3.61914,0.853516 -0.8845,0 -1.68877,-0.124681 -2.42773,-0.349609 0.24088,0.179615 0.49188,0.346506 0.75586,0.496093 1.03912,0.56984 2.26403,0.853516 3.67187,0.853516 1.40785,0 2.61353,-0.283676 3.61914,-0.853516 1.03912,-0.56984 1.87679,-1.357674 2.51367,-2.363281 0.6704,-1.0056 1.15731,-2.178725 1.45899,-3.519531 0.30168,-1.374327 0.45117,-2.850335 0.45117,-4.425781 0,-1.575447 -0.14949,-3.032247 -0.45117,-4.373047 -0.30168,-1.374327 -0.78859,-2.564706 -1.45899,-3.570313 -0.63688,-1.0056 -1.47455,-1.793441 -2.51367,-2.363281 -0.37933,-0.214956 -0.79585,-0.375895 -1.23242,-0.509766 z m 32.80078,11.419922 -0.86523,1.019531 8.41796,14.974606 1.4375,0 -8.99023,-15.994137 z"
             style="font-style:normal;font-variant:normal;font-weight:normal;font-stretch:normal;font-size:50.28018188px;font-family:Interstate;-inkscape-font-specification:Interstate;fill:#000000;fill-opacity:0.47058824"
             inkscape:connector-curvature="0" />
        </g>
        <path
           transform="translate(0,332.3623)"
           id="path4934"
           d="m 679.03906,33.462891 c -27.23957,0 -49.47075,21.90081 -49.99023,49.02539 -0.006,0.32379 -0.01,0.64971 -0.01,0.97461 0,19.980979 11.79226,37.256749 28.77735,45.255859 -15.90216,-8.38038 -26.77735,-25.06988 -26.77735,-44.255859 0,-27.56517 22.43483,-50 50,-50 7.58419,0 14.77562,1.705961 21.22266,4.742187 -6.94503,-3.660004 -14.84347,-5.742187 -23.22266,-5.742187 z m 19.73047,13.21875 c 13.10017,7.024089 21.98438,20.838009 21.98438,36.78125 0,23.087619 -18.62723,41.714839 -41.71485,41.714839 -6.34636,0 -12.35241,-1.41485 -17.73047,-3.93554 5.87037,3.14759 12.58609,4.93555 19.73047,4.93554 23.08762,0 41.71485,-18.62722 41.71485,-41.714839 0,-16.741261 -9.79742,-31.131831 -23.98438,-37.78125 z"
           style="color:#000000;font-style:normal;font-variant:normal;font-weight:normal;font-stretch:normal;font-size:medium;line-height:normal;font-family:sans-serif;text-indent:0;text-align:start;text-decoration:none;text-decoration-line:none;text-decoration-style:solid;text-decoration-color:#000000;letter-spacing:normal;word-spacing:normal;text-transform:none;direction:ltr;block-progression:tb;writing-mode:lr-tb;baseline-shift:baseline;text-anchor:start;white-space:normal;clip-rule:nonzero;display:inline;overflow:visible;visibility:visible;opacity:1;isolation:auto;mix-blend-mode:normal;color-interpolation:sRGB;color-interpolation-filters:linearRGB;solid-color:#000000;solid-opacity:1;fill:#000000;fill-opacity:0.47058824;fill-rule:nonzero;stroke:none;stroke-width:8.28500557;stroke-linecap:round;stroke-linejoin:miter;stroke-miterlimit:4;stroke-dasharray:none;stroke-dashoffset:33.22999954;stroke-opacity:1;color-rendering:auto;image-rendering:auto;shape-rendering:auto;text-rendering:auto;enable-background:accumulate"
           inkscape:connector-curvature="0" />
      </g>
    </g>
    <g
       id="g5123"
       transform="translate(-125.56455,-158.30244)">
      <g
         transform="translate(531.23324,555.5391)"
         style="font-style:normal;font-variant:normal;font-weight:normal;font-stretch:normal;font-size:32.99636841px;line-height:125%;font-family:'Proxima Nova Rg';-inkscape-font-specification:'Proxima Nova Rg, Normal';text-align:start;letter-spacing:0px;word-spacing:0px;writing-mode:lr-tb;text-anchor:start;fill:#ffffff;fill-opacity:1;stroke:none;stroke-width:1px;stroke-linecap:butt;stroke-linejoin:miter;stroke-opacity:1"
         id="g4937">
        <path
           style="font-style:normal;font-variant:normal;font-weight:normal;font-stretch:normal;font-size:50.28018188px;font-family:Interstate;-inkscape-font-specification:Interstate;fill:#ffffff;fill-opacity:0.47058824"
           d="m 666.66016,88.785156 c -2.41345,0 -4.57569,0.452382 -6.48633,1.357422 -1.87713,0.871527 -3.47006,2.111737 -4.77735,3.720703 -0.72751,0.876746 -1.35192,1.868751 -1.89257,2.953125 0.35848,-0.577013 0.73712,-1.131215 1.1582,-1.638672 1.30729,-1.608966 2.90022,-2.849176 4.77734,-3.720703 1.91065,-0.90504 4.07288,-1.357422 6.48633,-1.357422 2.41345,0 4.55842,0.452382 6.43555,1.357422 1.91064,0.871527 3.52084,2.111737 4.82812,3.720703 1.30729,1.57544 2.29445,3.486569 2.96485,5.732426 0.70392,2.21232 1.05664,4.65823 1.05664,7.33984 0,2.68161 -0.35272,5.14478 -1.05664,7.39062 -0.30794,1.01621 -0.6905,1.96267 -1.13282,2.85157 0.773,-1.24563 1.40151,-2.6273 1.86719,-4.16407 0.70393,-2.24584 1.05664,-4.71096 1.05664,-7.39257 0,-2.68161 -0.35271,-5.12752 -1.05664,-7.339847 -0.6704,-2.245853 -1.65951,-4.156982 -2.96679,-5.732422 -1.30729,-1.608966 -2.91553,-2.849176 -4.82618,-3.720703 -1.87712,-0.90504 -4.02209,-1.357422 -6.43554,-1.357422 z m 22.51757,0.552735 0,1.314453 6.30469,0 0,10.005856 0,1.30664 c 0,0.5028 -0.0173,1.02227 -0.0508,1.5586 0,0.53632 -0.0153,1.05579 -0.0488,1.55859 l 0,1.15625 c 0.23465,-0.40225 0.63524,-0.95428 1.20508,-1.6582 0.56984,-0.70392 1.08931,-1.34031 1.55859,-1.91016 l 9.85547,-12.017576 8.11914,0 1.11329,-1.314453 -8.49805,0 -9.85547,12.017579 c -0.46928,0.56985 -0.98875,1.20624 -1.55859,1.91015 -0.56984,0.70392 -0.97239,1.25791 -1.20704,1.66016 l 0,-1.15625 c 0.0335,-0.5028 0.0508,-1.02423 0.0508,-1.56055 0.0335,-0.53632 0.0508,-1.05579 0.0508,-1.55859 l 0,-1.30664 0,-10.005859 -7.03907,0 z m -29.30664,10.796879 c -0.0416,0.059 -0.0885,0.11131 -0.1289,0.17187 -0.63688,1.00561 -1.10653,2.19403 -1.40821,3.56836 -0.30168,1.3408 -0.45312,2.79955 -0.45312,4.375 0,1.57545 0.15144,3.05145 0.45312,4.42578 0.30168,1.34081 0.77133,2.51393 1.40821,3.51953 0.6704,1.00561 1.50806,1.79149 2.51367,2.36133 1.03913,0.56984 2.26208,0.85547 3.66992,0.85547 1.40785,0 2.61549,-0.28563 3.6211,-0.85547 1.03911,-0.56984 1.87678,-1.35572 2.51367,-2.36133 0.25866,-0.388 0.47982,-0.81014 0.68359,-1.24804 -0.63116,0.97204 -1.45009,1.74039 -2.46484,2.29687 -1.00561,0.56984 -2.2113,0.85352 -3.61914,0.85352 -1.40784,0 -2.63275,-0.28368 -3.67188,-0.85352 -1.00561,-0.56984 -1.84327,-1.35767 -2.51367,-2.36328 -0.63688,-1.0056 -1.10652,-2.17873 -1.4082,-3.51953 -0.30169,-1.37433 -0.45118,-2.85034 -0.45118,-4.42578 0,-1.57545 0.14949,-3.03225 0.45118,-4.37305 0.19517,-0.88915 0.4692,-1.69292 0.80468,-2.42773 z m 47.20508,1.64062 -0.88476,1.04492 12.1875,21.71485 1.46875,0 -12.77149,-22.75977 z m -10.85937,12.84961 -0.73438,0.86523 0,9.04493 0.73438,0 0,-9.91016 z"
           transform="translate(-124.25448,335.49644)"
           id="path4939"
           inkscape:connector-curvature="0" />
      </g>
      <path
         style="color:#000000;font-style:normal;font-variant:normal;font-weight:normal;font-stretch:normal;font-size:medium;line-height:normal;font-family:sans-serif;text-indent:0;text-align:start;text-decoration:none;text-decoration-line:none;text-decoration-style:solid;text-decoration-color:#000000;letter-spacing:normal;word-spacing:normal;text-transform:none;direction:ltr;block-progression:tb;writing-mode:lr-tb;baseline-shift:baseline;text-anchor:start;white-space:normal;clip-rule:nonzero;display:inline;overflow:visible;visibility:visible;opacity:1;isolation:auto;mix-blend-mode:normal;color-interpolation:sRGB;color-interpolation-filters:linearRGB;solid-color:#000000;solid-opacity:1;fill:#ffffff;fill-opacity:0.47058824;fill-rule:nonzero;stroke:none;stroke-width:8.28500557;stroke-linecap:round;stroke-linejoin:miter;stroke-miterlimit:4;stroke-dasharray:none;stroke-dashoffset:33.22999954;stroke-opacity:1;color-rendering:auto;image-rendering:auto;shape-rendering:auto;text-rendering:auto;enable-background:accumulate"
         d="m 1090.8043,949.75875 c -19.0923,-10e-6 -35.7165,10.7655 -44.1366,26.54102 8.6276,-15.0539 24.8465,-25.22852 43.4023,-25.22852 27.5651,0 50,22.43483 50,49.99995 0,8.4611 -2.1187,16.4359 -5.8457,23.4297 4.1785,-7.3023 6.5801,-15.7449 6.5801,-24.7422 0,-27.56512 -22.4349,-49.99995 -50.0001,-49.99995 z m -36.8554,30.41992 c -3.5514,6.14051 -5.5937,13.26965 -5.5937,20.89253 0,23.0877 18.6272,41.7149 41.7148,41.7149 16.009,0 29.8685,-8.9593 36.8652,-22.1484 -7.2027,12.465 -20.6604,20.8359 -36.1309,20.8359 -23.0875,0 -41.7148,-18.6272 -41.7148,-41.7149 0,-7.08414 1.7612,-13.745 4.8594,-19.58003 z"
         id="path4941"
         inkscape:connector-curvature="0" />
    </g>
    <g
       transform="translate(-108.70399,459.05756)"
       id="g5077">
      <g
         transform="translate(4.1185277,23.745127)"
         id="g5079">
        <g
           id="g5081"
           style="font-style:normal;font-variant:normal;font-weight:normal;font-stretch:normal;font-size:32.99636841px;line-height:125%;font-family:'Proxima Nova Rg';-inkscape-font-specification:'Proxima Nova Rg, Normal';text-align:start;letter-spacing:0px;word-spacing:0px;writing-mode:lr-tb;text-anchor:start;fill:#000000;fill-opacity:0.47058824;stroke:none;stroke-width:1px;stroke-linecap:butt;stroke-linejoin:miter;stroke-opacity:1"
           transform="translate(117.68189,-26.609124)">
          <path
             inkscape:connector-curvature="0"
             style="font-style:normal;font-variant:normal;font-weight:normal;font-stretch:normal;font-size:50.28018188px;font-family:Interstate;-inkscape-font-specification:Interstate;fill:#000000;fill-opacity:0.47058824"
             d="m 660.08789,65.310547 c -2.41345,0 -4.57568,0.452382 -6.48633,1.357422 -1.87712,0.871526 -3.47005,2.111736 -4.77734,3.720703 -1.30728,1.57544 -2.31365,3.486568 -3.01758,5.732422 -0.6704,2.212326 -1.00391,4.658237 -1.00391,7.339844 0,2.681613 0.33351,5.144778 1.00391,7.390624 0.70393,2.212327 1.7103,4.123456 3.01758,5.732422 1.30729,1.575447 2.90022,2.815664 4.77734,3.720706 0.19747,0.0901 0.40849,0.15556 0.61133,0.23633 -1.28658,-0.800649 -2.41694,-1.785976 -3.38867,-2.957036 -1.30728,-1.608966 -2.31365,-3.520095 -3.01758,-5.732422 -0.6704,-2.245846 -1.00391,-4.709011 -1.00391,-7.390624 0,-2.681607 0.33351,-5.127518 1.00391,-7.339844 0.70393,-2.245854 1.7103,-4.156982 3.01758,-5.732422 1.30729,-1.608967 2.90022,-2.849177 4.77734,-3.720703 1.91065,-0.90504 4.07288,-1.357422 6.48633,-1.357422 2.18964,0 4.14636,0.391755 5.89453,1.136719 -0.46643,-0.284712 -0.94968,-0.546983 -1.45898,-0.779297 -1.87713,-0.90504 -4.0221,-1.357422 -6.43555,-1.357422 z m 22.51758,0.552734 0,35.195309 2,0 0,-34.195309 5.03906,0 0,-1 -7.03906,0 z m 19.55859,0 -9.85547,12.017578 c -0.20531,0.249316 -0.45707,0.560958 -0.68164,0.835938 -0.008,0.335868 -0.0113,0.667419 -0.0332,1.017578 0,0.53632 -0.0172,1.055794 -0.0508,1.558594 l 0,1.15625 c 0.23465,-0.402247 0.63719,-0.954283 1.20703,-1.658203 0.56984,-0.70392 1.08931,-1.34031 1.55859,-1.910157 l 9.85547,-12.017578 5.64844,0 0.84766,-1 -8.4961,0 z m -37.68945,7.78125 c 0.69201,0.505654 1.27456,1.128535 1.74609,1.873047 0.6704,1.005607 1.15731,2.195986 1.45899,3.570313 0.30168,1.3408 0.45117,2.7976 0.45117,4.373047 0,1.575446 -0.14949,3.051454 -0.45117,4.425781 -0.30168,1.340806 -0.78859,2.513931 -1.45899,3.519531 -0.63688,1.005607 -1.47455,1.793441 -2.51367,2.363281 -1.00561,0.56984 -2.21129,0.853516 -3.61914,0.853516 -0.8845,0 -1.68877,-0.124681 -2.42773,-0.349609 0.24088,0.179615 0.49188,0.346506 0.75586,0.496093 1.03912,0.56984 2.26403,0.853516 3.67187,0.853516 1.40785,0 2.61353,-0.283676 3.61914,-0.853516 1.03912,-0.56984 1.87679,-1.357674 2.51367,-2.363281 0.6704,-1.0056 1.15731,-2.178725 1.45899,-3.519531 0.30168,-1.374327 0.45117,-2.850335 0.45117,-4.425781 0,-1.575447 -0.14949,-3.032247 -0.45117,-4.373047 -0.30168,-1.374327 -0.78859,-2.564706 -1.45899,-3.570313 -0.63688,-1.0056 -1.47455,-1.793441 -2.51367,-2.363281 -0.37933,-0.214956 -0.79585,-0.375895 -1.23242,-0.509766 z m 32.80078,11.419922 -0.86523,1.019531 8.41796,14.974606 1.4375,0 -8.99023,-15.994137 z"
             transform="translate(-117.68189,358.97142)"
             id="path5083" />
        </g>
        <path
           inkscape:connector-curvature="0"
           style="color:#000000;font-style:normal;font-variant:normal;font-weight:normal;font-stretch:normal;font-size:medium;line-height:normal;font-family:sans-serif;text-indent:0;text-align:start;text-decoration:none;text-decoration-line:none;text-decoration-style:solid;text-decoration-color:#000000;letter-spacing:normal;word-spacing:normal;text-transform:none;direction:ltr;block-progression:tb;writing-mode:lr-tb;baseline-shift:baseline;text-anchor:start;white-space:normal;clip-rule:nonzero;display:inline;overflow:visible;visibility:visible;opacity:1;isolation:auto;mix-blend-mode:normal;color-interpolation:sRGB;color-interpolation-filters:linearRGB;solid-color:#000000;solid-opacity:1;fill:#000000;fill-opacity:0.47058824;fill-rule:nonzero;stroke:none;stroke-width:8.28500557;stroke-linecap:round;stroke-linejoin:miter;stroke-miterlimit:4;stroke-dasharray:none;stroke-dashoffset:33.22999954;stroke-opacity:1;color-rendering:auto;image-rendering:auto;shape-rendering:auto;text-rendering:auto;enable-background:accumulate"
           d="m 679.03906,33.462891 c -27.23957,0 -49.47075,21.90081 -49.99023,49.02539 -0.006,0.32379 -0.01,0.64971 -0.01,0.97461 0,19.980979 11.79226,37.256749 28.77735,45.255859 -15.90216,-8.38038 -26.77735,-25.06988 -26.77735,-44.255859 0,-27.56517 22.43483,-50 50,-50 7.58419,0 14.77562,1.705961 21.22266,4.742187 -6.94503,-3.660004 -14.84347,-5.742187 -23.22266,-5.742187 z m 19.73047,13.21875 c 13.10017,7.024089 21.98438,20.838009 21.98438,36.78125 0,23.087619 -18.62723,41.714839 -41.71485,41.714839 -6.34636,0 -12.35241,-1.41485 -17.73047,-3.93554 5.87037,3.14759 12.58609,4.93555 19.73047,4.93554 23.08762,0 41.71485,-18.62722 41.71485,-41.714839 0,-16.741261 -9.79742,-31.131831 -23.98438,-37.78125 z"
           transform="translate(0,332.3623)"
           id="path5085" />
      </g>
      <g
         id="g5087"
         style="font-style:normal;font-variant:normal;font-weight:normal;font-stretch:normal;font-size:32.99636841px;line-height:125%;font-family:'Proxima Nova Rg';-inkscape-font-specification:'Proxima Nova Rg, Normal';text-align:start;letter-spacing:0px;word-spacing:0px;writing-mode:lr-tb;text-anchor:start;fill:#ffffff;fill-opacity:1;stroke:none;stroke-width:1px;stroke-linecap:butt;stroke-linejoin:miter;stroke-opacity:1"
         transform="translate(124.25448,-3.134142)">
        <path
           inkscape:connector-curvature="0"
           id="path5089"
           transform="translate(-124.25448,335.49644)"
           d="m 666.66016,88.785156 c -2.41345,0 -4.57569,0.452382 -6.48633,1.357422 -1.87713,0.871527 -3.47006,2.111737 -4.77735,3.720703 -0.72751,0.876746 -1.35192,1.868751 -1.89257,2.953125 0.35848,-0.577013 0.73712,-1.131215 1.1582,-1.638672 1.30729,-1.608966 2.90022,-2.849176 4.77734,-3.720703 1.91065,-0.90504 4.07288,-1.357422 6.48633,-1.357422 2.41345,0 4.55842,0.452382 6.43555,1.357422 1.91064,0.871527 3.52084,2.111737 4.82812,3.720703 1.30729,1.57544 2.29445,3.486569 2.96485,5.732426 0.70392,2.21232 1.05664,4.65823 1.05664,7.33984 0,2.68161 -0.35272,5.14478 -1.05664,7.39062 -0.30794,1.01621 -0.6905,1.96267 -1.13282,2.85157 0.773,-1.24563 1.40151,-2.6273 1.86719,-4.16407 0.70393,-2.24584 1.05664,-4.71096 1.05664,-7.39257 0,-2.68161 -0.35271,-5.12752 -1.05664,-7.339847 -0.6704,-2.245853 -1.65951,-4.156982 -2.96679,-5.732422 -1.30729,-1.608966 -2.91553,-2.849176 -4.82618,-3.720703 -1.87712,-0.90504 -4.02209,-1.357422 -6.43554,-1.357422 z m 22.51757,0.552735 0,1.314453 6.30469,0 0,10.005856 0,1.30664 c 0,0.5028 -0.0173,1.02227 -0.0508,1.5586 0,0.53632 -0.0153,1.05579 -0.0488,1.55859 l 0,1.15625 c 0.23465,-0.40225 0.63524,-0.95428 1.20508,-1.6582 0.56984,-0.70392 1.08931,-1.34031 1.55859,-1.91016 l 9.85547,-12.017576 8.11914,0 1.11329,-1.314453 -8.49805,0 -9.85547,12.017579 c -0.46928,0.56985 -0.98875,1.20624 -1.55859,1.91015 -0.56984,0.70392 -0.97239,1.25791 -1.20704,1.66016 l 0,-1.15625 c 0.0335,-0.5028 0.0508,-1.02423 0.0508,-1.56055 0.0335,-0.53632 0.0508,-1.05579 0.0508,-1.55859 l 0,-1.30664 0,-10.005859 -7.03907,0 z m -29.30664,10.796879 c -0.0416,0.059 -0.0885,0.11131 -0.1289,0.17187 -0.63688,1.00561 -1.10653,2.19403 -1.40821,3.56836 -0.30168,1.3408 -0.45312,2.79955 -0.45312,4.375 0,1.57545 0.15144,3.05145 0.45312,4.42578 0.30168,1.34081 0.77133,2.51393 1.40821,3.51953 0.6704,1.00561 1.50806,1.79149 2.51367,2.36133 1.03913,0.56984 2.26208,0.85547 3.66992,0.85547 1.40785,0 2.61549,-0.28563 3.6211,-0.85547 1.03911,-0.56984 1.87678,-1.35572 2.51367,-2.36133 0.25866,-0.388 0.47982,-0.81014 0.68359,-1.24804 -0.63116,0.97204 -1.45009,1.74039 -2.46484,2.29687 -1.00561,0.56984 -2.2113,0.85352 -3.61914,0.85352 -1.40784,0 -2.63275,-0.28368 -3.67188,-0.85352 -1.00561,-0.56984 -1.84327,-1.35767 -2.51367,-2.36328 -0.63688,-1.0056 -1.10652,-2.17873 -1.4082,-3.51953 -0.30169,-1.37433 -0.45118,-2.85034 -0.45118,-4.42578 0,-1.57545 0.14949,-3.03225 0.45118,-4.37305 0.19517,-0.88915 0.4692,-1.69292 0.80468,-2.42773 z m 47.20508,1.64062 -0.88476,1.04492 12.1875,21.71485 1.46875,0 -12.77149,-22.75977 z m -10.85937,12.84961 -0.73438,0.86523 0,9.04493 0.73438,0 0,-9.91016 z"
           style="font-style:normal;font-variant:normal;font-weight:normal;font-stretch:normal;font-size:50.28018188px;font-family:Interstate;-inkscape-font-specification:Interstate;fill:#ffffff;fill-opacity:0.47058824" />
      </g>
      <path
         inkscape:connector-curvature="0"
         id="path5091"
         transform="translate(0,332.3623)"
         d="m 685.61133,56.9375 c -19.09235,-7e-6 -35.71656,10.765497 -44.13672,26.541016 C 650.10227,68.424625 666.32119,58.25 684.87695,58.25 c 27.56517,0 50,22.43483 50,50 0,8.46102 -2.1187,16.43582 -5.8457,23.42969 4.1785,-7.30237 6.58008,-15.74497 6.58008,-24.74219 0,-27.56517 -22.43483,-50 -50,-50 z m -36.85547,30.419922 c -3.55136,6.14051 -5.59375,13.269648 -5.59375,20.892578 0,23.08762 18.62722,41.71485 41.71484,41.71484 16.00905,0 29.86854,-8.9593 36.86524,-22.14843 -7.20269,12.46504 -20.66038,20.83593 -36.13086,20.83593 -23.08762,0 -41.71485,-18.62722 -41.71485,-41.71484 0,-7.084189 1.76113,-13.745052 4.85938,-19.580078 z"
         style="color:#000000;font-style:normal;font-variant:normal;font-weight:normal;font-stretch:normal;font-size:medium;line-height:normal;font-family:sans-serif;text-indent:0;text-align:start;text-decoration:none;text-decoration-line:none;text-decoration-style:solid;text-decoration-color:#000000;letter-spacing:normal;word-spacing:normal;text-transform:none;direction:ltr;block-progression:tb;writing-mode:lr-tb;baseline-shift:baseline;text-anchor:start;white-space:normal;clip-rule:nonzero;display:inline;overflow:visible;visibility:visible;opacity:1;isolation:auto;mix-blend-mode:normal;color-interpolation:sRGB;color-interpolation-filters:linearRGB;solid-color:#000000;solid-opacity:1;fill:#ffffff;fill-opacity:0.47058824;fill-rule:nonzero;stroke:none;stroke-width:8.28500557;stroke-linecap:round;stroke-linejoin:miter;stroke-miterlimit:4;stroke-dasharray:none;stroke-dashoffset:33.22999954;stroke-opacity:1;color-rendering:auto;image-rendering:auto;shape-rendering:auto;text-rendering:auto;enable-background:accumulate" />
      <g
         id="g5093"
         style="opacity:0.2"
         transform="translate(4.1882577,23.437237)">
        <g
           id="g5095"
           transform="translate(22.202272,-38.97161)"
           style="fill:#999998;fill-opacity:0.7254902">
          <g
             id="g5097"
             style="font-style:normal;font-variant:normal;font-weight:normal;font-stretch:normal;font-size:32.99636841px;line-height:125%;font-family:'Proxima Nova Rg';-inkscape-font-specification:'Proxima Nova Rg, Normal';text-align:start;letter-spacing:0px;word-spacing:0px;writing-mode:lr-tb;text-anchor:start;fill:#999998;fill-opacity:0.7254902;stroke:none;stroke-width:1px;stroke-linecap:butt;stroke-linejoin:miter;stroke-opacity:1"
             transform="translate(97.431893,13.390876)">
            <path
               d="m 587.14661,460.0308 -9.55324,-16.99471 -5.63138,6.63699 0,10.35772 -7.03922,0 0,-35.19613 7.03922,0 0,10.00575 q 0,0.50281 0,1.30729 0,0.7542 -0.0503,1.55869 0,0.80448 -0.0503,1.55868 0,0.7542 0,1.15645 0.35197,-0.60337 1.20673,-1.65925 0.85476,-1.05588 1.55868,-1.91065 l 9.85492,-12.01696 8.49735,0 -10.30744,12.1678 12.92201,23.02833 -8.44707,0 z m -29.45633,-17.59807 q 0,4.02242 -1.05589,7.39119 -1.0056,3.31849 -2.96653,5.73194 -1.96092,2.36317 -4.82689,3.72073 -2.81569,1.30729 -6.43587,1.30729 -3.62017,0 -6.48614,-1.30729 -2.81569,-1.35756 -4.77662,-3.72073 -1.96092,-2.41345 -3.01681,-5.73194 -1.0056,-3.36877 -1.0056,-7.39119 0,-4.02241 1.0056,-7.3409 1.05589,-3.36878 3.01681,-5.73194 1.96093,-2.41345 4.77662,-3.72074 2.86597,-1.35756 6.48614,-1.35756 3.62018,0 6.43587,1.35756 2.86597,1.30729 4.82689,3.72074 1.96093,2.36316 2.96653,5.73194 1.05589,3.31849 1.05589,7.3409 z m -7.24035,0 q 0,-2.36317 -0.45252,-4.37437 -0.45252,-2.06149 -1.45812,-3.5699 -0.95533,-1.5084 -2.51401,-2.36316 -1.50841,-0.85477 -3.62018,-0.85477 -2.11176,0 -3.67045,0.85477 -1.50841,0.85476 -2.51401,2.36316 -0.95532,1.50841 -1.40784,3.5699 -0.45253,2.0112 -0.45253,4.37437 0,2.36317 0.45253,4.42466 0.45252,2.01121 1.40784,3.51961 1.0056,1.50841 2.51401,2.36317 1.55869,0.85476 3.67045,0.85476 2.11177,0 3.62018,-0.85476 1.55868,-0.85476 2.51401,-2.36317 1.0056,-1.5084 1.45812,-3.51961 0.45252,-2.06149 0.45252,-4.42466 z"
               style="font-style:normal;font-variant:normal;font-weight:normal;font-stretch:normal;font-size:50.28018188px;font-family:Interstate;-inkscape-font-specification:Interstate;fill:#999998;fill-opacity:0.7254902"
               id="path5099"
               inkscape:connector-curvature="0" />
          </g>
          <path
             id="path5101"
             d="m 704.64619,455.82361 a 45.857494,45.857498 0 0 1 -45.85749,45.8575 45.857494,45.857498 0 0 1 -45.8575,-45.8575 45.857494,45.857498 0 0 1 45.8575,-45.8575 45.857494,45.857498 0 0 1 45.85749,45.8575 z"
             style="opacity:1;fill:none;fill-opacity:0.7254902;stroke:#999998;stroke-width:8.28500557;stroke-linecap:round;stroke-linejoin:miter;stroke-miterlimit:4;stroke-dasharray:none;stroke-dashoffset:33.22999954;stroke-opacity:0.7254902"
             inkscape:connector-curvature="0" />
        </g>
      </g>
    </g>
    <g
       transform="translate(359.3813,668.18191)"
       style="opacity:0.2"
       id="g5128">
      <g
         style="fill:#999998;fill-opacity:0.7254902"
         transform="translate(22.202272,-38.97161)"
         id="g5130">
        <g
           id="g5138"
           transform="translate(132.64286,-92.142857)">
          <g
             id="g5132"
             style="font-style:normal;font-variant:normal;font-weight:normal;font-stretch:normal;font-size:32.99636841px;line-height:125%;font-family:'Proxima Nova Rg';-inkscape-font-specification:'Proxima Nova Rg, Normal';text-align:start;letter-spacing:0px;word-spacing:0px;writing-mode:lr-tb;text-anchor:start;fill:#000000;fill-opacity:1;stroke:none;stroke-width:1px;stroke-linecap:butt;stroke-linejoin:miter;stroke-opacity:1"
             transform="translate(97.431893,13.390876)" />
        </g>
      </g>
    </g>
    <g
       id="g5143"
       transform="translate(193.13228,422.69251)"
       style="opacity:0.85;fill:#000000">
      <g
         id="g5145"
         style="font-style:normal;font-variant:normal;font-weight:normal;font-stretch:normal;font-size:32.99636841px;line-height:125%;font-family:'Proxima Nova Rg';-inkscape-font-specification:'Proxima Nova Rg, Normal';text-align:start;letter-spacing:0px;word-spacing:0px;writing-mode:lr-tb;text-anchor:start;fill:#ffffff;fill-opacity:1;stroke:none;stroke-width:1px;stroke-linecap:butt;stroke-linejoin:miter;stroke-opacity:1"
         transform="translate(97.431893,13.390876)">
        <path
           d="m 587.14661,460.0308 -9.55324,-16.99471 -5.63138,6.63699 0,10.35772 -7.03922,0 0,-35.19613 7.03922,0 0,10.00575 q 0,0.50281 0,1.30729 0,0.7542 -0.0503,1.55869 0,0.80448 -0.0503,1.55868 0,0.7542 0,1.15645 0.35197,-0.60337 1.20673,-1.65925 0.85476,-1.05588 1.55868,-1.91065 l 9.85492,-12.01696 8.49735,0 -10.30744,12.1678 12.92201,23.02833 -8.44707,0 z m -29.45633,-17.59807 q 0,4.02242 -1.05589,7.39119 -1.0056,3.31849 -2.96653,5.73194 -1.96092,2.36317 -4.82689,3.72073 -2.81569,1.30729 -6.43587,1.30729 -3.62017,0 -6.48614,-1.30729 -2.81569,-1.35756 -4.77662,-3.72073 -1.96092,-2.41345 -3.01681,-5.73194 -1.0056,-3.36877 -1.0056,-7.39119 0,-4.02241 1.0056,-7.3409 1.05589,-3.36878 3.01681,-5.73194 1.96093,-2.41345 4.77662,-3.72074 2.86597,-1.35756 6.48614,-1.35756 3.62018,0 6.43587,1.35756 2.86597,1.30729 4.82689,3.72074 1.96093,2.36316 2.96653,5.73194 1.05589,3.31849 1.05589,7.3409 z m -7.24035,0 q 0,-2.36317 -0.45252,-4.37437 -0.45252,-2.06149 -1.45812,-3.5699 -0.95533,-1.5084 -2.51401,-2.36316 -1.50841,-0.85477 -3.62018,-0.85477 -2.11176,0 -3.67045,0.85477 -1.50841,0.85476 -2.51401,2.36316 -0.95532,1.50841 -1.40784,3.5699 -0.45253,2.0112 -0.45253,4.37437 0,2.36317 0.45253,4.42466 0.45252,2.01121 1.40784,3.51961 1.0056,1.50841 2.51401,2.36317 1.55869,0.85476 3.67045,0.85476 2.11177,0 3.62018,-0.85476 1.55868,-0.85476 2.51401,-2.36317 1.0056,-1.5084 1.45812,-3.51961 0.45252,-2.06149 0.45252,-4.42466 z"
           style="font-style:normal;font-variant:normal;font-weight:normal;font-stretch:normal;font-size:50.28018188px;font-family:Interstate;-inkscape-font-specification:Interstate;fill:#ffffff;fill-opacity:1"
           id="path5147"
           inkscape:connector-curvature="0" />
      </g>
      <path
         id="path5149"
         d="m 704.64619,455.82361 a 45.857494,45.857498 0 0 1 -45.85749,45.8575 45.857494,45.857498 0 0 1 -45.8575,-45.8575 45.857494,45.857498 0 0 1 45.8575,-45.8575 45.857494,45.857498 0 0 1 45.85749,45.8575 z"
         style="opacity:1;fill:none;fill-opacity:1;stroke:#ffffff;stroke-width:8.28500557;stroke-linecap:round;stroke-linejoin:miter;stroke-miterlimit:4;stroke-dasharray:none;stroke-dashoffset:33.22999954;stroke-opacity:1"
         inkscape:connector-curvature="0" />
    </g>
    <g
       id="g5151"
       style="opacity:0.2"
       transform="translate(36.167014,553.8962)">
      <g
         id="g5153"
         transform="translate(22.202272,-38.97161)"
         style="fill:#999998;fill-opacity:0.7254902">
        <g
           transform="translate(132.64286,-92.142857)"
           id="g5155">
          <g
             transform="translate(97.431893,13.390876)"
             style="font-style:normal;font-variant:normal;font-weight:normal;font-stretch:normal;font-size:32.99636841px;line-height:125%;font-family:'Proxima Nova Rg';-inkscape-font-specification:'Proxima Nova Rg, Normal';text-align:start;letter-spacing:0px;word-spacing:0px;writing-mode:lr-tb;text-anchor:start;fill:#000000;fill-opacity:1;stroke:none;stroke-width:1px;stroke-linecap:butt;stroke-linejoin:miter;stroke-opacity:1"
             id="g5157">
            <path
               inkscape:connector-curvature="0"
               id="path5159"
               style="font-style:normal;font-variant:normal;font-weight:normal;font-stretch:normal;font-size:50.28018188px;font-family:Interstate;-inkscape-font-specification:Interstate;fill:#000000;fill-opacity:1;stroke:none;stroke-opacity:1"
               d="m 587.14661,460.0308 -9.55324,-16.99471 -5.63138,6.63699 0,10.35772 -7.03922,0 0,-35.19613 7.03922,0 0,10.00575 q 0,0.50281 0,1.30729 0,0.7542 -0.0503,1.55869 0,0.80448 -0.0503,1.55868 0,0.7542 0,1.15645 0.35197,-0.60337 1.20673,-1.65925 0.85476,-1.05588 1.55868,-1.91065 l 9.85492,-12.01696 8.49735,0 -10.30744,12.1678 12.92201,23.02833 -8.44707,0 z m -29.45633,-17.59807 q 0,4.02242 -1.05589,7.39119 -1.0056,3.31849 -2.96653,5.73194 -1.96092,2.36317 -4.82689,3.72073 -2.81569,1.30729 -6.43587,1.30729 -3.62017,0 -6.48614,-1.30729 -2.81569,-1.35756 -4.77662,-3.72073 -1.96092,-2.41345 -3.01681,-5.73194 -1.0056,-3.36877 -1.0056,-7.39119 0,-4.02241 1.0056,-7.3409 1.05589,-3.36878 3.01681,-5.73194 1.96093,-2.41345 4.77662,-3.72074 2.86597,-1.35756 6.48614,-1.35756 3.62018,0 6.43587,1.35756 2.86597,1.30729 4.82689,3.72074 1.96093,2.36316 2.96653,5.73194 1.05589,3.31849 1.05589,7.3409 z m -7.24035,0 q 0,-2.36317 -0.45252,-4.37437 -0.45252,-2.06149 -1.45812,-3.5699 -0.95533,-1.5084 -2.51401,-2.36316 -1.50841,-0.85477 -3.62018,-0.85477 -2.11176,0 -3.67045,0.85477 -1.50841,0.85476 -2.51401,2.36316 -0.95532,1.50841 -1.40784,3.5699 -0.45253,2.0112 -0.45253,4.37437 0,2.36317 0.45253,4.42466 0.45252,2.01121 1.40784,3.51961 1.0056,1.50841 2.51401,2.36317 1.55869,0.85476 3.67045,0.85476 2.11177,0 3.62018,-0.85476 1.55868,-0.85476 2.51401,-2.36317 1.0056,-1.5084 1.45812,-3.51961 0.45252,-2.06149 0.45252,-4.42466 z" />
          </g>
          <path
             inkscape:connector-curvature="0"
             style="opacity:1;fill:none;fill-opacity:0.7254902;stroke:#000000;stroke-width:8.28500557;stroke-linecap:round;stroke-linejoin:miter;stroke-miterlimit:4;stroke-dasharray:none;stroke-dashoffset:33.22999954;stroke-opacity:1"
             d="m 704.64619,455.82361 c 0,25.3264 -20.5311,45.8575 -45.85749,45.8575 -25.3264,0 -45.8575,-20.5311 -45.8575,-45.8575 0,-25.3264 20.5311,-45.8575 45.8575,-45.8575 19.8475,0 36.75004,12.6089 43.13428,30.25339 1.76237,4.87074 2.72321,10.12522 2.72321,15.60411 z"
             id="path5161"
             sodipodi:nodetypes="ssssss" />
        </g>
      </g>
    </g>
    <g
       id="g5275"
       inkscape:export-xdpi="90"
       inkscape:export-ydpi="90">
      <rect
         y="941.19922"
         x="644.87524"
         height="80"
         width="80"
         id="rect5273"
         style="opacity:0.7;fill:none;fill-opacity:1;stroke:none;stroke-width:8.28499985;stroke-linecap:round;stroke-linejoin:miter;stroke-miterlimit:4;stroke-dasharray:none;stroke-dashoffset:33.22999954;stroke-opacity:0.60191082" />
      <g
         transform="matrix(0.78235935,0,0,0.78235935,139.8422,204.70358)"
         id="g5258">
        <g
           id="g4943"
           style="opacity:0.2"
           transform="translate(14.793905,575.71213)">
          <g
             id="g4945"
             transform="translate(22.202272,-38.97161)"
             style="fill:#999998;fill-opacity:0.7254902">
            <g
               id="g4947"
               style="font-style:normal;font-variant:normal;font-weight:normal;font-stretch:normal;font-size:32.99636841px;line-height:125%;font-family:'Proxima Nova Rg';-inkscape-font-specification:'Proxima Nova Rg, Normal';text-align:start;letter-spacing:0px;word-spacing:0px;writing-mode:lr-tb;text-anchor:start;fill:#999998;fill-opacity:0.7254902;stroke:none;stroke-width:1px;stroke-linecap:butt;stroke-linejoin:miter;stroke-opacity:1"
               transform="translate(97.431893,13.390876)">
              <path
                 d="m 587.14661,460.0308 -9.55324,-16.99471 -5.63138,6.63699 0,10.35772 -7.03922,0 0,-35.19613 7.03922,0 0,10.00575 q 0,0.50281 0,1.30729 0,0.7542 -0.0503,1.55869 0,0.80448 -0.0503,1.55868 0,0.7542 0,1.15645 0.35197,-0.60337 1.20673,-1.65925 0.85476,-1.05588 1.55868,-1.91065 l 9.85492,-12.01696 8.49735,0 -10.30744,12.1678 12.92201,23.02833 -8.44707,0 z m -29.45633,-17.59807 q 0,4.02242 -1.05589,7.39119 -1.0056,3.31849 -2.96653,5.73194 -1.96092,2.36317 -4.82689,3.72073 -2.81569,1.30729 -6.43587,1.30729 -3.62017,0 -6.48614,-1.30729 -2.81569,-1.35756 -4.77662,-3.72073 -1.96092,-2.41345 -3.01681,-5.73194 -1.0056,-3.36877 -1.0056,-7.39119 0,-4.02241 1.0056,-7.3409 1.05589,-3.36878 3.01681,-5.73194 1.96093,-2.41345 4.77662,-3.72074 2.86597,-1.35756 6.48614,-1.35756 3.62018,0 6.43587,1.35756 2.86597,1.30729 4.82689,3.72074 1.96093,2.36316 2.96653,5.73194 1.05589,3.31849 1.05589,7.3409 z m -7.24035,0 q 0,-2.36317 -0.45252,-4.37437 -0.45252,-2.06149 -1.45812,-3.5699 -0.95533,-1.5084 -2.51401,-2.36316 -1.50841,-0.85477 -3.62018,-0.85477 -2.11176,0 -3.67045,0.85477 -1.50841,0.85476 -2.51401,2.36316 -0.95532,1.50841 -1.40784,3.5699 -0.45253,2.0112 -0.45253,4.37437 0,2.36317 0.45253,4.42466 0.45252,2.01121 1.40784,3.51961 1.0056,1.50841 2.51401,2.36317 1.55869,0.85476 3.67045,0.85476 2.11177,0 3.62018,-0.85476 1.55868,-0.85476 2.51401,-2.36317 1.0056,-1.5084 1.45812,-3.51961 0.45252,-2.06149 0.45252,-4.42466 z"
                 style="font-style:normal;font-variant:normal;font-weight:normal;font-stretch:normal;font-size:50.28018188px;font-family:Interstate;-inkscape-font-specification:Interstate;fill:#999998;fill-opacity:0.7254902"
                 id="path4949"
                 inkscape:connector-curvature="0" />
            </g>
            <path
               id="path4951"
               d="m 704.64619,455.82361 a 45.857494,45.857498 0 0 1 -45.85749,45.8575 45.857494,45.857498 0 0 1 -45.8575,-45.8575 45.857494,45.857498 0 0 1 45.8575,-45.8575 45.857494,45.857498 0 0 1 45.85749,45.8575 z"
               style="opacity:1;fill:none;fill-opacity:0.7254902;stroke:#999998;stroke-width:8.28500557;stroke-linecap:round;stroke-linejoin:miter;stroke-miterlimit:4;stroke-dasharray:none;stroke-dashoffset:33.22999954;stroke-opacity:0.7254902"
               inkscape:connector-curvature="0" />
          </g>
        </g>
        <g
           style="opacity:0.7;fill:#000000"
           transform="translate(38.992215,536.629)"
           id="g4890">
          <g
             transform="translate(97.431893,13.390876)"
             style="font-style:normal;font-variant:normal;font-weight:normal;font-stretch:normal;font-size:32.99636841px;line-height:125%;font-family:'Proxima Nova Rg';-inkscape-font-specification:'Proxima Nova Rg, Normal';text-align:start;letter-spacing:0px;word-spacing:0px;writing-mode:lr-tb;text-anchor:start;fill:#ffffff;fill-opacity:1;stroke:none;stroke-width:1px;stroke-linecap:butt;stroke-linejoin:miter;stroke-opacity:1"
             id="g4892">
            <path
               style="font-style:normal;font-variant:normal;font-weight:normal;font-stretch:normal;font-size:50.28018188px;font-family:Interstate;-inkscape-font-specification:Interstate;fill:#ffffff;fill-opacity:1"
               d="m 1156.1836,642.28906 c -0.6415,0 -1.2632,0.0357 -1.8691,0.0996 2.3085,0.0312 4.3756,0.47306 6.1855,1.34571 1.9106,0.87152 3.5189,2.11173 4.8262,3.7207 1.3073,1.57544 2.2964,3.48657 2.9668,5.73242 0.7039,2.21233 1.0547,4.66019 1.0547,7.3418 0,2.68161 -0.3508,5.14478 -1.0547,7.39062 -0.6704,2.21233 -1.6595,4.12346 -2.9668,5.73242 -1.3073,1.57545 -2.9156,2.81567 -4.8262,3.72071 -1.3725,0.63725 -2.8934,1.03573 -4.5527,1.20703 0.08,9.8e-4 0.1555,0.01 0.2363,0.01 2.4134,0 4.5584,-0.43511 6.4355,-1.30664 1.9107,-0.90504 3.5209,-2.14525 4.8282,-3.7207 1.3073,-1.60897 2.2944,-3.5201 2.9648,-5.73242 0.7039,-2.24585 1.0567,-4.70901 1.0567,-7.39063 0,-2.6816 -0.3528,-5.12751 -1.0567,-7.33984 -0.6704,-2.24585 -1.6575,-4.15698 -2.9648,-5.73242 -1.3073,-1.60897 -2.9175,-2.84918 -4.8282,-3.72071 -1.8771,-0.90504 -4.0221,-1.35742 -6.4355,-1.35742 z m 22.5176,0.55274 0,0.0898 4.9199,0 0,10.00586 0,1.30664 c 0,0.5028 -0.017,1.02227 -0.051,1.55859 0,0.53632 -0.017,1.0558 -0.051,1.5586 l 0,1.15625 c 0.2347,-0.40225 0.6372,-0.95428 1.2071,-1.6582 0.3527,-0.43574 0.6506,-0.79923 0.9648,-1.1836 0.032,-0.52277 0.049,-1.03066 0.049,-1.52148 l 0,-1.30664 0,-10.00586 -7.039,0 z m 19.5586,0 -0.074,0.0898 6.4512,0 -10.3066,12.16602 12.8711,22.93945 2.1718,0 -12.9238,-23.02734 10.3086,-12.16797 -8.498,0 z m -44.1973,6.52539 c -1.4078,0 -2.6308,0.28367 -3.6699,0.85351 -1.0056,0.56984 -1.8433,1.35768 -2.5137,2.36328 -0.6369,1.00561 -1.1065,2.19599 -1.4082,3.57032 -0.3017,1.3408 -0.4512,2.79955 -0.4512,4.375 0,1.57544 0.1495,3.0495 0.4512,4.42382 0.3017,1.34081 0.7713,2.51394 1.4082,3.51954 0.6704,1.0056 1.5081,1.79344 2.5137,2.36328 1.0391,0.56984 2.2621,0.85547 3.6699,0.85547 0.5068,0 0.979,-0.0512 1.4336,-0.125 -1.1194,-0.0797 -2.1181,-0.3444 -2.9824,-0.81836 -1.0056,-0.56984 -1.8433,-1.35768 -2.5137,-2.36328 -0.6369,-1.0056 -1.1065,-2.17873 -1.4082,-3.51954 -0.3017,-1.37432 -0.4531,-2.85033 -0.4531,-4.42578 0,-1.57544 0.1514,-3.0342 0.4531,-4.375 0.3017,-1.37432 0.7713,-2.56275 1.4082,-3.56836 0.6704,-1.0056 1.5081,-1.79344 2.5137,-2.36328 0.6625,-0.36331 1.4083,-0.59879 2.2207,-0.73047 -0.2211,-0.0155 -0.4399,-0.0351 -0.6719,-0.0351 z m 35.1895,11.76562 -5.6309,6.63672 0,10.26758 2.1191,0 0,-10.35742 4.3262,-5.09766 -0.8144,-1.44922 z"
               transform="translate(-613.77846,-218.00694)"
               id="path4894"
               inkscape:connector-curvature="0" />
          </g>
          <path
             style="color:#000000;font-style:normal;font-variant:normal;font-weight:normal;font-stretch:normal;font-size:medium;line-height:normal;font-family:sans-serif;text-indent:0;text-align:start;text-decoration:none;text-decoration-line:none;text-decoration-style:solid;text-decoration-color:#000000;letter-spacing:normal;word-spacing:normal;text-transform:none;direction:ltr;block-progression:tb;writing-mode:lr-tb;baseline-shift:baseline;text-anchor:start;white-space:normal;clip-rule:nonzero;display:inline;overflow:visible;visibility:visible;opacity:1;isolation:auto;mix-blend-mode:normal;color-interpolation:sRGB;color-interpolation-filters:linearRGB;solid-color:#000000;solid-opacity:1;fill:#ffffff;fill-opacity:1;fill-rule:nonzero;stroke:none;stroke-width:8.28500557;stroke-linecap:round;stroke-linejoin:miter;stroke-miterlimit:4;stroke-dasharray:none;stroke-dashoffset:33.22999954;stroke-opacity:1;color-rendering:auto;image-rendering:auto;shape-rendering:auto;text-rendering:auto;enable-background:accumulate"
             d="m 1175.1348,610.43945 c -1.0917,0 -2.1716,0.0479 -3.2461,0.11719 0.376,-0.008 0.749,-0.0273 1.1269,-0.0273 21.602,0 40.064,13.73584 47.0293,32.98632 1.9228,5.31407 2.9707,11.05047 2.9707,17.01368 0,26.4602 -20.6761,48.18101 -46.7148,49.88086 27.0275,-0.62365 48.834,-22.79631 48.834,-49.97071 0,-27.56517 -22.4349,-50 -50,-50 z m -2.8692,8.39453 c -22.7381,0.39996 -40.9648,18.85933 -40.9648,41.69532 0,23.08762 18.6272,41.71484 41.7148,41.71484 0.9611,0 1.9109,-0.0439 2.8555,-0.10742 -0.2458,0.004 -0.4895,0.0176 -0.7363,0.0176 -23.0877,10e-6 -41.7149,-18.62723 -41.7149,-41.71485 0,-22.12165 17.1055,-40.13574 38.8457,-41.60547 z"
             transform="translate(-516.34657,-204.61606)"
             id="path4896"
             inkscape:connector-curvature="0" />
        </g>
        <g
           style="opacity:0.7;fill:#000000"
           transform="translate(36.736884,536.62108)"
           id="g5170">
          <g
             transform="translate(97.431893,13.390876)"
             style="font-style:normal;font-variant:normal;font-weight:normal;font-stretch:normal;font-size:32.99636841px;line-height:125%;font-family:'Proxima Nova Rg';-inkscape-font-specification:'Proxima Nova Rg, Normal';text-align:start;letter-spacing:0px;word-spacing:0px;writing-mode:lr-tb;text-anchor:start;fill:#ffffff;fill-opacity:1;stroke:none;stroke-width:1px;stroke-linecap:butt;stroke-linejoin:miter;stroke-opacity:1"
             id="g5172">
            <path
               style="font-style:normal;font-variant:normal;font-weight:normal;font-stretch:normal;font-size:50.28018188px;font-family:Interstate;-inkscape-font-specification:Interstate;fill:#000000;fill-opacity:1"
               d="m 695.39844,556.93164 c -2.41345,0 -4.57568,0.45238 -6.48633,1.35742 -1.87713,0.87153 -3.47006,2.11174 -4.77734,3.72071 -1.30728,1.57544 -2.3117,3.48656 -3.01563,5.73242 -0.6704,2.21232 -1.00586,4.65823 -1.00586,7.33984 0,2.68161 0.33546,5.14673 1.00586,7.39258 0.70393,2.21233 1.70835,4.1215 3.01563,5.73047 1.30728,1.57544 2.90021,2.81566 4.77734,3.7207 1.91065,0.87153 4.07288,1.3086 6.48633,1.3086 0.0201,0 0.0385,-0.002 0.0586,-0.002 -1.69251,-0.16716 -3.24976,-0.57078 -4.66601,-1.2168 -1.87713,-0.90503 -3.46811,-2.14525 -4.7754,-3.7207 -1.30728,-1.60896 -2.31365,-3.52009 -3.01757,-5.73242 -0.6704,-2.24585 -1.00586,-4.70901 -1.00586,-7.39062 0,-2.68161 0.33546,-5.12948 1.00586,-7.3418 0.70392,-2.24586 1.71029,-4.15503 3.01757,-5.73047 1.30729,-1.60897 2.89827,-2.84918 4.7754,-3.7207 1.89368,-0.89701 4.03622,-1.34556 6.42382,-1.35352 -0.58817,-0.0605 -1.19237,-0.0937 -1.8164,-0.0937 z m 22.51758,0.55274 0,35.19531 1.8789,0 0,-35.10547 5.16016,0 0,-0.0898 -7.03906,0 z m 19.55859,0 -9.85547,12.01757 c -0.25183,0.3058 -0.55515,0.68099 -0.83594,1.02539 -0.002,0.50643 -0.0171,1.00022 -0.0488,1.47657 l 0,1.15625 c 0.23464,-0.40225 0.63719,-0.95429 1.20703,-1.65821 0.56984,-0.70392 1.08931,-1.34226 1.55859,-1.91211 l 9.85352,-12.01562 6.54296,0 0.0762,-0.0898 -8.49805,0 z m -40.19727,6.52539 c -0.17294,0 -0.33457,0.0168 -0.50195,0.0254 0.83091,0.12881 1.58373,0.36711 2.24219,0.74023 1.03912,0.56984 1.87678,1.35768 2.51367,2.36328 0.6704,1.00561 1.1573,2.19599 1.45898,3.57031 0.30168,1.3408 0.45313,2.7976 0.45313,4.37305 0,1.57545 -0.15145,3.05146 -0.45313,4.42578 -0.30168,1.34081 -0.78858,2.51393 -1.45898,3.51953 -0.63689,1.00561 -1.47455,1.79345 -2.51367,2.36328 -0.88545,0.50176 -1.9355,0.76818 -3.13281,0.82813 0.44474,0.0688 0.9033,0.11523 1.39257,0.11523 1.40785,0 2.61549,-0.28562 3.6211,-0.85546 1.03912,-0.56984 1.87678,-1.35768 2.51367,-2.36329 0.6704,-1.0056 1.15535,-2.17872 1.45703,-3.51953 0.30168,-1.37432 0.45313,-2.84838 0.45313,-4.42382 0,-1.57545 -0.15145,-3.03421 -0.45313,-4.375 -0.30168,-1.37433 -0.78663,-2.56471 -1.45703,-3.57032 -0.63689,-1.0056 -1.47455,-1.79149 -2.51367,-2.36133 -1.00561,-0.56984 -2.21325,-0.85546 -3.6211,-0.85546 z m 35.18946,11.76562 -1.10157,1.29688 8.77344,15.60742 1.83008,0 -9.50195,-16.9043 z"
               transform="translate(-152.99274,-132.6498)"
               id="path5174"
               inkscape:connector-curvature="0" />
          </g>
          <path
             style="color:#000000;font-style:normal;font-variant:normal;font-weight:normal;font-stretch:normal;font-size:medium;line-height:normal;font-family:sans-serif;text-indent:0;text-align:start;text-decoration:none;text-decoration-line:none;text-decoration-style:solid;text-decoration-color:#000000;letter-spacing:normal;word-spacing:normal;text-transform:none;direction:ltr;block-progression:tb;writing-mode:lr-tb;baseline-shift:baseline;text-anchor:start;white-space:normal;clip-rule:nonzero;display:inline;overflow:visible;visibility:visible;opacity:1;isolation:auto;mix-blend-mode:normal;color-interpolation:sRGB;color-interpolation-filters:linearRGB;solid-color:#000000;solid-opacity:1;fill:#000000;fill-opacity:1;fill-rule:nonzero;stroke:none;stroke-width:8.28500557;stroke-linecap:round;stroke-linejoin:miter;stroke-miterlimit:4;stroke-dasharray:none;stroke-dashoffset:33.22999954;stroke-opacity:1;color-rendering:auto;image-rendering:auto;shape-rendering:auto;text-rendering:auto;enable-background:accumulate"
             d="m 714.34961,525.08398 c -27.56517,0 -50,22.43482 -50,50 0,27.05946 21.62324,49.15858 48.49219,49.96094 -25.99072,-1.74979 -46.61133,-23.44736 -46.61133,-49.87304 0,-27.56518 22.43483,-50 50,-50 0.45462,0 0.90566,0.0153 1.35742,0.0273 -1.07195,-0.069 -2.14925,-0.11524 -3.23828,-0.11524 z m 2.86328,8.39258 c 21.74336,1.46656 38.85156,19.48357 38.85156,41.60742 0,23.08762 -18.62722,41.71485 -41.71484,41.71485 -0.36762,0 -0.7304,-0.018 -1.0957,-0.0273 0.98387,0.069 1.97473,0.11524 2.97656,0.11524 23.08762,0 41.71484,-18.62722 41.71484,-41.71484 0,-3.14654 -0.34676,-6.20485 -1.0039,-9.14454 -0.0674,-0.30132 -0.13919,-0.60214 -0.21289,-0.90039 -0.34927,-1.41351 -0.77041,-2.79793 -1.25977,-4.15039 -5.6976,-15.74672 -20.59247,-27.0921 -38.25586,-27.5 z"
             transform="translate(-55.560851,-119.25892)"
             id="path5176"
             inkscape:connector-curvature="0" />
        </g>
      </g>
    </g>
    <g
       transform="translate(-97.404415,582.82477)"
       style="opacity:0.2"
       id="g5178">
      <g
         style="fill:#999998;fill-opacity:0.7254902"
         transform="translate(22.202272,-38.97161)"
         id="g5180">
        <g
           id="g5182"
           transform="translate(132.64286,-92.142857)">
          <g
             id="g5184"
             style="font-style:normal;font-variant:normal;font-weight:normal;font-stretch:normal;font-size:32.99636841px;line-height:125%;font-family:'Proxima Nova Rg';-inkscape-font-specification:'Proxima Nova Rg, Normal';text-align:start;letter-spacing:0px;word-spacing:0px;writing-mode:lr-tb;text-anchor:start;fill:#000000;fill-opacity:1;stroke:none;stroke-width:1px;stroke-linecap:butt;stroke-linejoin:miter;stroke-opacity:1"
             transform="translate(97.431893,13.390876)" />
        </g>
      </g>
    </g>
    <g
       id="g5196"
       transform="translate(123.77514,306.26394)"
       style="opacity:0.85;fill:#000000">
      <g
         id="g5198"
         style="font-style:normal;font-variant:normal;font-weight:normal;font-stretch:normal;font-size:32.99636841px;line-height:125%;font-family:'Proxima Nova Rg';-inkscape-font-specification:'Proxima Nova Rg, Normal';text-align:start;letter-spacing:0px;word-spacing:0px;writing-mode:lr-tb;text-anchor:start;fill:#ffffff;fill-opacity:1;stroke:none;stroke-width:1px;stroke-linecap:butt;stroke-linejoin:miter;stroke-opacity:1"
         transform="translate(97.431893,13.390876)">
        <path
           d="m 587.14661,460.0308 -9.55324,-16.99471 -5.63138,6.63699 0,10.35772 -7.03922,0 0,-35.19613 7.03922,0 0,10.00575 q 0,0.50281 0,1.30729 0,0.7542 -0.0503,1.55869 0,0.80448 -0.0503,1.55868 0,0.7542 0,1.15645 0.35197,-0.60337 1.20673,-1.65925 0.85476,-1.05588 1.55868,-1.91065 l 9.85492,-12.01696 8.49735,0 -10.30744,12.1678 12.92201,23.02833 -8.44707,0 z m -29.45633,-17.59807 q 0,4.02242 -1.05589,7.39119 -1.0056,3.31849 -2.96653,5.73194 -1.96092,2.36317 -4.82689,3.72073 -2.81569,1.30729 -6.43587,1.30729 -3.62017,0 -6.48614,-1.30729 -2.81569,-1.35756 -4.77662,-3.72073 -1.96092,-2.41345 -3.01681,-5.73194 -1.0056,-3.36877 -1.0056,-7.39119 0,-4.02241 1.0056,-7.3409 1.05589,-3.36878 3.01681,-5.73194 1.96093,-2.41345 4.77662,-3.72074 2.86597,-1.35756 6.48614,-1.35756 3.62018,0 6.43587,1.35756 2.86597,1.30729 4.82689,3.72074 1.96093,2.36316 2.96653,5.73194 1.05589,3.31849 1.05589,7.3409 z m -7.24035,0 q 0,-2.36317 -0.45252,-4.37437 -0.45252,-2.06149 -1.45812,-3.5699 -0.95533,-1.5084 -2.51401,-2.36316 -1.50841,-0.85477 -3.62018,-0.85477 -2.11176,0 -3.67045,0.85477 -1.50841,0.85476 -2.51401,2.36316 -0.95532,1.50841 -1.40784,3.5699 -0.45253,2.0112 -0.45253,4.37437 0,2.36317 0.45253,4.42466 0.45252,2.01121 1.40784,3.51961 1.0056,1.50841 2.51401,2.36317 1.55869,0.85476 3.67045,0.85476 2.11177,0 3.62018,-0.85476 1.55868,-0.85476 2.51401,-2.36317 1.0056,-1.5084 1.45812,-3.51961 0.45252,-2.06149 0.45252,-4.42466 z"
           style="font-style:normal;font-variant:normal;font-weight:normal;font-stretch:normal;font-size:50.28018188px;font-family:Interstate;-inkscape-font-specification:Interstate;fill:#000000;fill-opacity:1"
           id="path5200"
           inkscape:connector-curvature="0" />
      </g>
      <path
         id="path5202"
         d="m 704.64619,455.82361 a 45.857494,45.857498 0 0 1 -45.85749,45.8575 45.857494,45.857498 0 0 1 -45.8575,-45.8575 45.857494,45.857498 0 0 1 45.8575,-45.8575 45.857494,45.857498 0 0 1 45.85749,45.8575 z"
         style="opacity:1;fill:none;fill-opacity:1;stroke:#000000;stroke-width:8.28500557;stroke-linecap:round;stroke-linejoin:miter;stroke-miterlimit:4;stroke-dasharray:none;stroke-dashoffset:33.22999954;stroke-opacity:1"
         inkscape:connector-curvature="0" />
    </g>
    <g
       id="g5204"
       style="opacity:0.2"
       transform="translate(-29.19013,437.46763)">
      <g
         id="g5206"
         transform="translate(22.202272,-38.97161)"
         style="fill:#999998;fill-opacity:0.7254902">
        <g
           transform="translate(132.64286,-92.142857)"
           id="g5208">
          <g
             transform="translate(97.431893,13.390876)"
             style="font-style:normal;font-variant:normal;font-weight:normal;font-stretch:normal;font-size:32.99636841px;line-height:125%;font-family:'Proxima Nova Rg';-inkscape-font-specification:'Proxima Nova Rg, Normal';text-align:start;letter-spacing:0px;word-spacing:0px;writing-mode:lr-tb;text-anchor:start;fill:#000000;fill-opacity:1;stroke:none;stroke-width:1px;stroke-linecap:butt;stroke-linejoin:miter;stroke-opacity:1"
             id="g5210">
            <path
               inkscape:connector-curvature="0"
               id="path5212"
               style="font-style:normal;font-variant:normal;font-weight:normal;font-stretch:normal;font-size:50.28018188px;font-family:Interstate;-inkscape-font-specification:Interstate;fill:#ffffff;fill-opacity:1;stroke:none;stroke-opacity:1"
               d="m 587.14661,460.0308 -9.55324,-16.99471 -5.63138,6.63699 0,10.35772 -7.03922,0 0,-35.19613 7.03922,0 0,10.00575 q 0,0.50281 0,1.30729 0,0.7542 -0.0503,1.55869 0,0.80448 -0.0503,1.55868 0,0.7542 0,1.15645 0.35197,-0.60337 1.20673,-1.65925 0.85476,-1.05588 1.55868,-1.91065 l 9.85492,-12.01696 8.49735,0 -10.30744,12.1678 12.92201,23.02833 -8.44707,0 z m -29.45633,-17.59807 q 0,4.02242 -1.05589,7.39119 -1.0056,3.31849 -2.96653,5.73194 -1.96092,2.36317 -4.82689,3.72073 -2.81569,1.30729 -6.43587,1.30729 -3.62017,0 -6.48614,-1.30729 -2.81569,-1.35756 -4.77662,-3.72073 -1.96092,-2.41345 -3.01681,-5.73194 -1.0056,-3.36877 -1.0056,-7.39119 0,-4.02241 1.0056,-7.3409 1.05589,-3.36878 3.01681,-5.73194 1.96093,-2.41345 4.77662,-3.72074 2.86597,-1.35756 6.48614,-1.35756 3.62018,0 6.43587,1.35756 2.86597,1.30729 4.82689,3.72074 1.96093,2.36316 2.96653,5.73194 1.05589,3.31849 1.05589,7.3409 z m -7.24035,0 q 0,-2.36317 -0.45252,-4.37437 -0.45252,-2.06149 -1.45812,-3.5699 -0.95533,-1.5084 -2.51401,-2.36316 -1.50841,-0.85477 -3.62018,-0.85477 -2.11176,0 -3.67045,0.85477 -1.50841,0.85476 -2.51401,2.36316 -0.95532,1.50841 -1.40784,3.5699 -0.45253,2.0112 -0.45253,4.37437 0,2.36317 0.45253,4.42466 0.45252,2.01121 1.40784,3.51961 1.0056,1.50841 2.51401,2.36317 1.55869,0.85476 3.67045,0.85476 2.11177,0 3.62018,-0.85476 1.55868,-0.85476 2.51401,-2.36317 1.0056,-1.5084 1.45812,-3.51961 0.45252,-2.06149 0.45252,-4.42466 z" />
          </g>
          <path
             inkscape:connector-curvature="0"
             style="opacity:1;fill:none;fill-opacity:0.7254902;stroke:#ffffff;stroke-width:8.28500557;stroke-linecap:round;stroke-linejoin:miter;stroke-miterlimit:4;stroke-dasharray:none;stroke-dashoffset:33.22999954;stroke-opacity:1"
             d="m 704.64619,455.82361 c 0,25.3264 -20.5311,45.8575 -45.85749,45.8575 -25.3264,0 -45.8575,-20.5311 -45.8575,-45.8575 0,-25.3264 20.5311,-45.8575 45.8575,-45.8575 19.8475,0 36.75001,12.60891 43.13428,30.25339 0.53836,1.48789 1.00192,3.01158 1.38615,4.56655 0.0812,0.32851 0.15881,0.65841 0.23286,0.98967 0.72286,3.23367 1.1042,6.59625 1.1042,10.04789 z"
             id="path5214"
             sodipodi:nodetypes="ssssssss" />
        </g>
      </g>
    </g>
  </g>
</svg>
