<?xml version="1.0" encoding="utf-8"?>
<!-- Generator: Adobe Illustrator 16.0.0, SVG Export Plug-In . SVG Version: 6.00 Build 0)  -->
<!DOCTYPE svg PUBLIC "-//W3C//DTD SVG 1.1//EN" "http://www.w3.org/Graphics/SVG/1.1/DTD/svg11.dtd">
<svg version="1.1" id="Layer_1" xmlns="http://www.w3.org/2000/svg" xmlns:xlink="http://www.w3.org/1999/xlink" x="0px" y="0px"
	 width="1920px" height="1080px" viewBox="0 0 1920 1080" enable-background="new 0 0 1920 1080" xml:space="preserve">
<rect x="909.792" y="542.828" fill="#A31202" width="100.416" height="31.833"/>
<g>
	<rect x="927.197" y="549.657" fill="none" width="45.663" height="20.175"/>
	<text transform="matrix(1 0 0 1 927.2559 567.5176)" fill="#FFFFFF" font-family="'Interstate-Regular'" font-size="24.5">Sair</text>
</g>
<g>
	<g>
		<path fill="#FFFFFF" d="M987.998,567.518l-1.937-3.333c-0.612-1.054-1.568-2.843-1.887-3.479c-0.294,0.637-1.25,2.377-1.887,3.479
			l-1.911,3.333h-3.015l5.317-8.847l-4.975-8.308h3.063l1.568,2.77c0.588,1.054,1.568,2.867,1.887,3.504
			c0.319-0.637,1.25-2.401,1.888-3.504l1.593-2.77h3.014l-4.975,8.283l5.318,8.871H987.998z"/>
	</g>
</g>
<rect x="1030.292" y="542.828" fill="#A31202" width="100.416" height="31.833"/>
<rect x="909.792" y="641.603" fill="#A31202" width="100.416" height="31.833"/>
<rect x="909.792" y="592.682" fill="#A31202" width="100.416" height="31.832"/>
<g>
	<rect x="932.798" y="599.737" fill="none" width="34.48" height="20.175"/>
	<text transform="matrix(1 0 0 1 932.9619 617.5977)" fill="#FFFFFF" font-family="'Interstate-Regular'" font-size="24.5">OK</text>
</g>
<g>
	<path fill="#FFFFFF" d="M987.033,608.598c0-3.423-2.706-6.197-6.045-6.197c-0.467,0-0.923,0.055-1.36,0.158
		c-2.683,0.632-4.684,3.096-4.683,6.039c0,3.424,2.705,6.196,6.043,6.196C984.327,614.794,987.033,612.021,987.033,608.598z"/>
	<ellipse fill="none" stroke="#FFFFFF" stroke-width="2" stroke-miterlimit="10" cx="980.989" cy="608.598" rx="9.213" ry="9.446"/>
</g>
<g>
	<g>
		<rect x="1046.002" y="549.657" fill="none" width="45.664" height="20.175"/>
		<text transform="matrix(1 0 0 1 1046.0605 567.5176)" fill="#FFFFFF" font-family="'Interstate-Regular'" font-size="24.5">Sair</text>
	</g>
	<g>
		<g>
			<g>
				<path fill="#FFFFFF" d="M1109.521,566.102l-1.74-2.992c-0.549-0.947-1.408-2.553-1.693-3.125
					c-0.264,0.572-1.123,2.135-1.693,3.125l-1.717,2.992h-2.707l4.775-7.943l-4.467-7.46h2.75l1.408,2.486
					c0.527,0.946,1.408,2.575,1.693,3.146c0.287-0.571,1.123-2.156,1.697-3.146l1.43-2.486h2.705l-4.467,7.438l4.775,7.966H1109.521
					z"/>
			</g>
		</g>
		<ellipse fill="none" stroke="#FFFFFF" stroke-width="2" stroke-miterlimit="10" cx="1106.122" cy="558.4" rx="8.876" ry="9.102"/>
	</g>
</g>
<g>
	<rect x="915.499" y="648.432" fill="none" width="69.075" height="22.347"/>
	<text transform="matrix(1 0 0 1 919.7061 666.292)" fill="#FFFFFF" font-family="'Interstate-Regular'" font-size="24.5">Volta</text>
</g>
<g>
	<path fill="none" stroke="#FFFFFF" stroke-width="2" stroke-miterlimit="10" d="M996.06,651.09c4.179,0,7.566,3.389,7.566,7.568
		s-3.388,7.567-7.566,7.567c-4.181,0-7.568-3.388-7.568-7.567"/>
	<polygon fill="#FFFFFF" stroke="#FFFFFF" stroke-miterlimit="10" points="996.06,648.796 991.77,651.09 996.06,653.385 	"/>
</g>
<rect x="1030.292" y="641.603" fill="#A31202" width="100.416" height="31.833"/>
<g>
	<rect x="1034.999" y="648.432" fill="none" width="69.075" height="22.347"/>
	<text transform="matrix(1 0 0 1 1039.2061 666.292)" fill="#FFFFFF" font-family="'Interstate-Regular'" font-size="24.5">Volta</text>
</g>
<g>
	<g>
		<path fill="none" stroke="#FFFFFF" stroke-width="0.5" stroke-miterlimit="10" d="M1111.489,658.382"/>
		<polygon fill="#FFFFFF" stroke="#FFFFFF" stroke-width="0.5" stroke-miterlimit="10" points="1111.489,655.595 1106.144,658.382 
			1111.489,661.169 		"/>
	</g>
	<polyline fill="none" stroke="#FFFFFF" stroke-miterlimit="10" points="1107.628,658.382 1126.197,658.382 1126.197,665.615 
		1106.074,665.615 	"/>
</g>
<rect x="1153.292" y="641.603" fill="#A31202" width="100.416" height="31.833"/>
<g>
	<rect x="1157.999" y="657.52" fill="none" width="91.075" height="13.259"/>
	<text transform="matrix(1 0 0 1 1177.4912 670.6416)" fill="#FFFFFF" font-family="'Interstate-Regular'" font-size="18">Voltar</text>
</g>
<g>
	<g>
		<path fill="none" stroke="#FFFFFF" stroke-width="0.5" stroke-miterlimit="10" d="M1182.614,647.361"/>
		<polygon fill="#FFFFFF" stroke="#FFFFFF" stroke-width="0.5" stroke-miterlimit="10" points="1182.614,644.574 1177.269,647.361 
			1182.614,650.148 		"/>
	</g>
	<polyline fill="none" stroke="#FFFFFF" stroke-miterlimit="10" points="1182.471,647.361 1228.25,647.361 1228.25,654.595 
		1178.641,654.595 	"/>
</g>
</svg>
