<?xml version="1.0" encoding="utf-8"?>
<!-- Generator: Adobe Illustrator 16.0.0, SVG Export Plug-In . SVG Version: 6.00 Build 0)  -->
<!DOCTYPE svg PUBLIC "-//W3C//DTD SVG 1.1//EN" "http://www.w3.org/Graphics/SVG/1.1/DTD/svg11.dtd">
<svg version="1.1" id="Layer_1" xmlns="http://www.w3.org/2000/svg" xmlns:xlink="http://www.w3.org/1999/xlink" x="0px" y="0px"
	 width="14400px" height="14400px" viewBox="0 0 14400 14400" enable-background="new 0 0 14400 14400" xml:space="preserve">
<g>
	<rect x="7116.5" y="7174.5" fill="#A31202" width="45" height="36.709"/>
	<g>
		<path fill="#FFFFFF" d="M7145.985,7192.771c0-3.949-3.127-7.152-6.984-7.152c-0.541,0-1.069,0.063-1.575,0.181
			c-3.098,0.73-5.41,3.575-5.41,6.972c0,3.95,3.13,7.148,6.985,7.148C7142.858,7199.92,7145.985,7196.722,7145.985,7192.771z"/>
		<path fill="none" stroke="#FFFFFF" stroke-width="2" stroke-miterlimit="10" d="M7149.646,7192.771
			c0-6.021-4.764-10.901-10.645-10.901c-5.878,0-10.646,4.881-10.646,10.901c0,6.018,4.769,10.896,10.646,10.896
			C7144.882,7203.668,7149.646,7198.789,7149.646,7192.771z"/>
	</g>
</g>
<g>
	<path fill="#A31202" d="M7232.004,7128.239c-3.088,0-5.049-2.543-5.049-6.156c0-3.615,1.961-6.156,5.049-6.156
		c3.104,0,5.064,2.541,5.064,6.156C7237.068,7125.696,7235.107,7128.239,7232.004,7128.239z M7232.004,7117.717
		c-2.082,0-3.225,1.688-3.225,4.365c0,2.676,1.143,4.365,3.225,4.365c2.098,0,3.238-1.689,3.238-4.365
		C7235.242,7119.405,7234.102,7117.717,7232.004,7117.717z"/>
	<path fill="#A31202" d="M7244.453,7128.049l-1.979-4.449l-1.363,1.807v2.643h-1.756v-11.51l1.756-0.92v5.645
		c0,0.545-0.016,1.467-0.016,1.91c0.236-0.357,0.699-1.041,0.988-1.467l1.857-2.609h1.996l-2.27,3.002l2.697,5.949H7244.453z"/>
</g>
<g>
	<g>
		<path fill="#A31202" d="M7305.533,7138.519c-1.727,0-3.217-0.746-4.215-1.923l1.268-1.24c0.799,0.864,1.965,1.411,3.08,1.411
			c1.66,0,2.457-0.58,2.457-1.735c0-0.919-0.693-1.379-2.676-1.976c-2.504-0.751-3.705-1.377-3.705-3.507
			c0-2.059,1.727-3.32,3.908-3.32c1.607,0,2.826,0.598,3.877,1.619l-1.252,1.276c-0.746-0.766-1.592-1.141-2.76-1.141
			c-1.387,0-1.98,0.682-1.98,1.48c0,0.835,0.543,1.242,2.59,1.856c2.336,0.716,3.789,1.464,3.789,3.59
			C7309.914,7137.057,7308.561,7138.519,7305.533,7138.519z"/>
		<path fill="#A31202" d="M7317.246,7138.333v-0.884c-0.611,0.612-1.473,1.07-2.438,1.07c-1.439,0-3.08-0.815-3.08-3.012
			c0-1.992,1.521-2.892,3.537-2.892c0.83,0,1.486,0.118,1.98,0.336v-0.66c0-0.971-0.594-1.517-1.678-1.517
			c-0.914,0-1.623,0.169-2.318,0.564l-0.678-1.328c0.85-0.528,1.795-0.802,3.047-0.802c1.982,0,3.334,0.969,3.334,2.996v6.127
			H7317.246z M7317.246,7134.519c-0.475-0.239-1.082-0.391-2.031-0.391c-1.117,0-1.83,0.513-1.83,1.328
			c0,0.884,0.561,1.479,1.713,1.479c0.928,0,1.74-0.576,2.148-1.14V7134.519z"/>
		<path fill="#A31202" d="M7322.422,7128.241c-0.623,0-1.133-0.513-1.133-1.125c0-0.631,0.51-1.14,1.133-1.14
			c0.611,0,1.119,0.509,1.119,1.14C7323.541,7127.728,7323.033,7128.241,7322.422,7128.241z M7321.545,7138.333v-8.937h1.742v8.937
			H7321.545z"/>
		<path fill="#A31202" d="M7330.766,7131.25c-0.369-0.202-0.76-0.322-1.336-0.322c-1.1,0-1.744,0.784-1.744,2.299v5.105h-1.742
			v-8.937h1.742v0.851c0.406-0.593,1.152-1.037,2.031-1.037c0.711,0,1.152,0.138,1.506,0.373L7330.766,7131.25z"/>
	</g>
</g>
<g>
	<rect x="7217.125" y="7174.5" fill="#A31202" width="45" height="36.84"/>
	<g>
		<path fill="#FFFFFF" stroke="#FFFFFF" stroke-miterlimit="10" d="M7243.354,7201.404l-1.905-3.283
			c-0.604-1.035-1.545-2.795-1.859-3.424c-0.289,0.629-1.23,2.34-1.856,3.424l-1.883,3.283h-2.966l5.235-8.707l-4.897-8.175h3.017
			l1.541,2.722c0.579,1.039,1.543,2.822,1.858,3.451c0.313-0.629,1.23-2.363,1.858-3.451l1.565-2.722h2.966l-4.894,8.151l5.23,8.73
			H7243.354z"/>
	</g>
</g>
<g>
	<path fill="#A31202" d="M7259.302,7132.882h-1.736l-3.803-10.953h1.781l2.287,6.979c0.203,0.64,0.52,1.611,0.611,2.002
		c0.096-0.391,0.406-1.378,0.609-2.018l2.252-6.964h1.754L7259.302,7132.882z"/>
	<path fill="#A31202" d="M7267.032,7133.053c-2.064,0-3.615-1.705-3.615-4.271c0-2.691,1.598-4.287,3.662-4.287
		c2.096,0,3.662,1.676,3.662,4.24C7270.741,7131.458,7269.146,7133.053,7267.032,7133.053z M7267.019,7126.03
		c-1.223,0-1.975,1.078-1.975,2.705c0,1.801,0.832,2.785,2.051,2.785c1.221,0,2.02-1.236,2.02-2.738
		C7269.114,7127.108,7268.315,7126.03,7267.019,7126.03z"/>
	<path fill="#A31202" d="M7272.808,7132.882v-10.562l1.613-0.845v11.406H7272.808z"/>
	<path fill="#A31202" d="M7280.804,7132.678c-0.393,0.22-0.939,0.375-1.58,0.375c-1.143,0-1.85-0.702-1.85-2.174v-4.74h-1.17v-1.472
		h1.17v-2.347l1.584-0.845v3.191h2.033v1.472h-2.033v4.458c0,0.767,0.25,0.987,0.844,0.987c0.422,0,0.891-0.158,1.189-0.329
		L7280.804,7132.678z"/>
	<path fill="#A31202" d="M7287.657,7132.882v-0.813c-0.564,0.563-1.361,0.984-2.254,0.984c-1.328,0-2.846-0.751-2.846-2.77
		c0-1.829,1.408-2.66,3.268-2.66c0.768,0,1.379,0.111,1.832,0.313v-0.608c0-0.892-0.549-1.395-1.551-1.395
		c-0.846,0-1.502,0.156-2.141,0.516l-0.627-1.22c0.783-0.484,1.66-0.735,2.813-0.735c1.834,0,3.086,0.893,3.086,2.756v5.632
		H7287.657z M7287.657,7129.377c-0.439-0.221-1-0.36-1.879-0.36c-1.031,0-1.689,0.469-1.689,1.22c0,0.814,0.516,1.363,1.582,1.363
		c0.861,0,1.611-0.533,1.986-1.049V7129.377z"/>
	<path fill="#A31202" d="M7296.013,7126.373c-0.342-0.187-0.703-0.298-1.236-0.298c-1.016,0-1.611,0.723-1.611,2.113v4.694h-1.611
		v-8.215h1.611v0.782c0.375-0.547,1.064-0.955,1.879-0.955c0.658,0,1.064,0.126,1.389,0.344L7296.013,7126.373z"/>
</g>
<g>
	<rect x="7167.25" y="7174.5" fill="#A31202" width="45" height="36.71"/>
	<g>
		<path fill="none" stroke="#FFFFFF" stroke-width="3" stroke-miterlimit="10" d="M7189.297,7185.422
			c4.904,0,8.882,3.977,8.882,8.881c0,4.906-3.978,8.882-8.882,8.882c-4.908,0-8.883-3.976-8.883-8.882"/>
		<polygon fill="#FFFFFF" stroke="#FFFFFF" stroke-width="2" stroke-miterlimit="10" points="7189.297,7182.73 7184.262,7185.422 
			7189.297,7188.117 		"/>
	</g>
</g>
<rect x="7344.004" y="7110.888" fill="none" width="20.145" height="24.875"/>
<text transform="matrix(1 0 0 1 7344.0039 7122.5527)" fill="#A31202" font-family="'Interstate-Regular'" font-size="16">Ok</text>
<g>
	<path fill="#A31202" d="M7173.601,7224.324h-1.777l-3.891-11.204h1.826l2.336,7.139c0.209,0.656,0.529,1.648,0.625,2.049
		c0.096-0.4,0.416-1.409,0.623-2.065l2.307-7.122h1.791L7173.601,7224.324z"/>
	<path fill="#A31202" d="M7181.503,7224.5c-2.113,0-3.697-1.744-3.697-4.369c0-2.754,1.633-4.386,3.744-4.386
		c2.146,0,3.746,1.712,3.746,4.337C7185.296,7222.867,7183.663,7224.5,7181.503,7224.5z M7181.487,7217.313
		c-1.25,0-2.018,1.104-2.018,2.769c0,1.841,0.848,2.85,2.098,2.85c1.248,0,2.064-1.265,2.064-2.801
		C7183.632,7218.418,7182.815,7217.313,7181.487,7217.313z"/>
	<path fill="#A31202" d="M7187.405,7224.324v-10.805l1.648-0.864v11.669H7187.405z"/>
	<path fill="#A31202" d="M7195.583,7224.116c-0.4,0.224-0.961,0.384-1.617,0.384c-1.168,0-1.889-0.72-1.889-2.225v-4.85h-1.199
		v-1.505h1.199v-2.401l1.617-0.864v3.266h2.08v1.505h-2.08v4.562c0,0.784,0.256,1.009,0.865,1.009c0.432,0,0.912-0.16,1.215-0.337
		L7195.583,7224.116z"/>
	<path fill="#A31202" d="M7202.593,7224.324v-0.832c-0.576,0.576-1.393,1.008-2.305,1.008c-1.361,0-2.914-0.768-2.914-2.833
		c0-1.873,1.441-2.721,3.346-2.721c0.785,0,1.408,0.111,1.873,0.32v-0.625c0-0.912-0.561-1.424-1.584-1.424
		c-0.865,0-1.537,0.159-2.193,0.527l-0.641-1.248c0.801-0.496,1.697-0.752,2.881-0.752c1.873,0,3.154,0.912,3.154,2.816v5.763
		H7202.593z M7202.593,7220.738c-0.449-0.224-1.025-0.367-1.922-0.367c-1.055,0-1.729,0.479-1.729,1.248
		c0,0.832,0.529,1.393,1.617,1.393c0.881,0,1.648-0.544,2.033-1.072V7220.738z"/>
	<path fill="#A31202" d="M7211.136,7217.666c-0.354-0.192-0.721-0.305-1.266-0.305c-1.039,0-1.648,0.736-1.648,2.161v4.802h-1.648
		v-8.403h1.648v0.8c0.385-0.56,1.088-0.976,1.922-0.976c0.672,0,1.088,0.128,1.424,0.352L7211.136,7217.666z"/>
</g>
<g>
	<path fill="#A31202" d="M7229.474,7224.5c-1.633,0-3.041-0.704-3.986-1.809l1.201-1.168c0.752,0.816,1.857,1.328,2.914,1.328
		c1.568,0,2.32-0.544,2.32-1.633c0-0.864-0.656-1.296-2.529-1.856c-2.369-0.704-3.506-1.297-3.506-3.298
		c0-1.937,1.633-3.121,3.697-3.121c1.521,0,2.674,0.561,3.666,1.521l-1.184,1.201c-0.705-0.721-1.506-1.073-2.609-1.073
		c-1.313,0-1.873,0.641-1.873,1.393c0,0.785,0.512,1.169,2.449,1.745c2.209,0.672,3.586,1.377,3.586,3.377
		C7233.62,7223.124,7232.339,7224.5,7229.474,7224.5z"/>
	<path fill="#A31202" d="M7240.546,7224.324v-0.832c-0.576,0.576-1.393,1.008-2.305,1.008c-1.361,0-2.914-0.768-2.914-2.833
		c0-1.873,1.441-2.721,3.346-2.721c0.785,0,1.408,0.111,1.873,0.32v-0.625c0-0.912-0.561-1.424-1.584-1.424
		c-0.865,0-1.537,0.159-2.193,0.527l-0.641-1.248c0.801-0.496,1.697-0.752,2.881-0.752c1.873,0,3.154,0.912,3.154,2.816v5.763
		H7240.546z M7240.546,7220.738c-0.449-0.224-1.025-0.367-1.922-0.367c-1.055,0-1.729,0.479-1.729,1.248
		c0,0.832,0.529,1.393,1.617,1.393c0.881,0,1.648-0.544,2.033-1.072V7220.738z"/>
	<path fill="#A31202" d="M7245.44,7214.832c-0.594,0-1.072-0.479-1.072-1.056c0-0.593,0.479-1.073,1.072-1.073
		c0.576,0,1.057,0.48,1.057,1.073C7246.497,7214.353,7246.017,7214.832,7245.44,7214.832z M7244.608,7224.324v-8.403h1.648v8.403
		H7244.608z"/>
	<path fill="#A31202" d="M7253.329,7217.666c-0.352-0.192-0.721-0.305-1.264-0.305c-1.041,0-1.648,0.736-1.648,2.161v4.802h-1.648
		v-8.403h1.648v0.8c0.383-0.56,1.088-0.976,1.92-0.976c0.672,0,1.088,0.128,1.426,0.352L7253.329,7217.666z"/>
</g>
<g>
	<path fill="#A31202" d="M7133.384,7224.5c-2.896,0-4.737-2.385-4.737-5.778s1.841-5.778,4.737-5.778
		c2.913,0,4.754,2.385,4.754,5.778S7136.297,7224.5,7133.384,7224.5z M7133.384,7214.624c-1.952,0-3.025,1.585-3.025,4.098
		c0,2.514,1.073,4.098,3.025,4.098c1.969,0,3.041-1.584,3.041-4.098C7136.425,7216.209,7135.353,7214.624,7133.384,7214.624z"/>
	<path fill="#A31202" d="M7147.449,7224.324l-3.219-5.746l-2.08,2.513v3.233h-1.632v-11.204h1.632v3.841
		c0,0.416-0.016,1.633-0.031,1.985c0.191-0.288,0.928-1.217,1.295-1.681l3.314-4.146h1.904l-3.281,4.065l4.002,7.139H7147.449z"/>
</g>
</svg>
