<?xml version="1.0" encoding="utf-8"?>
<!-- Generator: Adobe Illustrator 16.0.0, SVG Export Plug-In . SVG Version: 6.00 Build 0)  -->
<!DOCTYPE svg PUBLIC "-//W3C//DTD SVG 1.1//EN" "http://www.w3.org/Graphics/SVG/1.1/DTD/svg11.dtd">
<svg version="1.1" id="Layer_1" xmlns="http://www.w3.org/2000/svg" xmlns:xlink="http://www.w3.org/1999/xlink" x="0px" y="0px"
	 width="14400px" height="14400px" viewBox="0 0 14400 14400" enable-background="new 0 0 14400 14400" xml:space="preserve">
<g>
	<path fill="#A31202" d="M7184.204,7224.329h-1.736l-3.803-10.953h1.781l2.287,6.979c0.203,0.64,0.52,1.611,0.611,2.002
		c0.096-0.391,0.406-1.378,0.609-2.018l2.252-6.964h1.754L7184.204,7224.329z"/>
	<path fill="#A31202" d="M7191.935,7224.5c-2.064,0-3.615-1.705-3.615-4.271c0-2.691,1.598-4.287,3.662-4.287
		c2.096,0,3.662,1.676,3.662,4.24C7195.644,7222.904,7194.048,7224.5,7191.935,7224.5z M7191.921,7217.477
		c-1.223,0-1.975,1.078-1.975,2.705c0,1.801,0.832,2.785,2.051,2.785c1.221,0,2.02-1.236,2.02-2.738
		C7194.017,7218.555,7193.218,7217.477,7191.921,7217.477z"/>
	<path fill="#A31202" d="M7197.71,7224.329v-10.562l1.613-0.845v11.406H7197.71z"/>
	<path fill="#A31202" d="M7205.706,7224.125c-0.393,0.22-0.939,0.375-1.58,0.375c-1.143,0-1.85-0.702-1.85-2.174v-4.74h-1.17v-1.472
		h1.17v-2.347l1.584-0.845v3.191h2.033v1.472h-2.033v4.458c0,0.767,0.25,0.987,0.844,0.987c0.422,0,0.891-0.158,1.189-0.329
		L7205.706,7224.125z"/>
	<path fill="#A31202" d="M7212.56,7224.329v-0.813c-0.564,0.563-1.361,0.984-2.254,0.984c-1.328,0-2.846-0.751-2.846-2.77
		c0-1.829,1.408-2.66,3.268-2.66c0.768,0,1.379,0.111,1.832,0.313v-0.608c0-0.892-0.549-1.395-1.551-1.395
		c-0.846,0-1.502,0.156-2.141,0.516l-0.627-1.22c0.783-0.484,1.66-0.735,2.813-0.735c1.834,0,3.086,0.893,3.086,2.756v5.632H7212.56
		z M7212.56,7220.824c-0.439-0.221-1-0.36-1.879-0.36c-1.031,0-1.689,0.469-1.689,1.22c0,0.814,0.516,1.363,1.582,1.363
		c0.861,0,1.611-0.533,1.986-1.049V7220.824z"/>
	<path fill="#A31202" d="M7220.915,7217.819c-0.342-0.187-0.703-0.298-1.236-0.298c-1.016,0-1.611,0.723-1.611,2.113v4.694h-1.611
		v-8.215h1.611v0.782c0.375-0.547,1.064-0.955,1.879-0.955c0.658,0,1.064,0.126,1.389,0.344L7220.915,7217.819z"/>
</g>
<g>
	<rect x="7177.5" y="7174.5" fill="#A31202" width="45" height="36.71"/>
	<g>
		<path fill="none" stroke="#FFFFFF" stroke-width="3" stroke-miterlimit="10" d="M7199.547,7185.422
			c4.904,0,8.882,3.977,8.882,8.881c0,4.906-3.978,8.882-8.882,8.882c-4.909,0-8.882-3.976-8.882-8.882"/>
		<polygon fill="#FFFFFF" stroke="#FFFFFF" stroke-width="2" stroke-miterlimit="10" points="7199.547,7182.73 7194.512,7185.422 
			7199.547,7188.117 		"/>
	</g>
</g>
</svg>
